<?xml version="1.0" encoding="utf-8"?>
<!-- Generator: Adobe Illustrator 26.2.1, SVG Export Plug-In . SVG Version: 6.00 Build 0)  -->
<svg version="1.1" id="Layer_1" xmlns="http://www.w3.org/2000/svg" xmlns:xlink="http://www.w3.org/1999/xlink" x="0px" y="0px"
	 viewBox="0 0 785 589" style="enable-background:new 0 0 785 589;" xml:space="preserve">
<style type="text/css">
	.st0{fill:#051A4C;}
	.st1{fill:#E7E7E8;}
</style>
<path class="st0" d="M227.3,384.4c-0.4,1.2-0.7,2.4-1,3.6c-1.4,7.6-0.4,15.8,1.1,23.3c2,9.7,5.9,19.4,11.4,27.9l2.4,3.5
	c3.1,4.2,6.6,8.1,10.6,11.4c2.4,2,5.2,3.9,8.2,5.3c0.3,0.2,0.8,0.4,1.3,0.6c3.5,1.6,7.3,2.7,11,3l0.7,0c5.5,0.3,10.9-1.2,15.1-5.5
	c1.1,0.5,2.4,0.5,3.2-0.7c28.9-42.9,73.7-66.2,119.6-87.2c10.5-4.8,21-9.8,32.1-13.2c5.5-1.7,11.2-3,17-3.4c3-0.2,6.2,0.1,9.3,0.1
	c-4.4,0.4-8.7,0.6-13.1,0.6c-0.7,0-0.6,1.1,0.1,1.1c4.9,0.1,9.9-0.1,14.8-0.7c4.4-0.5,9.3-1.1,13.5-2.8c0.2-0.1,0.2-0.4,0-0.4
	c-1.9-0.6-3.5-0.7-5.4,0c-0.1,0-0.1,0.2,0.1,0.2c1.1-0.5,2.3-0.6,3.6-0.4c1,0.4,0.8,0.6-0.5,0.6c-1,0.4-2.3,0.5-3.3,0.7
	c-1,0.2-2,0.3-3.1,0.5c8.8-2.8,8.9-13.8,8.5-21.6c-0.4-7.5-1.3-15-2.7-22.4c2.9,0.9,5.8,1.7,8.7,2.3c1.5,0.3,2.3-2.1,0.8-2.6
	c-3.5-1.2-6.9-2.4-10.3-3.7c-0.5-2.3-1-4.6-1.6-7c-5.3-21-15.1-52.7-40.3-56c-0.9-0.1-1.4,0.5-1.4,1.2c-2.4,0.1-4.9,1.4-6.7,3.2
	c-2.6,2.6-3.7,6.2-5.3,9.4c-2.8,5.4-6.1,8.8-10.9,11.6c-1.8-5.6-3.3-11.4-4.2-17.2c-0.9-5.6-1.6-11.4-1.1-17.1
	c0.2-2.2,0.5-4.4,1.1-6.5c0.5-1.9,1.3-3.7,2.3-5.5c1.1-1.7,2.4-3.4,3.8-4.9c-0.1,1.9,2.9,1.9,3.3,0.2c0.3-1.6-0.1-3-1.5-3.7
	c0-0.9-0.9-1.8-2.1-1.4c-10.2,3.2-17.4,10.1-24.5,17.7c-9.3,10-18.6,20-27.6,30.2c-7.3,8.2-18.6,17.4-20.6,28.7
	c-1.9,10.6,0.9,21-2.8,31.3c-2.9-5.8-4.7-12.2-5.6-18.7c-0.2-1.5-1.9-2.6-3.3-1.6c-3,2.2-5.6,4.8-7.1,8.3c-2.1,4.8-0.5,10.5-5,14
	c-4.4,3.6-11.6,5.7-16.7,8.1c-5,2.4-10.1,4.8-15.1,7.2c-16.9,8.1-34.1,17.5-47.7,30.5c-4.9,4.7-9.6,9.8-12.2,16L227.3,384.4z"/>
<g>
	<path class="st1" d="M592.1,74.5C580.3,68,569,61.1,558,53.3c-4.9-3.5-9.6-7.1-14.2-11.1c-3.8-3.3-18.2-12.8-13.2-19.2
		c0.5-0.7-0.4-1.5-1-1c-0.4-1.9-1.7-3.7-3.2-4.9c-0.4-0.3-0.7,0.2-0.5,0.5c1.4,1.6,2.1,3.3,2.8,5.2c-2.6,3.2-1.8,6.7,0.9,10
		c4.8,5.8,11.8,10.3,17.5,15.2c13.3,11.6,26.5,23.5,42.9,30.7C592.9,80,594.8,76,592.1,74.5z"/>
	<path class="st1" d="M456.6,195.8c-4.9-4.7-9.7-9.5-13.8-14.9c-3.7-4.9-6.4-10.6-10.3-15.4c-0.3-0.4-1.1-0.3-1.1,0.4
		c1.4,12.7,12.7,25.6,22.6,32.9c0.1,0.1,0.3,0.2,0.4,0.2c0.2,0.1,0.4,0.3,0.5,0.4c0.3,0.2,0.7,0,0.7-0.3
		C457.1,198.8,458,197.1,456.6,195.8z"/>
	<path class="st1" d="M468,208.9c-0.2-2.2-1.1-4.3-2.2-6.1c-0.8-1.4-3.2-0.6-3,1.1c0.2,2.2,0.8,4.3,1.9,6.2
		C465.7,211.6,468.2,210.7,468,208.9z"/>
	<path class="st1" d="M476.9,213.8c-0.4-2.2-1.1-4.1-2.2-6c-0.7-1.3-2.9-0.5-2.7,0.9c0.1,1.1,0.3,2.1,0.6,3.2c0.3,1.1,0.8,2,1.3,3
		C474.7,216.3,477.1,215.4,476.9,213.8z"/>
	<path class="st1" d="M486.8,214.7c-0.5-0.3-1-0.8-1.4-1.2c-0.4-0.4-0.8-0.8-1-1.4c-0.6-1.4-3-1.1-2.8,0.6c0.3,2.4,1.8,4.3,4.3,4.7
		C487.6,217.6,488.1,215.5,486.8,214.7z"/>
	<path class="st1" d="M184.1,428.5c-0.3-0.8-0.9-1.3-1.5-1.9c-0.8-0.9-1.4-1.9-1.7-3.1c-0.6-2.1-0.9-5,0.2-6.9
		c0.2-0.3-0.3-0.6-0.5-0.3c-2,2.3-3,4.5-2.3,7.6c0.5,2.2,2.5,6.1,5.2,5.8C183.9,429.5,184.3,429,184.1,428.5z"/>
	<path class="st1" d="M343.6,521.1c-6.8-8.5-14.4-16.4-22.9-23.3c-2.1-1.7-4.9,1.4-2.8,3.2c1.7,1.4,3.4,2.9,5,4.4
		c2.2,4.7,4.5,9.4,6.7,14.1c2.2,4.6,4.1,9.8,7,14c0.4,0.5,1.2,0.1,1-0.5c-1.6-4.9-4.5-9.5-6.8-14.1c-2-4-4-7.9-6-11.9
		c4.9,4.5,9.5,9.2,13.8,14.4c3.2,3.9,7.3,7.6,6.7,12.7c-0.5,4.4-2.1,4.1-5.9,3.6c-2.1-0.3-4.2-0.9-6.3-1.3
		c-17.5-4.1-34.6-10.1-50.9-17.6c-32.4-14.9-60.3-36.8-85.2-62.2c-0.5-0.6-1.5,0.3-1,0.9c26.7,33.3,64.3,58.3,104,73.5
		c9.8,3.7,19.8,6.8,30,9.2c5.6,1.3,15.1,4.6,19.7-0.9C354.7,533.3,347.2,525.5,343.6,521.1z"/>
	<path class="st1" d="M484.3,350.7c-1.9-0.6-3.5-0.7-5.4,0c-0.1,0-0.1,0.2,0.1,0.2c1.1-0.5,2.3-0.6,3.6-0.4c1,0.4,0.8,0.6-0.5,0.6
		c-1,0.4-2.3,0.5-3.3,0.7c-1,0.2-2,0.3-3.1,0.5c8.8-2.8,8.9-13.8,8.5-21.6c-0.4-7.5-1.3-15-2.7-22.4c2.9,0.9,5.8,1.7,8.7,2.3
		c1.5,0.3,2.3-2.1,0.8-2.6c-3.5-1.2-6.9-2.4-10.3-3.7c-0.5-2.3-1-4.6-1.6-7c-5.3-21-15.1-52.7-40.3-56c-0.9-0.1-1.4,0.5-1.4,1.2
		c-2.4,0.1-4.9,1.4-6.7,3.2c-2.6,2.6-3.7,6.2-5.3,9.4c-2.8,5.4-6.1,8.8-10.9,11.6c-1.8-5.6-3.3-11.4-4.2-17.2
		c-0.9-5.6-1.6-11.4-1.1-17.1c0.2-2.2,0.5-4.4,1.1-6.5c0.5-1.9,1.3-3.7,2.3-5.5c1.1-1.7,2.4-3.4,3.8-4.9c-0.1,1.9,2.9,1.9,3.3,0.2
		c0.3-1.6-0.1-3-1.5-3.7c0-0.9-0.9-1.8-2.1-1.4c-10.2,3.2-17.4,10.1-24.5,17.7c-9.3,10-18.6,20-27.6,30.2
		c-7.3,8.2-18.6,17.4-20.6,28.7c-1.9,10.6,0.9,21-2.8,31.3c-2.9-5.8-4.7-12.2-5.6-18.7c-0.2-1.5-1.9-2.6-3.3-1.6
		c-3,2.2-5.6,4.8-7.1,8.3c-2.1,4.8-0.5,10.5-5,14c-4.4,3.6-11.6,5.7-16.7,8.1c-5,2.4-10.1,4.8-15.1,7.2
		c-16.9,8.1-34.1,17.5-47.7,30.5c-4.9,4.7-9.6,9.8-12.2,16c-4.8,3-9.6,6.1-14.4,9.1c-8.6,5.5-17.6,10.9-25.5,17.4
		c-0.6,0.5,0,1.4,0.7,1c8.8-5.2,17.1-11.5,25.6-17.2c4.3-2.8,8.5-5.7,12.8-8.5c-0.4,1.2-0.7,2.4-1,3.6c-1.4,7.6-0.4,15.8,1.1,23.3
		c2,9.7,5.9,19.4,11.4,27.9c-3.5-1.8-7.1-3.5-10.6-5.3c-5.7-3-11.5-6.1-17.6-8.2c-1.9-0.7-5.1-1.6-8.4-2.2
		c6.4-4.5,12.8-9.4,18.8-14.4c0.4-0.4,0-1.1-0.5-0.8c-6.8,4.6-13.7,9.6-20,14.8c0,0-0.1,0.1-0.1,0.1c-5.1-0.6-10.2-0.1-11.9,3.9
		c-0.1,0.2-0.1,0.6,0.1,0.8c0.2,0.3,0.4,0.5,0.6,0.8c0.3,0.4,0.8,0.2,0.8-0.3c0-4,12.9-2,15.1-1.4c4.7,1.1,9.2,3.1,13.6,5.2
		c7.5,3.5,15,7.2,22.6,10.6c3.1,4.2,6.6,8.1,10.6,11.4c2.4,2,5.2,3.9,8.2,5.3c3.7,8.8,7.6,17.6,11.9,26.2c2.4,4.9,4.9,9.7,7.5,14.4
		c2.7,5,5.2,10.5,8.8,14.9c0.4,0.4,1.2,0.1,0.9-0.5c-2.1-4.9-5.3-9.5-7.9-14.2c-2.7-4.9-5.3-9.8-7.9-14.7c-4.3-8.4-8.3-16.9-12-25.5
		c3.5,1.6,7.3,2.7,11,3c-0.1,0.1-0.1,0.2-0.1,0.4c3.9,10.9,8.3,21.7,13.2,32.3c4.7,10.1,9.4,20.8,15.7,30c0.4,0.5,1.3,0.1,1-0.5
		c-4.9-10.3-10.9-20.1-15.8-30.4c-4.9-10.3-9.4-20.9-13.4-31.6c0,0,0,0,0,0c5.5,0.3,10.9-1.2,15.1-5.5c1.1,0.5,2.4,0.5,3.2-0.7
		c28.9-42.9,73.7-66.2,119.6-87.2c10.5-4.8,21-9.8,32.1-13.2c5.5-1.7,11.2-3,17-3.4c3-0.2,6.2,0.1,9.3,0.1
		c-4.4,0.4-8.7,0.6-13.1,0.6c-0.7,0-0.6,1.1,0.1,1.1c4.9,0.1,9.9-0.1,14.8-0.7c4.4-0.5,9.3-1.1,13.5-2.8
		C484.6,351,484.5,350.8,484.3,350.7z M478.2,324.8c-2.1,1.5-4.9,1.6-8,0.9c0.4-0.4,0.5-1,0-1.5c-0.3-0.4-0.7-0.7-1.1-1.1
		c1.2,0.7,2.7-1.1,1.4-2c-2.7-2.1-5.4-4.1-8.4-5.8c0.4-0.7,0.7-1.5,1-2.3c1.3,2.4,3.4,4.4,5.5,6.2c2.1,1.8,4.7,4.3,7.6,4.5
		c0.7,0.1,1.2-0.6,0.8-1.3c-1.5-2.3-4.4-3.7-6.6-5.3c-2.2-1.7-4.2-3.9-6.6-5.4c-0.1-0.1-0.2-0.1-0.3-0.1c0.2-0.7,0.3-1.4,0.4-2.2
		c3.5,4.2,8.4,9.1,13.7,10.4C477.9,321.5,478.1,323.2,478.2,324.8z M463.6,321.9c1.2,1.1,2.4,2.2,3.8,3.1c-2.5-0.8-5.1-2.1-7.6-3.4
		c-0.4-0.8-0.8-1.6-1.3-2.3c0.4-0.3,0.9-0.6,1.3-1C460.9,319.6,462.3,320.8,463.6,321.9z M461.1,316.9c0.1-0.2,0.3-0.3,0.4-0.5
		c2,2,4.1,3.9,6.3,5.7c-1-0.7-2.1-1.4-3.1-2.2C463.5,318.9,462.3,317.9,461.1,316.9z M477.1,315.4c0.1,0.7,0.2,1.3,0.2,2
		c-1.8-1.6-4-2.7-5.9-4.1c-2.4-1.7-4.7-3.5-7-5.3c-0.1,0-0.1-0.1-0.2-0.1c0.2-1.5,0.3-2.9,0.4-4.3c0.5,0.8,1.2,1.5,1.9,2.2
		c-0.2-0.2-0.5-0.3-0.7-0.5c-0.7-0.5-1.6,0.4-0.9,1.1C468.1,309.4,472.5,314.1,477.1,315.4z M475.9,307.4c0.1,0.7,0.2,1.4,0.4,2.1
		c-1.4-1-2.9-1.8-4.2-2.8c-2.4-1.7-4.6-3.9-7.3-5c0,0,0,0,0,0c1.8,0.8,3.5,1.6,5.3,2.3C471.9,305.6,473.9,306.8,475.9,307.4z
		 M455.5,311.1c-5.2-6.8-9.6-14.2-12.9-22c1.6,1.1,3.3,2.2,4.9,3.2c-0.4,0.6-0.8,1.3-1.2,1.9c-0.3,0.6,0.6,1.2,1,0.7
		c0.5-0.6,1-1.2,1.4-1.8c0.8,0.5,1.7,1,2.5,1.5c-0.7,1.4-1.4,2.7-2,4.1c-0.2,0.6,0.6,1.2,1,0.7c0.9-1.3,1.7-2.6,2.4-4
		c0.4,0.2,0.8,0.4,1.1,0.6c-1,2.1-1.9,4.3-2.1,6.4c-0.1,0.7,0.8,1,1.1,0.4c0.8-1.7,1.2-3.6,1.9-5.3c0.1-0.3,0.2-0.5,0.3-0.7
		c1.9,1.1,3.8,2.1,5.8,3.1c0,0.2,0,0.5,0,0.7c-0.5,5.5-1.5,13.7-7.7,14.6c0.2-0.1,0.4-0.2,0.5-0.4
		C455.3,314.7,456.8,312.9,455.5,311.1z M446.1,311.1c-0.6-2.4-1.5-4.7-1.9-7.2c-0.1-0.6-0.1-1.3-0.2-1.9c0.8,1.5,1.6,2.9,2.4,4.3
		c0.1,1.2,0.3,2.4,0.4,3.4c0.1,1,0.2,2.3,0.6,3.4c-0.5-0.4-1-0.9-1.5-1.3C446.1,311.6,446.2,311.4,446.1,311.1z M429.7,294.8
		c0.2-4.3-0.5-8.6-0.1-13c0.1-0.8,0.2-1.6,0.3-2.4c0.9,0.8,1.8,1.5,2.7,2.2c-0.2,2-0.4,4-0.6,6c-0.3,3.2-0.6,6.6-0.5,9.9
		c-0.2,0.1-0.3,0.3-0.2,0.5c0.1,0.2,0.2,0.5,0.2,0.7c-0.9-1.2-1.7-2.3-2.6-3.5C429.4,295.3,429.7,295.1,429.7,294.8z M426.2,288.8
		c-1.7-0.5-0.3-9.3-0.1-10.5c0.1-0.7,0.2-1.4,0.3-2.1c0.9,0.8,1.8,1.6,2.7,2.4c-0.2,1.4-0.4,2.8-0.5,4.1c-0.4,3.9-0.8,8.3,0.3,12.1
		c-1.2-1.7-2.3-3.3-3.4-5c0.1,0,0.2,0,0.2,0c0.2,0,0.3-0.1,0.5-0.1C426.7,289.5,426.5,288.9,426.2,288.8z M436,280.5
		c0,0.2-0.1,0.4-0.1,0.6c-0.6-0.4-1.2-0.8-1.8-1.2c0.3-2.1,0.6-4.2,0.9-6.4c0.4,2.2,0.8,4.3,1.1,6c0,0.2,0.1,0.4,0.1,0.6
		C436.2,280.2,436.1,280.3,436,280.5z M433.4,287.3c0.1-1.6,0.3-3.1,0.5-4.7c0.6,0.5,1.2,0.9,1.8,1.4c-0.6,5.8-0.8,11.9,0.3,17.6
		c-0.9-0.9-1.7-1.9-2.6-2.8C433.4,294.9,433.1,291.1,433.4,287.3z M436.7,284.8c0.3,0.2,0.6,0.5,0.9,0.7c0.4,1.5,0.8,2.9,1.3,4.3
		c-1.1,4.8-0.9,10.6,0.4,15.5c-0.5-0.6-1.1-1.1-1.6-1.7C437.3,297.2,436.6,291.1,436.7,284.8z M439.6,297.9
		c-0.1-1.9-0.1-3.8,0.1-5.7c0.9,2.5,1.9,4.9,3,7.3c-0.2,3.7,0.2,7.7,1.7,11c-1-0.9-1.9-1.9-2.9-2.8
		C440.8,304.4,439.9,301.2,439.6,297.9z M447.9,309.1c0-0.2,0-0.4-0.1-0.5c0.5,0.8,1.1,1.7,1.7,2.5c0,0.1,0,0.1,0,0.2
		c0,0.2,0.2,0.3,0.4,0.3c0.3,0.4,0.6,0.9,0.9,1.3c-0.6,0.2-1.3,0.3-1.8,0.7C448.9,312.1,448.1,310.5,447.9,309.1z M465,295.6
		c1.3,1.3,2.8,2.8,4.5,4c-0.6-0.3-1.2-0.5-1.8-0.8c-0.7-0.5-1.3-1-2-1.5c-0.2-0.2-0.5-0.1-0.7,0C465,296.7,465,296.2,465,295.6z
		 M474.3,299.4c-0.8-0.4-1.5-0.8-2.3-1.2c-2.4-1.3-4.6-2.8-6.9-4.4c0,0-0.1,0-0.1,0c0-0.3,0-0.6,0-0.9c2.6,2.1,5.9,4.5,9,5.6
		C474.1,298.8,474.2,299.1,474.3,299.4z M473.3,295.3c-0.8-0.4-1.7-0.8-2.5-1.2c-1.9-1-3.9-2-5.8-2.9c0-0.8-0.1-1.6-0.1-2.4
		c1.5,0.8,3,1.7,4.4,2.6c1.2,0.7,2.3,1.5,3.6,2.1C473,294.1,473.1,294.7,473.3,295.3z M472,290.2c-2.3-1.4-5-2.4-7.3-3.3
		c0-0.5-0.1-1.1-0.1-1.6c0-0.2-0.1-0.5-0.1-0.9c1.2,1,2.6,1.9,3.9,2.8c1.1,0.7,2.2,1.6,3.4,2C471.8,289.6,471.9,289.9,472,290.2z
		 M470.9,286.1c-0.4-0.2-0.8-0.5-1.2-0.7c-1.8-1-3.5-2-5.4-2.8c-0.1-0.8-0.3-1.6-0.5-2.5c1.3,0.6,2.5,1.3,3.7,2
		c1,0.6,1.9,1.3,2.9,1.9C470.5,284.7,470.6,285.4,470.9,286.1z M469.1,280.4C469.1,280.5,469.1,280.5,469.1,280.4
		c-1.8-0.9-4.1-1.5-5.8-1.8c-0.2-0.8-0.4-1.7-0.6-2.7c1.2,0.8,2.3,1.6,3.5,2.4C467.1,279,468.1,279.8,469.1,280.4z M467.7,276.5
		c-1.8-1.1-3.8-1.9-5.6-2.6c-1.8-6.6-4.5-14.7-7.8-20.8C460.2,259.3,464.5,267.8,467.7,276.5z M447.8,249.8c1.6,1.4,2.7,4.5,3.7,6.4
		c2.3,4.4,4.2,9,5.7,13.8c2.6,8.2,3.9,17,3.7,25.6c-1.5-0.7-3-1.5-4.5-2.3c0.2-0.3,0.3-0.7,0.5-1c0.3-0.6-0.7-1.1-1-0.5
		c-0.2,0.3-0.3,0.6-0.5,1c-0.4-0.2-0.8-0.4-1.2-0.6c0.8-1.7,1.6-3.3,2.4-4.9c0.3-0.5-0.5-0.9-0.8-0.4c-0.9,1.5-1.8,3.1-2.8,4.7
		c-0.8-0.4-1.6-0.9-2.4-1.3c1.7-2.6,3.3-5.3,5-7.9c0.2-0.3-0.3-0.7-0.5-0.4c-1.8,2.5-3.8,5-5.7,7.5c-0.5-0.3-1.1-0.6-1.6-0.9
		c2.1-3.4,4-6.9,6.4-10.2c0.3-0.4-0.3-0.9-0.6-0.5c-2.5,3.1-5.1,6.5-7,10c-0.7-0.4-1.4-0.8-2.1-1.3c4.3-3.9,7.7-9,10.5-13.9
		c0.2-0.4-0.4-0.7-0.7-0.3c-3.2,5.1-7,9.2-11,13.5c-0.5-0.3-0.9-0.5-1.4-0.8c4.8-4.1,8.5-9.9,11.5-15.3c0.2-0.4-0.3-0.6-0.6-0.3
		c-3.5,5.6-7.8,10-12.1,14.8c0,0,0,0-0.1,0c-0.3-0.9-0.6-1.9-0.9-2.8c0.1,0,0.1,0,0.2-0.1c5.2-3.8,9.8-9.4,12.9-15
		c0.1-0.1-0.1-0.2-0.2-0.1c-4.1,5.1-8.5,9.6-13.2,14.2c-0.5-1.5-0.9-3.1-1.3-4.7c5-3.4,8.9-8.6,12-13.7c0.2-0.3-0.3-0.6-0.5-0.3
		c-3.5,4.9-7.6,8.7-11.8,12.8c-0.2-1-0.4-2-0.6-3c4.8-2.8,8.3-8,11-12.8c0.2-0.4-0.4-0.7-0.7-0.3c-2.9,4.7-6.8,8-10.5,12
		c-0.4-2.2-0.7-4.4-0.8-6.6c0.1,0.2,0.4,0.3,0.7,0.1c3-2.7,6.2-6.1,8.1-9.7c0-0.1-0.1-0.1-0.1-0.1c-3.1,2.7-5.9,6.2-8.6,9.3
		c0,0,0,0.1-0.1,0.1c-0.1-2.8,0-5.6,0.6-8.2C438,250.5,441.6,244.4,447.8,249.8z M424.5,260.6c4.8-5.3,7-13.7,14.4-14.7
		c-0.4,0.4-0.9,0.9-1.3,1.4c-4.9,5.8-4.1,16.5-2.7,25.1c-0.1,0-0.3,0.1-0.3,0.2c-0.6,2.1-1.1,4.3-1.4,6.5c-0.9-0.6-1.8-1.3-2.6-1.9
		c0.5-2.4,1.2-4.8,1.6-7.2c0-0.3-0.3-0.4-0.4-0.1c-1,2-1.7,4.2-2.2,6.6c-0.9-0.7-1.8-1.3-2.7-2c0.3-1.5,0.7-3,1-4.5
		c0.1-0.3-0.4-0.4-0.5-0.2c-0.5,1.3-0.9,2.7-1.2,4.1c-0.4-0.3-0.8-0.6-1.2-1c-0.7-0.5-1.5,0.4-0.9,1c0.6,0.5,1.1,1,1.7,1.6
		c-0.4,1.8-0.7,3.7-0.9,5.5c-0.2,1.8-0.9,4.8-0.4,7c-0.8-1.3-1.5-2.6-2.2-3.9c0.3-2.5,0.5-5,0.8-7.5c0.4-3.2,1.2-6.3,1.5-9.5
		c0-0.1-0.2-0.2-0.2-0.1c-1.6,4.5-2.9,9.9-3.2,15c-0.5-1-1-2-1.5-3.1c0.2-2.1,0.3-4.1,0.6-6.2c0.5-3,1.5-6,2-9
		c0-0.2-0.2-0.2-0.3-0.1c-1.8,3.6-3,8.4-3.4,12.9c-0.4-0.9-0.8-1.8-1.2-2.7c0.3-2.9,0.7-5.6,1.9-8.5c0,0,0,0,0-0.1
		C421.1,263.9,422.9,262.3,424.5,260.6z M418.2,266c-0.9,1.7-1.6,3.6-1.9,5.5c-0.1-0.4-0.3-0.7-0.4-1.1c0-0.3,0.1-0.5,0.1-0.8
		c0.1-0.7,0.3-1.5,0.2-2.3C416.9,266.9,417.6,266.5,418.2,266z M475.1,345.5c-2.7,2.5-4.8,2.2-8.3,2.2c-4.9,0-9.8,0.4-14.7,1.3
		c-20.3,3.8-39.4,14.1-57.8,23c-19.6,9.5-39.1,19.4-57,31.7c-6.5,4.5-12.9,9.2-19,14.4c3.8-4.1,7.8-8,11.9-11.9
		c14.7-13.6,31.9-23.7,49.7-32.6c0.5-0.3,0.1-1.1-0.4-0.9c-32.5,13.6-62.6,38.1-83,67.3c-2.4,2.9-4.7,5.9-6.8,9.1
		c-4.2,3.1-10.3,1.4-16.2-1.7c-2.1-3.2-4-6.3-5.1-10.2c-0.1-0.5-0.9-0.2-0.8,0.3c0.7,2.8,1.8,5.8,3.4,8.6c-4.7-2.7-8.9-6-11.7-7.8
		c-0.5-0.3-1.4,0.2-0.9,0.8c4.1,4.9,15.2,14.2,24.4,15.7c-13.8,11-34.1-8.6-41.2-19.4c-10.1-15.3-16.4-39.4-6.6-56.2
		c1.7-1.1,3.5-2.2,5.2-3.3c0.5-0.3,0-1.2-0.6-0.8c-1.1,0.7-2.2,1.4-3.3,2.1c12.5-18.4,33.7-27.5,53-36.9c10-4.9,20.1-9.8,30.1-14.8
		c3.5-1.8,6.4-3.4,7.4-7.4c1.5-5.5,1.3-9.9,4.8-14.1c1.7,6.2,4.4,11.7,8.3,17.1c0.4,0.5,1.3,0.6,1.5-0.1c3.1-8.6,1.8-17.9,3.4-26.8
		c2.3-12.9,11.9-21.9,20.3-31.2c12.3-13.7,23.9-30.4,39.1-41.7c-2.9,6.1-3.3,12.8-3.3,19.6c0,6.4-0.8,13.5,2.5,19.2
		c0.4,0.6,1.5,0.1,1.2-0.6c-5.3-11.2-1.7-26.9,0.3-38.7c1.7-1.3,3.5-2.5,5.3-3.6c-0.1,0.2-0.3,0.5-0.4,0.7c-6.2,10-4.7,23.1-2.7,34
		c1,5.5,2.4,11,4.1,16.4c-0.2,0.1-0.4,0.2-0.7,0.3c-1,0.4-0.5,2,0.6,1.6c0.2-0.1,0.4-0.2,0.7-0.3c5.4,16.3,13.9,32,25.6,44.1
		c3,3.1,7.6,6,12.1,6.9c1.9,1.4,3.9,2.6,5.9,3.8c5.4,3.1,16.5,9.2,23,5.8c0,0.2,0,0.5,0,0.7c-0.2,0-0.4,0.1-0.5,0.3
		c-4.9,4.2-15.6,0-20.9-1.9c-2.4-0.9-4.7-1.9-7-3c0.5,0.1,1,0.1,1.4,0.1c0.8,0,1.1-1.2,0.2-1.3c-1.9-0.2-3.8-0.5-5.7-1
		c-2.4-1.4-4.7-2.9-6.9-4.5c-10.3-7.6-18-17.8-23.8-29.2c-0.3-0.6-1.4-0.1-1.1,0.6c3.2,8.6,8.3,16.2,14.7,22.7
		c3.2,4.4,7.4,7.8,12.2,10.1c0.6,0.4,1.3,0.9,1.9,1.3c6.5,4.1,13.7,7.2,21.2,9.1c3.7,0.9,8.4,2.4,12.3,1.3
		c-1.8,7.9-11.7,7.4-18.1,8.3c-5.5,0.7-11,1.6-16.4,2.7c-9.2,1.9-17.9,4.6-26.2,9.1c-0.9,0.5,0,1.9,0.9,1.4
		c13-7.1,27.3-9.5,41.9-10.9c6.7-0.6,21.3-0.4,19.5-10.9c0-0.1-0.1-0.2-0.1-0.3c0.2-0.1,0.5-0.2,0.7-0.4
		C478.6,338.7,478.4,342.5,475.1,345.5z"/>
	<path class="st1" d="M540.4,163.2c0-0.4,0-0.8,0-1.2c0-0.2,0.1-0.4,0-0.6c0-0.2-0.1-0.3-0.1-0.5c0-0.5-0.9-0.7-1.1-0.2
		c-0.1,0.1-0.2,0.2-0.3,0.4c-0.1,0.2-0.1,0.5-0.2,0.7c-0.1,0.5-0.1,0.9-0.1,1.4c0,1-0.1,1.9,0.7,2.6c0.3,0.3,0.9,0.2,1.1-0.2
		C540.7,164.8,540.5,164,540.4,163.2z"/>
	<path class="st1" d="M537,169.7c0.1-1.7-0.2-3.2-0.5-4.8c-0.2-1.1-1.7-1-1.7,0.1c0,1.6-0.1,3.3,0.3,4.9
		C535.4,170.8,536.9,170.7,537,169.7z"/>
	<path class="st1" d="M534.1,172.9c-0.2-1.4-0.9-2.7-1-4.2c-0.1-0.8-1.3-0.9-1.4-0.1c-0.2,1.6-0.2,3.5,0.7,4.8
		C533,174.1,534.3,173.8,534.1,172.9z"/>
	<path class="st1" d="M529,175.3c0.1-0.2-0.2-0.3-0.3-0.2c-2.8,3.5-5.4,7-8.1,10.6c-3-8.5-7.1-16.7-10.1-25.3
		c-0.1-0.4-0.7-0.2-0.6,0.2c2.7,8.7,5.4,18.1,9.8,26.1c0,0,0,0,0.1,0.1c-1.8,2.4-3.6,4.7-5.4,7.1c0,0,0,0,0,0c-1-3.6-2.6-7.2-4-10.6
		c-1.6-4.1-3.1-8.2-4.7-12.3c-0.2-0.4-0.8-0.2-0.6,0.2c1.5,4.3,3,8.7,4.5,13c1.2,3.6,2.3,7.4,3.9,10.8c-0.4,0.5-0.8,1.1-1.3,1.6
		c-1.3-3.2-3-6.4-4.3-9.6c-1.6-3.8-2.9-7.7-4.2-11.7c-0.1-0.3-0.6-0.2-0.5,0.2c2,7.2,4.3,15.6,8.2,22.1c-0.4,0.6-0.9,1.1-1.3,1.7
		c-2.6-6.9-6.6-13.5-9.9-20.1c-0.1-0.2-0.5,0-0.4,0.2c3.1,6.8,5.8,14.2,9.6,20.6c0,0,0.1,0.1,0.1,0.1c-1.5,2-3,4.1-4.3,6.2
		c-0.9-3.2-2.6-6.3-4-9.3c-1.4-2.9-2.8-5.9-4.7-8.6c-0.2-0.2-0.5,0-0.4,0.2c1.4,3.3,3.2,6.5,4.7,9.8c1.3,2.9,2.3,6.1,3.9,8.9
		c-0.8,1.4-1.6,2.7-2.2,4.2c-0.2,0.5,0.5,1.1,0.9,0.6c3-4.5,6-8.8,9.3-13.1c0.3,0,0.5-0.3,0.4-0.6c1.4-1.8,2.8-3.7,4.2-5.5
		C521.6,187.4,526.3,181.9,529,175.3z"/>
	<path class="st1" d="M505.7,83.3c-1-1.6-3.3-1.8-5-1.5c-1.2,0.2-1.1,2,0.2,2c1.4,0,2.6,0.7,3.9,0.9C505.6,84.7,506.1,84,505.7,83.3
		z"/>
	<path class="st1" d="M508.6,86.7c-1.2-0.2-2.4-0.1-3.6-0.6c-0.9-0.3-1.4,0.8-0.6,1.3c1.3,0.8,2.8,1.2,4.3,0.9
		C509.5,88.1,509.4,86.8,508.6,86.7z"/>
	<path class="st1" d="M512.5,89.8c-1.1-0.2-2.2-0.3-3.3-0.4c-1.2-0.1-1.5,1.6-0.3,1.8c1.1,0.2,2.2,0.4,3.3,0.6
		C513.4,91.9,513.8,90,512.5,89.8z"/>
	<path class="st1" d="M406.6,267.7c-0.1-1.3-0.4-2.5-0.7-3.7c-0.2-0.9-1.8-0.6-1.7,0.3c0.2,1.3,0.3,2.5,0.7,3.7
		C405.2,269,406.6,268.7,406.6,267.7z"/>
	<path class="st1" d="M408.9,276.6c0-1-0.5-1.8-0.7-2.7c-0.3-0.9-0.3-1.9-0.3-2.8c0-0.9-1.5-1-1.6-0.1c-0.3,1.9-0.4,5,1.3,6.3
		C408.1,277.8,408.9,277.3,408.9,276.6z"/>
	<path class="st1" d="M411.6,282.2c-0.1-1.3-0.7-2.9-1.9-3.6c-0.3-0.2-0.5,0.2-0.5,0.4c0.1,0.6,0.4,1.1,0.5,1.6
		c0.1,0.6,0.2,1.2,0.2,1.7C410.1,283.4,411.7,283.3,411.6,282.2z"/>
	<path class="st1" d="M402.9,361.9c0.7-1,1.4-2.1,2.1-3.1c0.7-1-0.5-2.2-1.4-1.3c-0.9,0.9-1.7,1.8-2.6,2.6c-0.8,0.8-1.6,1.6-1.5,2.7
		c0.1,0.5,0.5,1,1.1,0.9C401.8,363.7,402.3,362.8,402.9,361.9z"/>
	<path class="st1" d="M394.5,364.7c0.4-0.8,1-1.4,1.7-2c0.9-0.7,0-2.1-1-1.5c-1.8,1.1-3.7,3.1-3.7,5.3c0,1.2,1.5,1.1,2,0.4
		C393.9,366.2,394.1,365.5,394.5,364.7z"/>
	<path class="st1" d="M389.3,366.8c0.8-1.1-0.7-2.5-1.7-1.5c-1.5,1.5-3.5,3.1-4.1,5.2c-0.3,1,1,1.5,1.7,1.1
		C387.1,370.7,388.2,368.4,389.3,366.8z"/>
	<path class="st1" d="M245.2,413.3c-1.5-4.8-3.3-9.3-3.8-14.4c-0.6-5.1-0.2-10,0.3-15c0-0.3-0.4-0.4-0.5-0.2
		c-3.9,9.1-3.4,22.2,1.7,30.8C243.7,415.8,245.6,414.7,245.2,413.3z"/>
	<path class="st1" d="M247.5,420.4c-0.2-1.1-0.4-2.3-0.7-3.4c-0.2-0.9-1.8-0.8-1.9,0.1c-0.1,1.2-0.2,2.3-0.2,3.5
		c0,1.1,0,2.3,0.8,3.3c0.5,0.6,1.3,0.6,1.7-0.1C247.8,422.7,247.7,421.5,247.5,420.4z"/>
	<path class="st1" d="M251.5,426.7c0-1.1,0-2.2-0.3-3.3c-0.2-0.7-1.3-0.7-1.6-0.1c-0.5,1-0.6,2.1-0.8,3.2c-0.2,1.1-0.4,2.3,0.1,3.3
		c0.4,0.9,1.5,0.9,2,0.1C251.6,429,251.5,427.8,251.5,426.7z"/>
	<path class="st1" d="M255.3,433.2c0.1-0.7-0.2-1.3-0.4-2c-0.1-0.6-0.1-1.2,0.1-1.8c0.3-1.1-1.4-1.6-1.9-0.6
		c-0.4,0.8-0.6,1.6-0.6,2.5c0,0.9,0,2,0.8,2.6C254,434.4,255.1,434.1,255.3,433.2z"/>
	<path class="st1" d="M477.3,106.8c0.2-0.6-0.8-0.9-1.1-0.4c-4.8,10.1-9.8,19.3-15.7,28.8c-0.5,0.8,0.8,1.6,1.4,0.9
		C469.2,128.1,474.8,117.3,477.3,106.8z"/>
	<path class="st1" d="M456.1,146.8c0.9-2.1,0.6-4.8,0.3-7c-0.1-0.9-1.4-1-1.6-0.1c-0.5,2.1-1.1,4.9-0.4,7
		C454.7,147.4,455.8,147.5,456.1,146.8z"/>
	<path class="st1" d="M450.2,152.2c0.4-1,0.8-2.1,1.2-3.1c0.4-1.1-1.2-2-1.7-0.8c-0.5,1-1,2-1.4,3c-0.4,0.9-1,1.8-0.8,2.8
		c0.1,0.6,0.8,1.1,1.4,0.7C449.6,154.1,449.8,153.2,450.2,152.2z"/>
	<path class="st1" d="M446,157.3c0.3-1.3-1.7-2-2.2-0.7c-0.5,1.3-1,2.6-0.9,4c0.1,0.8,1.2,1.2,1.7,0.6
		C445.4,160,445.7,158.6,446,157.3z"/>
	<path class="st1" d="M401,153.5c-15.4-7.2-33.8-6.6-49.9-2c-15.5,4.4-32.9,14.2-41,28.7c-0.4,0.8,0.7,1.4,1.3,0.8
		c12.3-12,23.8-21.9,40.6-27.1c16.3-5,32.6-4,48.9,0C401.1,153.9,401.2,153.6,401,153.5z"/>
	<path class="st1" d="M300.4,197c0-1.3,0.5-2.5,1.4-3.5c0.8-1-0.4-2.3-1.5-1.7c-2,1.2-2.7,3.5-2.2,5.6c0.1,0.6,0.9,0.9,1.4,0.8
		C300,198.1,300.3,197.6,300.4,197z"/>
	<path class="st1" d="M292.6,209.9c0.2-2.3,0.4-4.5,1.8-6.4c0.6-0.9-0.5-1.9-1.3-1.1c-1.9,2-3.2,4.9-2.2,7.7
		C291.2,210.8,292.6,210.8,292.6,209.9z"/>
	<path class="st1" d="M288.6,214.5c-1.1-0.8-2.4,0.8-1.4,1.6C288.3,216.8,289.7,215.2,288.6,214.5z"/>
	<path class="st1" d="M377.8,238.2c-17.5-15.9-29.9-34.7-35.7-57.8c-0.1-0.5-0.9-0.3-0.8,0.2c4.1,22.9,16.3,45.2,34.8,59.6
		C377.4,241.2,379,239.4,377.8,238.2z"/>
	<path class="st1" d="M530,326.5c-3.2,2.3-6.4,4.5-9.7,6.6c1.1-1.9,2.2-3.9,3.3-5.9c3.8-2.8,7.5-5.7,11-8.7c0.4-0.3,0-1-0.5-0.7
		c-3,2.4-6.1,4.7-9.2,6.9c0.9-1.7,1.8-3.4,2.6-5.1c3.8-2.5,7.6-5.2,11.2-7.9c0.5-0.3,0-1.1-0.5-0.7c-3.2,2.3-6.5,4.5-9.8,6.6
		c0.8-1.8,1.7-3.7,2.4-5.6c2.4-1.6,4.8-3.3,7.1-5c0.5-0.4,0-1.1-0.5-0.8c-2,1.4-3.9,2.8-5.9,4.1c0.7-2,1.4-3.9,2-5.9
		c2.9-2,5.8-4,8.6-6.2c0.4-0.3,0-1-0.5-0.7c-2.5,1.8-5.1,3.6-7.7,5.3c0.7-2.5,1.2-5.1,1.5-7.7c1.7-1.4,3.4-2.9,5-4.4
		c0.2-0.1-0.1-0.4-0.3-0.3c-1.5,1.3-3.1,2.5-4.7,3.8c0.3-2.6,0.3-5.1,0.1-7.7c1.6-1.4,3.1-2.8,4.6-4.3c0.2-0.2-0.1-0.5-0.4-0.3
		c-1.4,1.3-2.9,2.5-4.3,3.7c-0.2-2.1-0.5-4.1-1.1-6.2c1.3-1.4,2.6-2.8,3.9-4.1c0.4-0.4-0.3-0.9-0.6-0.5c-1.2,1.2-2.4,2.5-3.6,3.7
		c-0.3-0.9-0.6-1.9-0.9-2.8c1.7-1.5,3.4-3.1,4.8-4.8c0.2-0.2-0.1-0.6-0.4-0.4c-1.7,1.3-3.3,2.6-5,3.9c-0.4-0.9-0.7-1.8-1.2-2.6
		c1.4-1.4,2.7-2.9,3.9-4.5c0.3-0.4-0.2-0.8-0.5-0.5c-1.3,1.3-2.6,2.6-3.9,3.8c-0.3-0.5-0.5-0.9-0.8-1.4c2.1-1.8,4.2-3.6,6.3-5.5
		c0.1-0.1-0.1-0.4-0.2-0.3c-2.2,1.9-4.4,3.7-6.7,5.5c-0.1,0-0.1,0.1-0.2,0.1c-7.5,5.8-15.4,10.9-23.5,15.9c-0.6,0.4,0,1.3,0.6,0.9
		c8.1-4.5,15.8-10.1,23-16.1c0.2,0.5,0.4,1.1,0.7,1.6c-3.2,3.2-6.4,6.3-10,9.1c-5,4-10.3,7.3-15.5,11c-0.6,0.4,0,1.2,0.6,0.9
		c6-3.1,11.4-7.3,16.6-11.7c3-2.5,6-5.2,8.8-8c0.3,0.9,0.6,1.8,0.9,2.7c-3.8,3.2-7.6,6.5-11.6,9.4c-6.2,4.5-12.7,8.5-19.2,12.4
		c-0.7,0.4,0,1.3,0.7,1c6.9-3.7,13.4-8.1,19.7-12.9c3.6-2.7,7.4-5.5,10.9-8.5c0.3,1,0.5,2.1,0.6,3.1c-4.3,4.1-9,7.9-14,11.2
		c-7,4.8-14.6,8.2-22.2,11.9c-0.6,0.3-0.3,1.1,0.3,0.9c13.4-4,25.9-12.9,36-22.9c0.3,2.1,0.4,4.3,0.4,6.4
		c-10.7,8.7-22.3,16.1-34.3,22.9c0.5-1.5,0.8-3,1.2-4.5c0.3-1.1-1.5-1.7-2-0.6c-1,2.3-2,4.6-2.6,7c-0.8,0.4-1.6,0.9-2.4,1.3
		c-0.5,0.3-0.1,1.1,0.4,0.9c0.6-0.2,1.1-0.5,1.7-0.8c0.2,1,1.7,1.3,2.2,0.3c0.3-0.5,0.5-1.1,0.7-1.7c2.4-1.2,4.8-2.4,7.2-3.8
		c-0.9,0.9-1.7,1.9-2.4,3c-0.6,1.1-1.4,2.7-0.9,3.9c-4.6,2.4-9.3,4.6-14,6.7c-0.7,0.3-0.4,1.5,0.4,1.2c7.2-2.8,14.2-6.2,21-10.1
		c-0.2,0.4-0.3,0.9-0.5,1.3c-0.4,1.3,1.8,2,2.4,0.8c0.6-1.3,1-2.6,1.4-4c6.8-4.1,13.3-8.7,19.4-13.7c-0.5,2.5-1.2,5-1.9,7.4
		c-4.7,3-9.5,5.9-14.4,8.5c-9.3,5.1-19,9.1-28.6,13.5c-0.6,0.3-0.3,1.2,0.3,1c9.7-3.1,19.1-7.9,28-12.8c4.8-2.7,9.5-5.5,14.1-8.5
		c-0.7,2-1.5,3.9-2.3,5.9c-12.5,7.7-25.9,13.6-39.9,18.4c-0.7,0.3-0.3,1.3,0.4,1.1c13.6-3.8,26.7-10,38.7-17.6
		c-0.8,1.9-1.7,3.7-2.6,5.6c-3.5,2.1-7.1,4.2-10.7,6.1c-9.1,4.8-18.5,8.4-27.9,12.4c-0.6,0.3-0.3,1.2,0.4,1
		c9.5-2.6,18.7-7,27.3-11.7c3.3-1.8,6.5-3.7,9.7-5.7c-1,1.9-2,3.7-3,5.5c-11,7-22.8,12.5-35.1,17.5c-0.8,0.3-0.4,1.5,0.4,1.3
		c11.6-3.5,22.8-9.1,33.1-16c-0.9,1.6-1.8,3.2-2.7,4.7c-0.1,0.2-0.1,0.3-0.2,0.5c-10.6,6.2-21.6,11.4-33,16.2
		c-0.8,0.3-0.4,1.5,0.4,1.2c11.7-3.7,22.9-9.5,33.3-16.1c0.6,0.3,1.5,0.2,2-0.5c0.2-0.4,0.5-0.8,0.7-1.2c4-2.7,8-5.5,11.7-8.4
		C531,326.9,530.5,326.1,530,326.5z M512.6,309.9c-0.5-0.3-1.3-0.3-1.6,0.4c-0.1,0.3-0.3,0.5-0.4,0.8c-1.9,1.1-3.8,2.1-5.8,3.2
		c0.1-0.4,0.2-0.8,0.4-1.2c0.6-1.5,1.4-2.7,2.4-3.9c0.5-0.5,0.1-1.2-0.4-1.4c9.3-5.4,18-11.9,26.1-19c-0.1,2.7-0.4,5.3-0.9,8
		C526.1,301.5,519.4,305.9,512.6,309.9z"/>
	<path class="st1" d="M502.2,365.6c0.2-0.3-0.2-0.7-0.5-0.4c-32,39.9-63.4,80.2-96.3,119.5c-0.6,0.7,0.5,1.7,1.1,1
		C440.7,447.8,473.6,407.9,502.2,365.6z"/>
	<path class="st1" d="M399.9,491.5c0.2-1.1-1.3-1.5-1.9-0.6c-0.8,1.4-1.5,3-1.8,4.6c-0.2,1.3,1.5,1.8,2.1,0.7
		C399.1,494.7,399.6,493.1,399.9,491.5z"/>
	<path class="st1" d="M393.6,503.1c0.1-0.7,0.1-1.5,0-2.2c-0.1-0.7-0.3-1.3-0.4-1.9c-0.2-0.9-1.4-1.1-1.7-0.1
		c-0.2,0.7-0.4,1.3-0.5,1.9c-0.1,0.7-0.2,1.4-0.1,2.1C391.1,504.4,393.3,504.6,393.6,503.1z"/>
	<path class="st1" d="M385.5,506.2c0.2-1.1-1.2-1.4-1.7-0.6c-0.9,1.4-2,3.1-1.7,4.8c0.1,0.6,0.8,1.1,1.3,0.7
		C384.9,510,385.3,507.9,385.5,506.2z"/>
	<path class="st1" d="M378.5,512.7c-6.5,6.7-14.3,13.2-19.3,21.2c-0.5,0.9,0.7,1.9,1.5,1.3c7.3-5.9,12.9-14.3,18.8-21.6
		C380.1,512.9,379.1,512.1,378.5,512.7z"/>
	<path class="st1" d="M223.9,331.2c0.2-0.3-0.3-0.6-0.5-0.3c-13,19-26.3,38.5-34.6,60.2c-0.7,1.7,1.7,2.9,2.6,1.3
		C202.4,371.9,211.6,350.7,223.9,331.2z"/>
	<path class="st1" d="M312.5,527.8c-0.1-1.6-0.6-2.8-1.9-3.8c-0.1-0.1-0.2-0.1-0.3-0.1c-4.9-8.4-9.7-16.8-13.9-25.6
		c-2.3-4.8-4.4-9.6-6.4-14.5c-1.5-3.6-2.6-7.4-4.1-11c1.7,0.4,3.4,0.8,5.1,1c1.4,0.2,1.6-1.7,0.4-2.1c-1.9-0.6-3.9-1-5.9-1.4
		c-0.2,0-0.4,0-0.6,0.1c-0.1-0.3-0.3-0.6-0.4-0.9c-0.1-0.2-0.4-0.1-0.4,0.1c0.1,0.4,0.2,0.8,0.3,1.3c-0.2,0.5-0.1,1.1,0.4,1.4
		c1.1,4.2,3,8.3,4.6,12.2c2,5.1,4.2,10.1,6.5,15.1c4.5,9.8,9.5,19.4,15.4,28.5C311.6,528.9,312.5,528.5,312.5,527.8z"/>
	<path class="st1" d="M298.3,477.5c-2-0.2-3.9,0-5.9,0.3c-1,0.2-1.3,1.9-0.1,2c2,0.2,3.9,0.3,5.9,0
		C299.4,479.6,299.7,477.7,298.3,477.5z"/>
	<path class="st1" d="M322.6,530.2c-4.5-8-9.9-15.5-14.3-23.7c-3.5-6.5-6.7-13.2-9.6-20c1.3,0.2,2.6,0.3,4,0.3c1,0,0.9-1.4,0.1-1.7
		c-1.6-0.4-3.2-0.8-4.9-1c0,0-0.1,0-0.1,0c-0.5-1.2-1-2.5-1.5-3.7c-0.2-0.5-0.9-0.2-0.7,0.3c0.5,1.2,1,2.5,1.4,3.7
		c-0.6,0.6-0.5,1.8,0.5,1.9c0.1,0,0.2,0,0.2,0c2.7,6.7,5.6,13.3,9,19.8c4.3,8.4,8.9,17.4,15,24.6
		C322.1,531.4,322.9,530.9,322.6,530.2z"/>
	<path class="st1" d="M551.5,64.8c-3.5-0.1-7-0.2-10.5-0.7c-0.3,0-0.4,0.4-0.1,0.5c3.5,0.6,7,0.9,10.6,0.7
		C551.9,65.3,551.9,64.8,551.5,64.8z"/>
	<path class="st1" d="M555.5,67c-5.1-0.2-10.3,0.1-15.4,0.2c-0.4,0-0.3,0.6,0,0.6c5.1,0,10.3,0.2,15.4,0C556,67.7,555.9,67,555.5,67
		z"/>
	<path class="st1" d="M526.3,19.7c-1.2-0.7-2.2-1.5-2.7-2.9c-0.1-0.2-0.3-0.1-0.2,0.1c0.4,1.4,1.3,2.8,2.7,3.3
		C526.4,20.3,526.6,19.9,526.3,19.7z"/>
	<path class="st1" d="M534.5,26.8c-0.7-3.2-2.7-7.2-5.4-9.1c-0.1-0.1-0.3,0-0.2,0.2c0.8,1.4,1.9,2.7,2.7,4.1c0.9,1.6,1.5,3.3,2.1,5
		C533.9,27.3,534.6,27.2,534.5,26.8z"/>
	<path class="st1" d="M537.8,30.9c0.1-4.6-2.5-9.3-5.5-12.6c-0.2-0.2-0.6,0.1-0.4,0.4c3,3.8,4.2,7.7,5.3,12.3
		C537.3,31.3,537.8,31.2,537.8,30.9z"/>
	<path class="st1" d="M542,31.9c-0.4-5-3.5-9.8-6.7-13.5c-0.2-0.2-0.6,0.1-0.4,0.3c3.3,4,4.8,8.4,6.4,13.3
		C541.4,32.4,542,32.3,542,31.9z"/>
	<path class="st1" d="M546.3,32.9c-1-4.9-3.7-9.7-6.6-13.7c-0.2-0.3-0.7,0-0.5,0.3c2.8,4.3,4.3,8.9,6.3,13.6
		C545.6,33.5,546.3,33.4,546.3,32.9z"/>
	<path class="st1" d="M550.7,34.3c-0.9-4.5-3.4-8.9-5.8-12.8c-0.2-0.3-0.6,0-0.4,0.3c2.2,4.1,3.6,8.5,5.5,12.7
		C550.2,34.8,550.8,34.7,550.7,34.3z"/>
	<path class="st1" d="M555.3,37.4c-0.4-2.4-1.7-4.7-2.6-7c-1.1-2.6-2.1-5.2-3.2-7.8c-0.1-0.3-0.6-0.1-0.5,0.2c1,2.6,1.9,5.3,2.9,7.9
		c0.8,2.3,1.5,4.9,2.8,6.9C554.9,37.8,555.4,37.7,555.3,37.4z"/>
	<path class="st1" d="M559.5,39.8c-0.7-2.1-2.1-4-3-6c-1-2-1.8-4.1-2.5-6.3c-0.1-0.3-0.6-0.1-0.5,0.2c0.7,2.4,1.5,4.8,2.6,7.1
		c0.8,1.8,1.6,3.9,2.9,5.4C559.3,40.4,559.6,40.1,559.5,39.8z"/>
	<path class="st1" d="M562.8,40.3c-0.4-1.5-1.5-2.8-2.1-4.2c-0.6-1.5-0.9-3-1.4-4.5c-0.1-0.3-0.6-0.2-0.6,0.1c0,1.7,0.6,3.4,1.3,4.9
		c0.5,1.3,1.2,3.2,2.4,4C562.5,40.9,562.9,40.7,562.8,40.3z"/>
	<path class="st1" d="M564.3,38.3l-0.1-0.7c-0.1-0.4-0.7-0.3-0.6,0l0.1,0.7C563.8,38.8,564.4,38.7,564.3,38.3z"/>
	<path class="st1" d="M592.8,68.3c-0.7-2.3-2.1-4.4-3.7-6.3c-0.3-0.4-0.9,0-0.6,0.4c1.5,1.9,2.5,3.9,3.5,6.1
		C592.2,69.1,593,68.9,592.8,68.3z"/>
	<path class="st1" d="M597,70.5c-0.1-2.8-2.5-5.7-4.3-7.6c-0.3-0.3-0.7,0.2-0.4,0.5c1,1.1,1.9,2.3,2.6,3.7c0.6,1.2,0.9,2.5,1.6,3.7
		C596.6,71,597,70.8,597,70.5z"/>
	<path class="st1" d="M600.8,72.7c-0.6-3.6-2.9-8.5-5.5-11c-0.1-0.1-0.3,0-0.2,0.1c0.8,1.8,2.1,3.5,2.9,5.3c0.9,1.9,1.4,3.8,2.1,5.7
		C600.3,73.2,600.9,73.2,600.8,72.7z"/>
	<path class="st1" d="M604.9,75.6c-0.5-5.1-3.6-10.4-6.7-14.4c-0.2-0.3-0.6,0-0.4,0.3c1.6,2.3,3,4.6,4.1,7.2c1,2.3,1.5,4.7,2.4,7.1
		C604.4,76.1,604.9,76,604.9,75.6z"/>
	<path class="st1" d="M607.6,76.9c-0.8-4.8-3.3-9.7-5.9-13.8c-0.1-0.2-0.4,0-0.3,0.2c2.5,4.5,3.9,8.9,5.6,13.7
		C607.1,77.4,607.7,77.3,607.6,76.9z"/>
	<path class="st1" d="M610.6,79c0.5-5.2-2.8-10.8-6-14.6c-0.3-0.3-0.8,0-0.6,0.4c1.7,2.2,3.1,4.5,4.1,7.1c0.9,2.4,1.2,4.8,1.9,7.2
		C610,79.3,610.6,79.3,610.6,79z"/>
	<path class="st1" d="M613.6,80.3c0.3-5.1-3.2-10.8-6.3-14.6c-0.3-0.4-1,0-0.7,0.4c1.6,2.2,3,4.5,4,7.1c0.9,2.3,1.2,4.8,2.1,7.2
		C612.9,80.7,613.5,80.8,613.6,80.3z"/>
	<path class="st1" d="M522.9,49.6c-0.2-0.9-0.6-1.7-0.9-2.5c-0.3-0.9-0.5-1.9-0.6-2.8c-0.1-0.5-0.9-0.5-0.8,0.1
		c0.2,1.9,0.6,4.1,1.9,5.6C522.5,50.2,523,50,522.9,49.6z"/>
	<path class="st1" d="M521.6,52.4c-0.2-0.9-0.6-1.8-0.9-2.7c-0.3-0.8-0.5-1.7-1-2.4c-0.2-0.2-0.6-0.1-0.5,0.2
		c0.1,0.8,0.5,1.7,0.8,2.5c0.3,0.9,0.6,1.8,1,2.7C521.1,53,521.7,52.8,521.6,52.4z"/>
	<path class="st1" d="M521,57.5c-0.8-1.2-1.7-2.2-2.2-3.5c-0.5-1.2-0.4-2.6-0.8-3.8c0-0.1-0.2-0.1-0.2,0c-0.4,1.2,0,2.8,0.4,4
		c0.5,1.3,1.2,2.9,2.3,3.7C520.8,58.1,521.2,57.8,521,57.5z"/>
	<path class="st1" d="M520.3,60.3c-1.3-2.4-2.8-4.5-3.7-7c-0.1-0.4-0.7-0.2-0.6,0.2c0.7,2.6,1.8,5.5,3.7,7.4
		C520,61.3,520.5,60.7,520.3,60.3z"/>
	<path class="st1" d="M520.6,63.4c-0.4-1.1-1.4-2-2.1-3c-0.9-1.2-1.6-2.5-2.2-3.9c-0.2-0.4-0.9-0.2-0.7,0.2c0.5,1.4,1.2,2.7,1.9,4
		c0.7,1.1,1.4,2.5,2.6,3C520.4,63.9,520.6,63.7,520.6,63.4z"/>
	<path class="st1" d="M519.5,67.5c-0.3-1.3-1.5-2.4-2.2-3.6c-0.8-1.5-1.4-3.1-1.8-4.7c-0.1-0.3-0.6-0.2-0.5,0.1
		c0.3,1.7,0.8,3.4,1.6,5c0.6,1.3,1.2,2.9,2.5,3.6C519.3,68.1,519.6,67.8,519.5,67.5z"/>
	<path class="st1" d="M519.2,70.6c-0.8-1.4-2-2.6-2.9-4c-0.9-1.6-1.3-3.3-2.1-5c-0.1-0.2-0.3-0.1-0.3,0.1c-0.1,3,2.3,7.9,4.8,9.5
		C519.1,71.5,519.4,70.9,519.2,70.6z"/>
	<path class="st1" d="M518.6,75.9c-0.5-1.9-2-3.7-2.8-5.5c-0.9-1.9-1.6-3.8-2.2-5.8c-0.1-0.4-0.6-0.2-0.6,0.2
		c0.5,2.3,1.2,4.5,2.1,6.6c0.7,1.7,1.5,3.7,2.9,4.9C518.3,76.6,518.7,76.3,518.6,75.9z"/>
	<path class="st1" d="M495.4,97c-0.8-3.3-1.9-6.6-2.7-9.9c-0.1-0.3-0.5-0.2-0.4,0.1c0.4,3.4,1.1,7,2.5,10.1
		C494.9,97.7,495.5,97.5,495.4,97z"/>
	<path class="st1" d="M498.7,103c-0.6-4.5-2.3-9.1-3.5-13.5c-0.1-0.4-0.8-0.2-0.7,0.2c1,4.4,1.7,9.2,3.3,13.4
		C498.1,103.6,498.8,103.5,498.7,103z"/>
	<path class="st1" d="M544.8,153.2c-1.8-5.8-4.6-11.4-7.2-16.9c-2.4-5.2-5-10.3-7.7-15.4c-0.2-0.4-0.8,0-0.7,0.3
		c0.8,1.6,1.5,3.1,2.3,4.7c-0.9-1.6-1.8-3.3-2.6-4.9c-1.2-2.5-2.2-5.1-3.5-7.5c-0.1-0.2-0.3,0-0.3,0.2c0.6,2.8,1.9,5.6,3.1,8.2
		c1.1,2.4,2.1,4.9,3.7,7c0.3,0.4,1.1,0.1,0.9-0.4c-0.1-0.2-0.2-0.5-0.3-0.7c1.5,3.2,3,6.3,4.4,9.5c2.4,5.4,4.3,11,6.9,16.3
		C544,154.2,545.1,153.9,544.8,153.2z"/>
	<path class="st1" d="M547.9,150.8c-1.4-5.3-4.6-10.5-6.9-15.5c-2.4-5.1-4.8-10.2-7.2-15.4c-0.2-0.5-1-0.2-0.8,0.3
		c1.3,2.9,2.6,5.9,3.9,8.8c-0.6-1-1.3-2-1.8-3c-1.3-2.4-2.4-4.9-3.4-7.5c-0.2-0.4-0.8-0.2-0.6,0.2c1.5,4.4,3.4,10,6.6,13.5
		c0.2,0.2,0.5,0.1,0.6-0.1c0.6,1.4,1.2,2.8,1.8,4.1c2.2,4.9,3.9,10.5,6.9,14.9C547.4,151.6,548,151.3,547.9,150.8z"/>
	<path class="st1" d="M542.7,131.6c-0.7-1.6-2-3-3.1-4.4c-1.2-1.6-2.3-3.3-3.3-5c-0.3-0.5-0.9,0-0.7,0.5c0.9,1.8,1.9,3.5,3,5.2
		c1,1.5,1.9,3.2,3.3,4.2C542.3,132.4,542.9,132.1,542.7,131.6z"/>
	<path class="st1" d="M555.4,280.1c-2.5-14.4-8.6-27.9-16.1-40.3c-7.4-12.1-16.7-24-16.9-38.7c1.4-2,2.8-4,4.2-6
		c4.5-6.5,8.8-13.1,13.1-19.8c8.5-13.4,18.2-29.9,31.7-38.7c0.2-0.1,0.4-0.3,0.5-0.5c3.5,0.4,7,0.2,10.3-1.2
		c4.8-2.1,7.6-6.9,7.3-12.1c-0.3-6.1-4.5-10.7-9-14.4c0.9-0.5,1.8-1.1,2.6-1.6c6.1-4.1,12-7.3,18.9-9.9c8.3-3.2,19.3-6.4,19.6-17.1
		c0.3-10.2-10.4-18-17.4-23.8c-17-14.3-33.9-27.9-53.2-37.6c-4.6-3.6-10.2-5.6-15.8-7c-1.3-0.3-3-0.8-4.7-1.3
		c-1.6-0.5-3.1-1-4.7-1.4c-0.3-0.6-0.9-1.1-1.8-1.2c-5.5-0.9-10.5,1.8-12.8,6.9c-3.1,7.1,0,14.3,0.6,21.4c0.5,6.9-3,12.8-5.3,19
		c-4.4-3.8-10.8-6.3-16.2-5.6c-8,1.1-11.8,8.9-11.5,16.4c0.2,3.8,1.4,7,3.3,10c-0.2,0.2-0.3,0.5-0.3,0.8c-1.1,16-12,30.9-21.2,43.2
		c-8,10.7-16.9,20.7-26,30.5c-12.5-3-25.4-5.3-38-8c-12.4-2.7-25.2-4.6-37.9-3.1c-23.5,2.7-44.8,16.2-61.2,32.6
		c-21,21-34.6,47.9-47.8,74.1c-15,29.7-31.7,58.4-48.2,87.2c-16,27.9-36,59-37.9,91.9c-0.1,1.3,0.7,2.3,1.7,2.7
		c1.9,7.5,5.8,14.9,9.3,21.3c5.2,9.6,11.7,18.4,18.9,26.6c14.7,16.8,32.2,31,50.9,43.1c20,12.9,41.8,23,64.5,30.2
		c11.4,3.6,23.1,6.4,34.9,8.4c8.1,1.3,16.9,2.2,23.1-3.8c5.8-3.5,10.5-9.2,15.2-14c11.4-11.8,22.3-24.1,33-36.6
		c20.8-24.3,40.7-49.5,61.6-73.8C512.3,387.1,566.1,341.1,555.4,280.1z M585.8,99c-0.4,0.3-0.8,0.6-1.2,1c-3-0.1-6.1-0.6-9.1-1
		c-2.3-0.3-4.5-0.6-6.8-0.8c-0.3-0.5-0.5-1-0.8-1.5c1.2,0,2.4,0.1,3.6,0.1c-0.5,0.3-0.6,1.2,0.2,1.4c4.1,0.8,8.6,1.3,12.6-0.1
		c0.7-0.2,0.7-1,0.3-1.4c1.7-0.1,3.3-0.2,4.9-0.4C588.2,97,587,98,585.8,99z M574.3,106.8c-0.3,0.2-0.7,0.3-1,0.4
		c0,0-0.1-0.1-0.1-0.1c-2.4-0.9-4.9-1.4-7.6-1.7c1.5,0.1,3,0.2,4.5,0.4c1.4,0.1,3,0.5,4-0.6c0,0,0.1-0.1,0.1-0.2
		c1.1,0.1,2.1,0.1,3.2,0.1c-0.3,0.2-0.5,0.3-0.8,0.5C575.6,105.1,574.5,105.9,574.3,106.8z M567.2,107.3c1.5,0.3,2.9,0.5,4.4,0.6
		c-2,0.7-4.1,1.2-6.3,1.4c0.2-0.3,0.1-0.7-0.2-0.9l0.7,0.1C566.6,108.7,567.1,108,567.2,107.3z M560,106.2c0.2,0,0.3,0,0.5,0.1
		c-0.3,0.7-0.1,1.6,0.9,1.7c1.1,0.1,2.2,0.3,3.3,0.4c-3.1,0.2-6.1,0.1-9.1-0.1c-0.4-0.1-0.8-0.2-1.2-0.3c-2.3-0.7-4.5-1.7-6.6-2.8
		C551.8,105.4,555.9,105.7,560,106.2z M546.2,104.4c-1.7-1-3.4-2-5-3.2c6.2,1.4,12.7,1.9,19.1,2.5c1.2,0.1,2.5,0.3,3.7,0.4
		c-0.1,0.5,0.2,1.1,0.7,1.2c-1.9-0.2-3.9-0.4-5.7-0.5C554.8,104.4,550.5,104.3,546.2,104.4z M573.7,103.6c-0.9-0.7-2.2-0.5-3.4-0.5
		c-0.7,0-1.3,0-2,0c-3-0.3-6-0.5-9-0.8c-6.2-0.6-12.5-1.6-18.8-1.8c-0.1,0-0.1,0-0.2,0.1c-1.2-0.8-2.3-1.7-3.5-2.6
		c4.6,0.9,9.3,1.5,14,2c0.2,0.3,0.6,0.3,0.9,0.1c1.8,0.2,3.5,0.4,5.3,0.6c0,0,0,0,0.1,0c1.6,0.2,3.1,0.3,4.7,0.5
		c3,0.4,6.1,0.8,9.3,1c1.9,0.3,3.9,0.3,5.8,0.2c1.7,0,3.5-0.1,5.2-0.4c-1,0.8-2.1,1.5-3.1,2.2C577.1,104,575.4,103.8,573.7,103.6z
		 M580.5,87.8c-2.5,0.1-5,0.2-7.5,0.2c-0.3-0.5-0.6-1-0.9-1.5c5.1,0.3,10.2,0.5,15.2,0.3c0.4,0.2,0.8,0.4,1.3,0.6
		c-2,0.1-4.1,0.2-6.1,0.3c-0.4-0.2-0.9-0.3-1.4-0.4C580.6,87.2,580.4,87.5,580.5,87.8z M543.8,94.3c0.1,0.3,0.3,0.6,0.4,0.9
		c-0.6-0.1-1.3-0.1-1.9-0.2c-0.2-0.4-0.4-0.7-0.6-1.1C542.5,94,543.1,94.2,543.8,94.3z M541.1,92.7c-0.3-0.5-0.7-1.1-1-1.6
		c-0.1-0.2-0.2-0.4-0.3-0.6c0.8,0.1,1.5,0.3,2.3,0.4c0.2,0.3,0.4,0.6,0.5,0.9c0.2,0.4,0.4,0.8,0.6,1.3
		C542.5,93,541.8,92.8,541.1,92.7z M545,93.4c-0.4-0.6-0.7-1.2-1.1-1.9c-0.1-0.1-0.2-0.3-0.2-0.4c0.8,0.1,1.7,0.2,2.5,0.4
		c0.4,0.7,0.8,1.5,1.1,2.3C546.6,93.7,545.8,93.5,545,93.4z M556.4,82.6c0.3,0.5,0.6,1,1,1.5c-1-0.1-2-0.2-3-0.3
		c-0.3-0.5-0.6-0.9-0.9-1.4C554.5,82.5,555.5,82.5,556.4,82.6z M552.8,81.1c-0.4-0.6-0.7-1.2-1.1-1.9c0.7,0,1.4,0,2.1,0
		c0.2,0,0.4,0,0.6,0c0.4,0.7,0.9,1.4,1.3,2.1C554.7,81.3,553.7,81.2,552.8,81.1z M563.3,85.9c0.5,0.7,1,1.4,1.6,2.1
		c-1,0-1.9-0.1-2.9-0.1c-0.5-0.7-1.1-1.5-1.6-2.2c0.6,0,1.2,0.1,1.8,0.1C562.6,85.9,563,85.9,563.3,85.9z M564.4,82.9
		c0.5,0,0.9,0,1.4,0c0.5,0.6,0.9,1.1,1.4,1.7c-0.6,0-1.1,0-1.7-0.1C565.1,84.1,564.8,83.5,564.4,82.9z M558.7,95.2
		c-1.1-0.1-2.2-0.2-3.3-0.3c-0.5-0.8-0.9-1.6-1.4-2.5c1.2,0.1,2.5,0.2,3.7,0.3c0.6,0.9,1.2,1.7,1.8,2.5
		C559.1,95.2,558.9,95.2,558.7,95.2z M560.1,96.2c0.2,0.3,0.5,0.6,0.7,1c-0.1,0-0.3,0-0.4,0c-1.4-0.2-2.8-0.3-4.1-0.5
		c-0.1-0.3-0.3-0.5-0.4-0.8C557.3,96,558.7,96.1,560.1,96.2z M553,94.6c-1.1-0.1-2.2-0.3-3.3-0.4c-0.4-0.8-0.8-1.6-1.3-2.3
		c1,0.1,2.1,0.2,3.1,0.4C552,93,552.5,93.8,553,94.6z M551.6,88.6c1.2,0.1,2.4,0.2,3.6,0.3c0.5,0.7,0.9,1.4,1.4,2.2
		c-1.2-0.1-2.4-0.2-3.6-0.3C552.5,90.1,552.1,89.3,551.6,88.6z M557.7,89.1c1,0.1,1.9,0.1,2.9,0.2c0.4,0.7,0.9,1.4,1.4,2.2
		c-0.9-0.1-1.9-0.1-2.8-0.2C558.7,90.6,558.2,89.8,557.7,89.1z M562.3,84.5c-0.3,0-0.7,0-1-0.1c-0.6,0-1.2-0.1-1.8-0.1
		c-0.3-0.5-0.7-1-1-1.6c0.9,0,1.8,0.1,2.7,0.1C561.5,83.4,561.9,83.9,562.3,84.5z M561.6,79.1c0.4,0,0.8,0,1.2-0.1
		c0.6,0.9,1.3,1.8,1.9,2.6c-0.4,0-0.8,0-1.3,0C562.8,80.8,562.2,79.9,561.6,79.1z M558.3,85.6c0.5,0.7,0.9,1.5,1.4,2.2
		c-1,0-2-0.1-2.9-0.2c0-0.1-0.1-0.1-0.1-0.2c-0.4-0.7-0.9-1.4-1.3-2.1C556.3,85.5,557.3,85.5,558.3,85.6z M552.9,85.2
		c0.4,0.8,0.9,1.5,1.4,2.3c-1.2-0.1-2.5-0.2-3.7-0.3c-0.5-0.8-1-1.5-1.6-2.3C550.3,85,551.6,85.1,552.9,85.2z M550.6,90.6
		c-1.1-0.1-2.1-0.2-3.2-0.4c-0.5-0.7-1-1.5-1.5-2.2c1.1,0.1,2.3,0.3,3.4,0.4C549.7,89.1,550.2,89.8,550.6,90.6z M547.9,94.9
		c0.1,0.3,0.3,0.5,0.4,0.8c-0.7-0.1-1.4-0.2-2.2-0.3c-0.1-0.3-0.3-0.6-0.5-0.9C546.4,94.7,547.2,94.8,547.9,94.9z M548.9,96.8
		c0.3,0.6,0.6,1.2,1,1.8c-0.9-0.1-1.7-0.2-2.6-0.3c-0.2-0.6-0.4-1.2-0.6-1.7C547.4,96.6,548.1,96.7,548.9,96.8z M550.6,95.9
		c-0.1-0.2-0.2-0.5-0.3-0.7c1.1,0.1,2.3,0.3,3.4,0.4c0.2,0.3,0.3,0.5,0.5,0.8C552.9,96.2,551.8,96.1,550.6,95.9z M554.8,97.5
		c0.4,0.6,0.7,1.2,1.1,1.8c-1.4-0.2-2.8-0.4-4.3-0.6c-0.2-0.6-0.4-1.2-0.6-1.7C552.3,97.2,553.6,97.4,554.8,97.5z M556.9,97.8
		c1.6,0.2,3.3,0.4,4.9,0.6c0.5,0.6,1,1.3,1.5,1.9c-1.8-0.2-3.7-0.5-5.5-0.7C557.5,99,557.2,98.4,556.9,97.8z M563.8,98.7
		c1.4,0.2,2.7,0.3,4.1,0.5c0,0,0,0,0,0c0.2,0.2,0.5,0.2,0.7,0.1c2.2,0.3,4.3,0.5,6.5,0.8c-1.5,0-3,0.2-4.4,0.4
		c-0.2,0-0.4,0.2-0.6,0.4c-1.8-0.1-3.5-0.3-5.3-0.5C564.4,99.9,564.1,99.3,563.8,98.7z M563,97.4c-0.2-0.4-0.4-0.7-0.7-1.1
		c1,0.1,2.1,0.1,3.1,0.2c0.4,0.5,0.7,0.9,1.1,1.4C565.4,97.7,564.2,97.6,563,97.4z M561.8,95.4c-0.5-0.8-1.1-1.7-1.6-2.5
		c0.9,0.1,1.9,0.1,2.8,0.2c0.6,0.9,1.2,1.7,1.8,2.5C563.8,95.5,562.8,95.5,561.8,95.4z M563.1,89.4c1,0,2,0.1,2.9,0.1
		c0.6,0.7,1.2,1.5,1.8,2.2c-1.1,0-2.1-0.1-3.2-0.1C564.1,90.8,563.6,90.1,563.1,89.4z M566.5,86.1c0.7,0.1,1.5,0.1,2.2,0.2
		c0.6,0.6,1.2,1.2,1.8,1.7c-1,0-2,0-2.9,0C567.3,87.4,566.9,86.8,566.5,86.1z M570.8,84.8c-0.4-0.6-0.9-1.2-1.3-1.8
		c0.7,0,1.5,0,2.2,0c0.6,0.7,1.3,1.3,1.9,1.9c0,0,0,0,0,0C572.7,84.8,571.7,84.8,570.8,84.8z M574.7,84.9c0.4-0.3,0.5-0.9,0.1-1.3
		c-0.2-0.2-0.4-0.5-0.7-0.7c1.8-0.1,3.5-0.2,5.2-0.4c1.4,0.9,2.9,1.8,4.4,2.6C580.7,85,577.7,84.9,574.7,84.9z M572.9,81.6
		c-0.9-1-1.8-1.9-2.5-3c-0.1-0.1-0.2-0.3-0.3-0.5c0.9-0.2,1.8-0.3,2.7-0.5c1.7,1.4,3.4,2.7,5.2,3.9
		C576.3,81.5,574.6,81.6,572.9,81.6z M570.5,81.6c-0.7,0-1.4,0-2.1,0c-0.8-1-1.6-2-2.5-3c0.8-0.1,1.5-0.2,2.3-0.3
		C568.9,79.5,569.7,80.6,570.5,81.6z M565,77.7c-0.6-0.6-1.1-1.3-1.7-1.9c1.1-0.2,2.2-0.4,3.3-0.6c0.3,0.8,0.6,1.5,1,2.3
		C566.8,77.5,565.9,77.6,565,77.7z M562,77.9c-0.4,0-0.9,0.1-1.3,0.1c-0.5-0.6-0.9-1.2-1.4-1.7c0.5,0,1-0.1,1.5-0.1
		C561.2,76.7,561.6,77.3,562,77.9z M558.6,79.3c0.5,0.8,1,1.5,1.6,2.3c-0.9,0-1.7-0.1-2.6-0.1c-0.5-0.7-0.9-1.4-1.4-2.2
		C557,79.3,557.8,79.3,558.6,79.3z M555.5,78.2c-0.4-0.6-0.7-1.1-1.1-1.7c0.8,0,1.5,0,2.3-0.1c0.4,0.6,0.8,1.1,1.2,1.7
		C557.1,78.1,556.3,78.2,555.5,78.2z M558.1,74.8c-0.2-0.2-0.3-0.4-0.5-0.6c0.7,0,1.3,0,1.9,0c0.1,0.2,0.2,0.4,0.4,0.6
		C559.3,74.8,558.7,74.8,558.1,74.8z M556.6,73c-0.5-0.6-1-1.1-1.5-1.7c0.8-0.1,1.7-0.1,2.5-0.2c0.4,0.7,0.9,1.3,1.3,2
		C558.1,73.1,557.3,73,556.6,73z M554.3,72.8c-0.8,0-1.7-0.1-2.5-0.1c-0.3-0.4-0.6-0.9-0.9-1.3c0.8,0,1.6,0,2.4-0.1
		C553.6,71.8,553.9,72.3,554.3,72.8z M555.2,74.2c0.2,0.2,0.3,0.5,0.5,0.7c-0.8,0-1.5,0.1-2.3,0.1c-0.2-0.3-0.3-0.5-0.5-0.8
		C553.7,74.3,554.5,74.3,555.2,74.2z M552.6,76.5c0.3,0.6,0.7,1.1,1,1.7c0,0,0,0,0,0c-0.9,0-1.8,0-2.8-0.1c-0.4-0.6-0.7-1.1-1.1-1.7
		C550.7,76.5,551.7,76.5,552.6,76.5z M550.6,80.9c-1.7-0.2-3.4-0.4-5.2-0.6c-0.4-0.4-0.7-0.9-1.1-1.3c1.8,0.1,3.6,0.2,5.4,0.3
		C550.1,79.8,550.4,80.4,550.6,80.9z M551.3,82.2c0.2,0.4,0.5,0.9,0.7,1.3c-1.5-0.2-2.9-0.3-4.4-0.5c-0.3-0.4-0.7-0.9-1-1.3
		C548.2,82,549.8,82.1,551.3,82.2z M547.1,84.7c0.4,0.7,0.9,1.5,1.3,2.2c-1.2-0.1-2.4-0.2-3.5-0.4c-0.6-0.8-1.1-1.6-1.7-2.3
		C544.5,84.5,545.8,84.6,547.1,84.7z M544.2,87.8c0.4,0.7,0.8,1.5,1.3,2.2c-0.9-0.1-1.7-0.2-2.6-0.3c-0.5-0.8-0.9-1.5-1.4-2.3
		C542.3,87.5,543.2,87.7,544.2,87.8z M541.2,89.4c-0.8-0.1-1.5-0.2-2.3-0.3c-0.5-0.8-1-1.7-1.6-2.4c0.8,0.1,1.7,0.3,2.5,0.4
		C540.3,87.9,540.7,88.7,541.2,89.4z M538.3,90.3c0.3,0.5,0.6,1,0.8,1.5c0.1,0.2,0.2,0.4,0.3,0.6c-0.7-0.1-1.4-0.3-2.1-0.4
		c-0.3-0.7-0.7-1.4-1.1-2.1C536.9,90,537.6,90.2,538.3,90.3z M535.8,92.7c0.1,0.1,0.1,0.2,0.2,0.2c0.4,0.5,0.9,0.4,1.2,0.1
		c0.9,0.2,1.8,0.4,2.8,0.5c0.2,0.4,0.4,0.8,0.7,1.2c-2.9-0.3-5.9-0.7-8.8-1c-1.1-1-2.2-1.9-3.3-2.9C531,91.6,533.4,92.2,535.8,92.7z
		 M541.3,95.7c0.3,0.4,0.6,0.8,0.9,1.1c0.3,0.4,0.9-0.1,0.8-0.5c0-0.1-0.1-0.3-0.2-0.4c0.7,0.1,1.3,0.2,2,0.3c0.3,0.6,0.6,1.2,1,1.8
		c-3.3-0.4-6.5-0.7-9.8-0.8c-1.1-0.9-2.1-1.7-3.2-2.6C535.6,94.9,538.4,95.3,541.3,95.7z M579,100.6c0.8,0.1,1.7,0.2,2.5,0.3
		c-0.8,0.1-1.6,0.1-2.3,0.1C579.2,100.9,579.1,100.8,579,100.6z M597.1,92.3c-2,0.6-3.8,1.4-5.5,2.4c-4.9,0.1-9.9,0.9-14.9,1
		c-3.2,0.1-6.3,0.1-9.5,0c-0.5-0.9-1.1-1.7-1.6-2.5c3.3,0.1,6.6,0.1,10,0.1c-0.4,0.1-0.8,0.1-1.1,0.2c-0.6,0.1-0.5,1.2,0.1,1.3
		c3.3,0.2,6.5,0,9.8-0.4c0.8-0.1,1-0.9,0.7-1.5c3.5-0.2,7-0.5,10.4-0.9c0.7-0.1,0.6-1.1-0.1-1.1c-8.7,0.8-17.3,1-25.8,0.9
		c0-0.1,0-0.1-0.1-0.2c-0.3-0.7-0.7-1.3-1-2c3.2,0.1,6.5,0.1,9.8,0c-0.3,0.1-0.6,0.3-0.9,0.4c-0.7,0.3-0.2,1.2,0.4,1.2
		c1.5,0,3-0.2,4.5-0.3c1.5,0,3,0,4.4-0.2c0.6-0.1,1-1.1,0.3-1.4c-0.3-0.1-0.6-0.2-0.8-0.2c1.7-0.2,3.5-0.3,5.2-0.6
		c3.3,1.2,6.8,2.1,10.4,2.6C600.1,91.5,598.6,91.9,597.1,92.3z M517.5,38.4c0.4-3,0.3-5.8-0.2-8.6c1.8,3.5,4.2,6.8,6.2,9.1
		c7.9,9,16.6,16.9,26.4,23.5c-2.6-0.7-5.3-1.1-7.9-1.4c-0.5-0.1-0.6,0.6-0.1,0.7c2.8,0.7,5.7,1.2,8.6,1.5c0.2,0,0.3-0.1,0.3-0.2
		c1.9,1.3,3.9,2.5,5.9,3.6c0.7,0.4,1.3-0.8,0.6-1.2c-10.1-6-19.6-13.3-27.5-22c-3.6-4-7.1-8.5-9.7-13.3c-2.6-4.8-2.6-8.6-2.4-13.1
		c0.1-0.2,0.3-0.4,0.5-0.5c2.8-2.9,7.1-3.1,10.8-1.9c0.3,0.1,0.5,0.1,0.8-0.1c7.1,1.8,14,4.6,20.3,7.7c0.7,0.3,1.4,0.2,1.8-0.2
		c11.1,5.5,21.5,12.2,31.6,19.4c5.3,3.8,20.3,14.7,28.4,25.4c-0.3-0.2-0.8,0.2-0.6,0.6c2.1,4.1,3.3,8.5,4,13.1
		c0.1,0.7,1.2,0.6,1.1-0.1c-0.5-4.7-2.1-9.2-4.4-13.4c6.1,8.1,8.2,16.1-0.6,20.9c0,0-0.1,0-0.1,0c-16,1.5-28.9-6.3-42.2-14
		c-0.2-0.1-0.4,0.2-0.2,0.3c1,1,2.1,1.9,3.2,2.8c-0.9,0.1-1.7,0.2-2.6,0.3c-0.5-0.8-1-1.6-1.4-2.4c0,0,0,0,0,0
		c0.4-0.1,0.2-0.6-0.1-0.6c-0.1,0-0.2,0-0.3,0c-0.2-0.3-0.3-0.5-0.5-0.8c-0.4-0.6-1.2-0.1-1,0.5c0,0.1,0.1,0.3,0.1,0.4
		c-1.4,0.1-2.7,0.2-4.1,0.2c-1.1-1.3-2.3-2.6-3.3-3.9c0-0.2-0.1-0.4-0.3-0.4c-0.2-0.3-0.5-0.6-0.7-0.9c-0.5-0.6-1.5,0-1,0.7
		c0.1,0.1,0.1,0.2,0.2,0.3c-0.9,0-1.8,0-2.7,0.1c-0.6-0.7-1.2-1.4-1.8-2.1c-0.4-0.5-1.2,0.2-0.9,0.8c0.3,0.5,0.6,0.9,1,1.4
		c-0.8,0-1.7,0-2.5,0c-0.1-0.1-0.1-0.2-0.2-0.2c-0.2-0.2-0.6-0.1-0.5,0.2l0,0c-0.1,0-0.1,0-0.2,0c-3.1,0-6.3-0.4-9.3-0.3
		c-0.1,0-0.1,0.2,0,0.2c3.1,0.7,6.5,1,10,1c0.2,0.4,0.4,0.8,0.6,1.2c-4.3-0.2-8.5-0.1-12.6,0.3c-0.2,0-0.2,0.3,0,0.3
		c4.3,0.7,8.9,0.9,13.4,0.9c0.2,0.3,0.3,0.6,0.5,0.8c-1,0-2,0-3,0c-0.2-0.2-0.4-0.5-0.5-0.7c-0.2-0.2-0.6-0.1-0.5,0.2
		c0.1,0.2,0.1,0.3,0.2,0.5c-4.1,0-8.1-0.1-12.3-0.6c-0.4,0-0.5,0.5-0.1,0.6c4.2,0.6,8.5,1.1,12.9,1.3c0.2,0.5,0.5,1.1,0.8,1.7
		c-5.3-0.3-10.5-1.2-15.7-1.4c-0.3,0-0.3,0.4,0,0.5c3.2,1,6.6,1.5,10.1,1.8c0.3,0.4,0.5,0.8,0.8,1.3c-3.7-0.5-7.4-1-11.1-1.3
		c-0.3,0-0.4,0.4-0.1,0.5c3.9,1.1,8,1.8,12.1,2.3c0.3,0.4,0.5,0.9,0.8,1.3c-1.4-0.1-2.8-0.3-4.2-0.4c-0.2-0.2-0.4-0.5-0.6-0.7
		c-0.3-0.4-0.9,0-0.6,0.4c0,0.1,0.1,0.1,0.1,0.2c-2.9-0.3-5.8-0.5-8.7-0.7c-0.4,0-0.4,0.6,0,0.7c3.2,0.7,6.5,1.3,9.9,1.7
		c0.5,0.8,0.9,1.5,1.4,2.3c-1-0.1-2-0.3-3-0.4c-0.3-0.3-0.6-0.7-0.9-1c-0.2-0.2-0.6,0-0.5,0.3c0.1,0.2,0.2,0.4,0.2,0.5
		c-3.7-0.5-7.4-1-11-1.6c-0.4-0.1-0.5,0.5-0.1,0.6c2.8,0.7,5.7,1.2,8.5,1.7c0.2,0.8,0.6,1.5,0.9,2.3c-0.8-0.1-1.5-0.2-2.3-0.3
		c-0.2-0.3-0.5-0.6-0.7-0.8c-0.5-0.5-1.2-0.1-1.2,0.5c-2.2-0.4-4.4-0.8-6.7-1.2c-0.5-0.1-0.6,0.6-0.1,0.8c2.4,0.6,4.8,1.1,7.2,1.6
		c0.3,0.7,0.7,1.4,1.2,2c-2.6-0.6-5.2-1.2-7.9-1.8c-2.6-2.3-5.3-4.8-7.7-7.5c0.3,0,0.6-0.4,0.4-0.8c-0.9-1.7-2.1-3.3-3.1-5
		c-1.1-1.9-1.9-4-2.8-6c-0.2-0.4-0.7-0.2-0.6,0.2c0.7,2.7,1.8,5.8,3.4,8.4c-2.9-3.9-4.9-8.3-5.2-13.2
		C511.1,56.3,516.1,47.6,517.5,38.4z M504.5,58.2c0.1,0.4,0.2,0.9,0.3,1.3c0,0.2-0.1,0.3-0.1,0.5c-0.3,1.6-0.5,3.2-0.5,4.8
		c-0.1-0.2-0.1-0.5-0.2-0.7c-0.6-2.3-1-4.7-1.4-7.1C503.2,57.4,503.8,57.8,504.5,58.2z M501.9,56.6c0.2,2.4,0.6,4.9,1.1,7.3
		c0.4,2,0.8,4.2,1.5,6.1c0.2,1,0.4,2,0.7,3c-0.7-0.9-1.5-1.8-2.1-2.8c0.2,0,0.5-0.1,0.4-0.4c-0.2-2.4-1-4.8-1.6-7.1
		c-0.6-2.4-1.3-4.8-1.9-7.2C500.6,55.8,501.3,56.2,501.9,56.6z M497,54c0.8,3.2,1.6,6.6,2.9,9.6c0.2,0.3,0.8,0.3,0.7-0.2
		c-0.6-3.1-1.8-6.2-2.9-9.1c0.5,0.2,1,0.5,1.5,0.8c0,0,0,0,0,0c0.5,2.5,1.1,5,1.6,7.5c0.5,2.3,0.9,4.8,1.8,7
		c-2.5-3.7-4.4-7.6-5.2-11.8c-0.1-0.3-0.3-0.5-0.6-0.5c-0.4-1.3-0.9-2.6-1.5-3.8C496,53.6,496.5,53.8,497,54z M484.8,411.4
		c-20.2,22.6-39.2,46.3-58.6,69.5c-11.1,13.3-22.3,26.5-34,39.3c-5.8,6.4-11.8,12.7-17.8,18.9c-2.7,2.7-5.5,5.8-8.6,8.2
		c-0.8-0.1-1.7,0.1-2.5,0.9c-0.9,1-2,1.7-3.2,2.3c-1.6,0.6-3.2,1-5,1c-0.5,0-0.9,0.2-1.3,0.5c-7.7,0.5-17.1-2.6-23-3.9
		c-10.6-2.4-21.2-5.4-31.4-9c-20.2-7.2-39.5-16.8-57.4-28.6c-17.5-11.5-33.9-25.1-47.5-41.1c-6.1-7.2-11.6-14.9-16.3-23.1
		c-4-7.1-6.4-14.7-9.5-22.1c5.2-28.6,17.5-53.4,31.6-78.7c15-26.9,31-53.1,45.1-80.4c24.1-46.6,48.6-106.8,105.3-120.8
		c15.2-3.8,30.2-2.5,45.3,0.7c11.8,2.5,24,6.9,36.1,7.7c-1.4,1.5-2.8,3.1-4.3,4.6c-2.2,2.4,1.6,5.8,3.8,3.4
		c12.8-13.8,24.1-29,34.8-44.4c7.8-11.2,16.8-22.8,18.4-36.7c0.9,1.1,2,2.1,3,3.1c0,0,0,0,0,0c1.1,3.4,1.9,6.9,3.2,10.2
		c0.1,0.4,0.7,0.2,0.6-0.2c-0.8-3.1-2-6.2-3-9.3c2.1,2,4.2,3.9,6.3,5.7c1,0.9,2,1.8,3,2.7c0,0.1,0,0.1,0,0.2
		c1.1,5.2,2.2,10.5,4.2,15.5c0.2,0.6,1,0.3,0.9-0.3c-1.3-5-3-9.8-4.4-14.8c1.1,1.1,2.2,2.2,3.4,3.3c-0.1,0.1-0.1,0.2-0.1,0.3
		c1.2,5.7,2.9,11.7,6,16.7c0.3,0.4,1,0.1,0.8-0.4c-2.2-5.3-4.5-10.4-6-15.9c1,1,2.1,2,3.1,3c1.3,6.2,3.1,12.5,6.2,18
		c0.3,0.5,1.1,0.1,0.8-0.4c-2.3-5.6-4.6-10.9-6.2-16.7c1.1,1.1,2.3,2.1,3.5,3.2c1.9,6.3,4.2,12.6,7.5,18.3c0.3,0.5,1.1,0.1,0.9-0.4
		c-2.5-5.6-5-11.1-7.1-16.8c1.4,1.1,2.7,2.2,4.2,3.2c-0.1,0-0.2,0.2-0.2,0.4c1.3,6,4,12.6,7.4,17.8c0.3,0.5,1.2,0.1,0.9-0.5
		c-1.4-2.9-3-5.7-4.3-8.6c-1.3-2.9-2.3-5.9-3.4-8.8c1.4,1,2.8,1.8,4.4,2.7c0,0,0,0.1,0,0.1c1.5,5.9,4.3,12.7,7.8,17.8
		c0.1,0.1,0.2,0.2,0.3,0.2c1.6,4.1,3.6,8.1,5.4,12c2,4.6,4,9.2,6.3,13.6c0.3,0.6,1.3,0.1,1.1-0.5c-2-5-4.5-9.8-6.8-14.6
		c-1.8-3.8-3.5-7.8-5.5-11.5c-1.2-2.8-2.8-5.5-4.1-8.3c-1.3-2.8-2.3-5.6-3.6-8.4c1.3,0.7,2.7,1.3,4.2,1.8c1.7,0.6,3-1.9,1.3-2.6
		c-8.2-3.2-14.5-9-20.4-15.3c-5.6-6-11.6-11.8-16.9-18.1c-3.7-4.3-7.7-12.9-5.4-18.6c0.4,6.7,8.7,16.8,12,19.6
		c0.6,0.5,1.3-0.4,0.8-0.9c-2.8-3.2-5.7-6.3-7.9-10.1c-1.2-2-2.1-4.2-2.8-6.5c-0.7-2.6,0.2-4.5,1.8-6.2c0.7-0.3,1.4-0.6,2.2-0.8
		c0.9-0.2,1.7-0.3,2.6-0.3c0.1,0.6,0.3,1.3,0.5,1.9c0.3,1.1,0.5,2.2,1,3.2c0.2,0.3,0.8,0.3,0.7-0.1c-0.1-1-0.5-2-0.8-3
		c-0.2-0.7-0.4-1.3-0.6-2c0.5,0,0.9,0.1,1.4,0.2c0.5,1.2,0.9,2.4,1.3,3.7c0.2,0.7,0.3,1.4,0.5,2.2c0.1,14.7,16.8,25.8,26.9,34.1
		c15.6,12.8,33,21.7,52.8,25.9c2.4,0.5,3.2-3.3,0.7-3.8c-3.3-0.7-6.6-1.5-9.9-2.4c0.9-0.1,1.8-0.1,2.7-0.3c2.7-0.4,5.3-1.3,7.7-2.4
		c4.3,3.7,9.1,8.5,8,14.5c0,0,0,0,0,0c-11.8,2.6-22.4-3.5-33-8.1c-11-4.9-22.1-10.2-32.4-16.4c-0.1-0.1-0.3,0.1-0.1,0.2
		c11.8,8.2,24.4,14.4,37.4,20.4c7.9,3.6,17.7,8.9,26.7,7.1c-2.9,3.9-9.3,4.1-13.8,3.7c-11.2-1.2-22.1-6.9-31.7-12.5
		c-0.9-0.5-1.7,0.8-1,1.5c0.2,0.2,0.4,0.3,0.6,0.5c2.3,4.6,4.5,9.3,6.6,14c1.8,4,3.2,8.6,5.6,12.3c0.1,0.1,0.1,0.1,0.2,0.2
		c-2.2,3.4-4.2,6.9-5.7,10c-0.4,0.7,0.7,1.4,1.2,0.8c3.2-4.6,6.1-9.4,9.6-13.7c2.7-3.4,5.9-6.3,8.2-9.9c1.1,0.3,2.2,0.6,3.3,0.9
		c-5,2.6-8.7,7.5-11.8,12.2c-5.4,8.1-10.8,16.3-16.8,24.1c-5.8,7.5-11.5,14.9-17,22.5c-4.8,6.8-10.5,13.4-12.6,21.6
		c-0.7,2.7,3.7,4.2,4.7,1.5c1.4-4,3.4-7.6,5.6-11.1c1.1,8.4,4.8,16,9.1,23.4c6.4,10.9,13.4,21.3,17.9,33.3
		c10,26.2,6.2,53.2-6.2,77.9C526.3,367.5,504.6,389.1,484.8,411.4z M546.9,132.7c-0.6-1.3-1.6-2.4-2.4-3.6c-0.9-1.3-1.9-2.6-2.8-3.9
		c-0.1-0.2-0.3-0.2-0.4-0.2c-0.5-0.9-0.9-1.8-1.4-2.7c1.3,1.1,2.7,2,4,3c0.5,0.8,0.9,1.7,1.4,2.5c0,0.1,0,0.3,0.1,0.4
		c0.2,0.2,0.3,0.4,0.5,0.7c1.9,3.8,3.6,7.7,5.9,11.2c0.3,0.5,1,0.1,0.8-0.4c-0.5-1.7-1.1-3.3-1.9-5c0.3,0,0.5-0.3,0.4-0.6
		c-0.8-1.6-2.1-3.2-3.3-4.6c-0.6-1-1.3-2-1.9-2.9c1.1,0.7,2.2,1.3,3.3,1.9c0.7,1.5,1.5,2.9,2.3,4.3c1.3,2.4,2.3,5.2,4.1,7.3
		c0.1,0.1,0.2,0.2,0.3,0.2c-1.6,1.9-3.2,4-4.6,6.2c-1.2-4.7-4-9.4-6.1-13.7c-0.4-0.9-0.9-1.8-1.3-2.7c0.7,1.1,1.4,2.4,2.4,3.3
		C546.4,133.6,547.1,133.2,546.9,132.7z M552.7,133c-0.7-1.2-1.3-2.5-2-3.7c0.8,0.4,1.7,0.8,2.5,1.2c0.2,0.5,0.5,1,0.7,1.5
		c0.6,1.2,1.1,2.5,2,3.6c0.3,0.4,0.9,0.1,0.7-0.4c-0.4-1.3-1.1-2.5-1.8-3.7l-0.2-0.3c2.2,1,4.5,1.8,6.9,2.6c0.2,0.1,0.4,0.1,0.5,0.2
		c-2.1,1.6-4.1,3.5-6,5.7c0,0,0,0,0,0C555.4,137.3,553.9,135.1,552.7,133z"/>
	<path class="st1" d="M447.4,174.9c-0.7-1.2-1.4-2.3-2-3.5c-0.5-1.1-0.8-2.4-1.5-3.3c-0.1-0.2-0.5-0.2-0.5,0.1
		c-0.1,1.3,0.6,2.7,1.2,3.8c0.6,1.3,1.3,2.4,2.2,3.4C447.1,175.8,447.6,175.3,447.4,174.9z"/>
	<path class="st1" d="M451.1,176.5c-0.8-1.6-1.9-2.9-2.7-4.5c-1-1.9-1.6-4-2-6.1c-0.1-0.4-0.7-0.3-0.6,0c0.6,3.6,1.9,8.4,4.8,10.9
		C450.8,177.1,451.3,176.9,451.1,176.5z"/>
	<path class="st1" d="M453.9,176c-0.9-2.3-2.1-4.5-3-6.8c-0.9-2.3-1.6-4.7-2.7-6.9c-0.1-0.2-0.4-0.2-0.4,0.1
		c0.4,2.4,1.4,4.8,2.3,7.1c0.9,2.3,1.8,4.7,3.1,6.9C453.5,176.7,454.1,176.4,453.9,176z"/>
	<path class="st1" d="M456.5,173.1c-1-4.6-3.4-9.1-5.1-13.5c-0.2-0.4-0.9-0.2-0.7,0.2c1.6,4.4,2.8,9.5,5.2,13.6
		C456,173.8,456.6,173.4,456.5,173.1z"/>
	<path class="st1" d="M460.8,171.5c-2.5-5.8-5.2-11.4-7.4-17.4c-0.2-0.5-1-0.2-0.8,0.3c2.1,5.9,4.3,12,7.4,17.5
		C460.2,172.4,461,172,460.8,171.5z"/>
	<path class="st1" d="M463.7,167.4c-2.2-5.8-4.5-11.5-6.2-17.6c-0.1-0.4-0.7-0.2-0.6,0.2c1.4,6,3.1,12.1,5.8,17.7
		C463,168.3,463.9,168,463.7,167.4z"/>
	<path class="st1" d="M466.4,162.4c-0.4-2.7-1.6-5.3-2.4-8c-1-2.9-1.7-6-3-8.8c-0.1-0.2-0.5-0.2-0.4,0.1c0.5,2.7,1.5,5.3,2.3,8
		c0.9,2.9,1.5,6.1,2.9,8.9C465.9,162.9,466.5,162.8,466.4,162.4z"/>
	<path class="st1" d="M469,157.8c-1.6-5.3-3.7-10.3-4.9-15.7c-0.1-0.4-0.9-0.3-0.8,0.2c1,5.3,2.3,11.1,4.8,15.9
		C468.4,158.8,469.2,158.3,469,157.8z"/>
	<path class="st1" d="M471.9,151.9c-0.7-2.4-2-4.7-2.9-7c-0.9-2.4-1.5-4.8-2.5-7.1c-0.1-0.3-0.7-0.3-0.7,0.1c0.4,2.5,1.4,5,2.2,7.3
		c0.9,2.4,1.6,5,3.1,7.1C471.4,152.7,472,152.4,471.9,151.9z"/>
	<path class="st1" d="M474,148c-0.6-2.4-1.7-4.7-2.5-7.1c-0.8-2.3-1.2-4.9-2.2-7.2c-0.1-0.2-0.4-0.1-0.4,0.1c0,2.5,1,5,1.6,7.4
		c0.7,2.4,1.3,5,2.5,7.2C473.4,148.9,474.1,148.4,474,148z"/>
	<path class="st1" d="M477.1,143.7c0-0.2,0-0.3-0.1-0.4c-0.1,0-0.1-0.1-0.2-0.1c-0.3-0.2-0.8,0-0.6,0.4c-0.5-1.1-0.7-2.5-1.2-3.6
		c-0.4-0.9-0.7-1.9-1.1-2.8c-0.7-2-1.4-4-2-6.1c-0.2-0.6-1.1-0.3-0.9,0.3c1.1,3.9,2.3,8,3.9,11.8C475.3,144,476.7,145.5,477.1,143.7
		z"/>
	<path class="st1" d="M479,139.9c-0.1,0-0.1-0.1-0.2-0.1c-1.8-4.3-3.7-8.6-5.2-13c-0.1-0.4-0.7-0.2-0.6,0.2
		c1.4,4.8,2.9,9.7,5.2,14.1c0.1,0.3,0.6,0.3,0.8,0.2C479.5,140.9,479.6,140.3,479,139.9z"/>
	<path class="st1" d="M481.3,134.8c-0.9-1.9-2.3-3.4-3.2-5.4c-0.9-1.9-1.1-4.1-1.9-6c-0.1-0.2-0.3-0.2-0.4,0c-0.3,2,0.6,4.4,1.4,6.2
		c0.8,1.9,1.8,4.2,3.4,5.5C481,135.4,481.5,135.2,481.3,134.8z"/>
	<path class="st1" d="M482.7,130.2c-0.7-1.3-1.7-2.4-2.5-3.7c-1-1.5-1.8-3.2-2.5-4.8c-0.2-0.5-0.9-0.2-0.7,0.3
		c1.1,2.9,2.6,6.8,5,8.8C482.3,131,482.9,130.7,482.7,130.2z"/>
	<path class="st1" d="M482.5,122.6c-0.9-1.6-1.9-3.1-2.7-4.8c-0.1-0.3-0.6-0.2-0.5,0.2c0.5,1.8,1.3,3.8,2.6,5.2
		C482.2,123.5,482.7,123,482.5,122.6z"/>
	<path class="st1" d="M484.6,118.7c-0.3-1.1-0.9-2-1.3-3c-0.4-0.9-0.8-1.9-1.4-2.7c-0.2-0.3-0.7-0.1-0.6,0.3
		c0.2,1.1,0.9,2.1,1.3,3.1c0.4,0.9,0.8,1.8,1.4,2.7C484.2,119.3,484.8,119.1,484.6,118.7z"/>
	<path class="st1" d="M487,115.1c-0.5-1-1.3-1.8-1.9-2.8c-0.5-1-0.7-2.1-1.2-3.1c-0.1-0.2-0.4-0.2-0.5,0c-0.2,2,1.4,5.3,3.1,6.3
		C486.9,115.7,487.1,115.3,487,115.1z"/>
	<path class="st1" d="M488.4,111.6c-0.6-1.6-1.5-3.2-2.3-4.7c-0.2-0.4-0.9-0.1-0.7,0.4c0.8,1.6,1.4,3.2,2.3,4.7
		C488,112.2,488.5,112,488.4,111.6z"/>
	<path class="st1" d="M489.5,108.3c0.1-2-0.7-4-1.7-5.7c-0.3-0.4-0.9,0-0.7,0.4c1,1.7,1.3,3.5,1.7,5.3
		C489,108.6,489.5,108.6,489.5,108.3z"/>
	<path class="st1" d="M491.8,208.4c-0.3-0.7-0.8-1.2-1.3-1.7c-0.5-0.5-1-1.2-1.7-1.5c-0.2-0.1-0.5,0.1-0.4,0.4
		c0.2,0.7,0.8,1.3,1.2,1.9c0.5,0.6,0.9,1.2,1.5,1.6C491.5,209.3,492,208.8,491.8,208.4z"/>
	<path class="st1" d="M494.9,208.2c-1-2.4-3-4.7-4.5-6.8c-0.2-0.4-0.8,0-0.6,0.4c1.4,2.2,2.6,5,4.4,6.9
		C494.6,208.9,495.1,208.5,494.9,208.2z"/>
	<path class="st1" d="M499.1,209.2c-1.6-4.3-4.5-8.5-6.7-12.5c-0.2-0.3-0.6,0-0.5,0.3c2.1,4.1,3.9,8.8,6.6,12.5
		C498.8,209.8,499.3,209.6,499.1,209.2z"/>
	<path class="st1" d="M502.5,210.4c-1.3-5.7-4.4-11.4-7.4-16.4c-0.2-0.3-0.6,0-0.5,0.3c2.8,5.3,4.7,10.9,7.1,16.4
		C501.9,211.2,502.6,210.9,502.5,210.4z"/>
	<path class="st1" d="M507,203.1c-1-3.4-2.9-6.6-4.4-9.8c-1.5-3.3-3-6.5-4.6-9.8c-0.2-0.4-0.9-0.2-0.7,0.2l4.5,10.4
		c1.3,3.1,2.5,6.5,4.3,9.3C506.5,203.9,507.2,203.6,507,203.1z"/>
	<path class="st1" d="M517.2,187.9c-2.1-7.3-5.6-14.3-7.9-21.5c-0.2-0.5-0.9-0.2-0.8,0.3c2.1,7.2,4.1,15.2,7.8,21.7
		C516.6,188.9,517.4,188.5,517.2,187.9z"/>
	<path class="st1" d="M522.3,180.5c-1.5-4.2-3.6-8.1-5.2-12.3c-1.6-4.1-2.9-8.4-4.6-12.5c-0.1-0.3-0.6-0.2-0.5,0.1
		c0.9,4.3,2.5,8.6,4.1,12.8c1.5,4.2,3,8.5,5.3,12.4C521.6,181.6,522.5,181.1,522.3,180.5z"/>
	<path class="st1" d="M524,172.7c-0.9-3.7-3.1-7.4-4.5-11c-1.5-3.7-2.6-7.5-4.2-11.1c-0.1-0.2-0.4-0.2-0.4,0.1
		c0.8,3.9,2.2,7.7,3.5,11.4c1.3,3.6,2.5,7.9,4.7,11.1C523.4,173.6,524.1,173.2,524,172.7z"/>
	<path class="st1" d="M527.1,168.2c-1.3-3.3-3.6-6.1-5-9.4c-1.5-3.6-2.5-7.4-3.1-11.2c-0.1-0.5-0.9-0.5-0.8,0.1
		c0.5,4,1.3,7.9,2.8,11.6c1.2,3.2,2.9,7.3,5.4,9.6C526.7,169,527.3,168.6,527.1,168.2z"/>
	<path class="st1" d="M530.7,165c-3.2-7.1-7.1-13.8-10-21.1c-0.1-0.3-0.6-0.1-0.5,0.2c2.3,7.3,5.1,15.1,9.4,21.5
		C530,166.1,530.9,165.6,530.7,165z"/>
	<path class="st1" d="M533.1,161.5c-0.6-4.4-2.6-8.9-4.5-12.9c-1.9-4.1-4.1-8.1-6.6-11.9c-0.3-0.4-0.9,0-0.6,0.4
		c2.5,4,4.7,8.1,6.6,12.4c1.7,4,2.7,8.2,4.4,12.2C532.5,162.1,533.2,162,533.1,161.5z"/>
	<path class="st1" d="M537.4,158c-1.4-4.5-3.6-8.9-5.5-13.3c-1.7-4-3.2-8.2-5.5-12c-0.1-0.2-0.3,0-0.3,0.1c1.2,4.6,3.4,9,5.2,13.4
		c1.6,4.1,3.1,8.3,5.2,12.2C536.7,159.1,537.5,158.6,537.4,158z"/>
	<path class="st1" d="M514.5,222.1c-2.3,2.1-4.7,3.9-7.2,5.8c-0.5,0.4,0,1.1,0.5,0.8c2.7-1.5,5.3-3.7,7.3-6.1
		C515.4,222.2,514.9,221.7,514.5,222.1z"/>
	<path class="st1" d="M516.3,225.6c-2.7,2.2-5.5,4.3-8.2,6.5c-0.4,0.4,0,1.1,0.5,0.7c2.8-2.1,5.4-4.4,8.1-6.6
		C517.1,225.9,516.7,225.3,516.3,225.6z"/>
	<path class="st1" d="M518.7,229.1c-2,1.6-4,3.1-6.1,4.5c-2.1,1.4-4.4,2.5-6.3,4.1c-0.3,0.2-0.1,0.8,0.3,0.6
		c4.5-1.8,8.7-5.6,12.4-8.6C519.4,229.4,519,228.9,518.7,229.1z"/>
	<path class="st1" d="M520.4,232.8c-2.7,1.6-5.1,3.5-7.8,5.1c-2.6,1.6-5.5,3-7.9,4.8c-0.3,0.2-0.1,0.8,0.3,0.6
		c2.9-1.1,5.5-3,8.1-4.8c2.6-1.7,5.3-3.4,7.5-5.5C520.8,232.9,520.6,232.7,520.4,232.8z"/>
	<path class="st1" d="M523.4,235.4c-6.4,4.2-13.2,8.1-19.2,12.9c-0.5,0.4,0,1.1,0.5,0.8c6.6-3.8,12.8-8.7,19.1-13.1
		C524.2,235.7,523.8,235.2,523.4,235.4z"/>
	<path class="st1" d="M524.6,239.4c-6.4,4.3-13.3,7.9-19.4,12.5c-0.3,0.3-0.1,0.9,0.4,0.7c6.8-3.4,13.2-8.4,19.4-12.8
		C525.2,239.6,524.9,239.2,524.6,239.4z"/>
	<path class="st1" d="M526,243.4c-3.3,2.6-6.8,5.1-10.4,7.3c-3.6,2.2-7.5,4-11,6.3c-0.4,0.3-0.1,1,0.4,0.8c7.8-2.9,15-8.8,21.3-14
		C526.6,243.6,526.3,243.1,526,243.4z"/>
	<path class="st1" d="M528.9,247.2c-3.9,2.8-7.4,6-11.4,8.6c-4,2.6-8.3,4.7-12.4,7.1c-0.5,0.3-0.1,1.1,0.4,0.9
		c4.4-1.8,8.6-4.4,12.6-7.1c3.9-2.7,8-5.6,11.2-9.1C529.4,247.4,529.1,247.1,528.9,247.2z"/>
	<path class="st1" d="M530.1,252.4c-3.6,3.4-7.5,6.6-11.7,9.4c-3.8,2.6-8,4.7-11.8,7.2c-0.4,0.3-0.1,0.9,0.4,0.7
		c8.9-3.5,16.7-10.5,23.4-17.2C530.5,252.4,530.2,252.2,530.1,252.4z"/>
	<path class="st1" d="M533.6,255.4c-8,8.2-17,14.3-26.6,20.4c-0.5,0.3-0.1,1.2,0.5,0.9c10.1-4.9,19-12.7,26.5-21
		C534.2,255.5,533.8,255.2,533.6,255.4z"/>
	<path class="st1" d="M534.9,259.3c-9,7.6-18.1,14.5-28.3,20.6c-0.6,0.4,0,1.2,0.6,0.9c10.1-5.6,20-12.8,28-21.1
		C535.5,259.5,535.1,259.1,534.9,259.3z"/>
	<path class="st1" d="M524.9,335.8c-7.2,4.2-14,8.9-21.4,12.7c-3.8,2-7.7,3.8-11.6,5.5c-0.5,0.2-1,0.4-1.6,0.6
		c-7.9,0.9-15.8,3.1-23.7,4.1c-8.4,1.1-16.9,1.8-25.4,2.3c-0.6,0-0.6,1,0.1,1c8.7-0.2,17.4-1,26.1-2.2c5.5-0.8,11.5-1.5,17.1-2.9
		c-1.2,0.5-2.5,1.1-3.6,1.8c-0.5,0.3-0.2,1.2,0.4,1c3.9-0.7,7.6-2.6,11.2-4.2c3.7-1.6,7.3-3.4,10.9-5.3c7.6-4,15.5-8.3,22.1-13.8
		C525.9,336.2,525.4,335.5,524.9,335.8z"/>
	<path class="st1" d="M517.7,346c-4.8,3.7-9.9,7.1-15.2,10.2c-5.3,3.1-11,5.3-16.2,8.4c-0.6,0.4-0.1,1.2,0.5,1.1
		c5.6-1.7,10.9-5.1,15.9-8.1c5.4-3.3,10.5-7,15.4-10.9C518.5,346.3,518.1,345.7,517.7,346z"/>
	<path class="st1" d="M505.6,358.8c-3.1,1.8-6.1,3.5-9.2,5.3c-2.7,1.5-5.7,2.8-8,4.9c-0.4,0.3,0.1,0.9,0.5,0.8c3-1,5.6-3,8.3-4.6
		c3-1.8,6.1-3.6,9.1-5.4C506.9,359.4,506.3,358.5,505.6,358.8z"/>
	<path class="st1" d="M493.9,371.6c-2.9,3.3-5.9,6.5-9,9.7c-0.4,0.4,0.2,1.1,0.7,0.8c3.5-2.7,6.7-6,9.3-9.6
		C495.4,371.8,494.5,371,493.9,371.6z"/>
	<path class="st1" d="M378.9,168.2c-1.6-2.6-3.4-4.9-5.2-7.4c-0.3-0.4-1,0-0.7,0.4c1.7,2.5,3.3,5.1,5.1,7.4
		C378.5,169.2,379.2,168.7,378.9,168.2z"/>
	<path class="st1" d="M383.6,167.6c-1.7-2.7-3.7-5.3-5.5-7.9c-0.3-0.5-1,0-0.7,0.5c1.8,2.7,3.5,5.5,5.4,8
		C383.2,168.6,384,168.1,383.6,167.6z"/>
	<path class="st1" d="M391.5,171c-2.7-4.9-6.6-9.3-10.1-13.6c-0.2-0.3-0.7,0-0.5,0.3c3.5,4.4,6.5,9.3,10.1,13.6
		C391.3,171.6,391.7,171.3,391.5,171z"/>
	<path class="st1" d="M398.2,172.9c-3.1-5.7-7.4-10.8-12.2-15.2c-0.3-0.3-0.7,0.2-0.4,0.4c4.7,4.6,8.4,9.7,11.8,15.3
		C397.7,174,398.5,173.4,398.2,172.9z"/>
	<path class="st1" d="M405.1,176.1c-3.9-6.2-9-11.7-13.5-17.4c-0.3-0.4-0.9,0-0.6,0.4c4.4,5.9,8.4,12.2,13.4,17.6
		C404.7,177.1,405.3,176.5,405.1,176.1z"/>
	<path class="st1" d="M411.5,179.2c-3.7-6.8-8.9-13-13.4-19.2c-0.4-0.5-1.1,0-0.8,0.5c4.3,6.4,8.2,13.5,13.2,19.4
		C411,180.4,411.8,179.9,411.5,179.2z"/>
	<path class="st1" d="M418.1,182.4c-3.8-8-9.8-15.4-15.1-22.5c-0.3-0.5-1.1,0-0.7,0.5c2.6,3.7,5,7.4,7.5,11.2
		c2.4,3.7,4.6,7.8,7.3,11.3C417.4,183.3,418.4,183,418.1,182.4z"/>
	<path class="st1" d="M424.6,184.1c-2.1-4.3-5.3-8.2-7.8-12.3c-2.7-4.4-5.3-8.9-7.8-13.5c-0.2-0.3-0.8,0-0.6,0.3
		c2.2,4.6,4.5,9,7,13.4c2.5,4.2,4.9,9.1,8.3,12.6C424.1,185.1,424.9,184.6,424.6,184.1z"/>
	<path class="st1" d="M435.5,190.1c-3.3-4.6-7-8.7-10.2-13.4c-3.3-5-6.3-10.2-8.8-15.6c-0.3-0.5-1.2-0.3-0.9,0.3
		c4.6,10.4,10.6,21.7,19,29.5C435.1,191.3,435.9,190.6,435.5,190.1z"/>
	<path class="st1" d="M447.4,196.7c-2.3-2.5-5.1-4.6-7.3-7.2c-2.3-2.6-4.3-5.4-6.1-8.3c-3.6-5.7-5.9-11.8-9.1-17.7
		c-0.2-0.3-0.7-0.1-0.6,0.3c2,6.6,5.5,13.3,9.2,19.1c3.3,5.3,7.7,11.7,13.4,14.7C447.4,197.9,447.8,197.1,447.4,196.7z"/>
	<path class="st1" d="M443.3,253c0.2-0.4-0.4-0.8-0.7-0.4c-1.5,1.8-3.3,3.4-4.9,5.1c-0.3,0.4,0.2,0.9,0.6,0.6
		C440.4,257.1,442.1,255.1,443.3,253z"/>
	<path class="st1" d="M446.8,256.6c0.2-0.2-0.2-0.5-0.4-0.3c-3,3.6-6.2,7-9.4,10.6c-0.3,0.4,0.2,1,0.6,0.6
		C441.2,264.5,444.2,260.6,446.8,256.6z"/>
	<path class="st1" d="M450.6,264.2c0.2-0.3-0.3-0.6-0.5-0.3c-3.4,4.9-7.5,9-11.2,13.6c-0.3,0.4,0.2,1.1,0.7,0.7
		C444.1,274.4,447.6,269.1,450.6,264.2z"/>
	<path class="st1" d="M454.9,306.6c0.9-2.7,1.6-5.3,2.4-8c0.1-0.4-0.6-0.7-0.8-0.3c-0.9,2.7-1.8,5.4-2.6,8.1
		C453.7,307,454.7,307.2,454.9,306.6z"/>
	<path class="st1" d="M299.2,422.6c-0.5-1.9-1.1-3.7-1.3-5.7c-0.2-1.8,0.1-3.6,0.2-5.4c0-0.3-0.5-0.4-0.6-0.1
		c-1.4,3.3-0.9,8.5,1,11.5C298.8,423.3,299.3,423,299.2,422.6z"/>
	<path class="st1" d="M301.8,420.6c-2.2-5.4-2.5-10.7,0.1-16c0.1-0.3-0.3-0.5-0.5-0.2c-2.9,4.9-3.4,11.6-0.4,16.6
		C301.3,421.4,301.9,421,301.8,420.6z"/>
	<path class="st1" d="M304.9,414.5c-0.6-7.2,0.2-14.1,3.1-20.7c0.2-0.4-0.4-0.6-0.5-0.3c-3,6.6-4.3,13.8-3.2,21
		C304.3,415,305,414.9,304.9,414.5z"/>
	<path class="st1" d="M310.1,410.3c0.6-6.3,1.8-12.2,3.3-18.4c0-0.2-0.2-0.2-0.3-0.1c-2.4,5.6-3.6,12.3-3.6,18.4
		C309.5,410.6,310.1,410.7,310.1,410.3z"/>
	<path class="st1" d="M313.9,407.3c1.9-8,3-16.2,4.4-24.3c0.1-0.4-0.6-0.5-0.7-0.1c-1.6,8-3.6,16.1-4.7,24.3
		C312.9,407.7,313.7,407.9,313.9,407.3z"/>
	<path class="st1" d="M320.1,400.6c1.5-6.9,2.3-13.9,3.4-20.9c0.1-0.4-0.5-0.5-0.6-0.1c-1.3,6.9-2.8,13.8-3.7,20.8
		C319.2,400.9,320,401.1,320.1,400.6z"/>
	<path class="st1" d="M326.2,395.3c1.9-7.6,2.6-15.6,3.9-23.3c0.1-0.4-0.6-0.5-0.6-0.1c-1.4,7.7-3.3,15.5-4.1,23.3
		C325.3,395.7,326,395.9,326.2,395.3z"/>
	<path class="st1" d="M334,388.3c1.9-7.1,2.8-14.6,4.1-21.8c0.1-0.4-0.6-0.5-0.6-0.1c-1.5,7.2-3.4,14.5-4.4,21.7
		C333.1,388.7,333.9,388.9,334,388.3z"/>
	<path class="st1" d="M340.6,383.2c1.9-6.1,2.4-12.8,1.9-19.2c0-0.3-0.5-0.3-0.5,0c0.3,6.6-0.7,12.7-2.3,19
		C339.5,383.6,340.4,383.8,340.6,383.2z"/>
	<path class="st1" d="M348.6,379.1c0.1-5.6-0.6-11.3-1-16.9c0-0.4-0.6-0.4-0.6,0.1c0.2,5.6,0,11.3,0.8,16.9
		C347.8,379.8,348.6,379.7,348.6,379.1z"/>
	<path class="st1" d="M354.9,373.9c-0.5-5-2.2-10-3.4-14.9c-0.1-0.4-0.7-0.2-0.6,0.2c1,4.8,1.6,10.1,3.2,14.8
		C354.3,374.5,354.9,374.4,354.9,373.9z"/>
	<path class="st1" d="M360.2,372.2c-0.3-2.8-1.1-5.5-1.5-8.2c-0.4-2.8-0.6-5.6-0.7-8.3c0-0.4-0.7-0.4-0.6,0.1
		c0.1,5.4,0.3,11.6,2.3,16.7C359.7,372.6,360.2,372.5,360.2,372.2z"/>
	<path class="st1" d="M363.9,370.7c-0.5-6.1-1.7-12.1-2.5-18.2c-0.1-0.3-0.6-0.3-0.6,0c0.8,6,1.3,12.2,2.4,18.2
		C363.4,371.2,364,371.1,363.9,370.7z"/>
	<path class="st1" d="M369.7,366.4c-1-6.2-1.8-12.8-3.6-18.8c-0.1-0.2-0.4-0.1-0.4,0.1c0.4,6.2,1.9,12.7,3.2,18.8
		C369,367,369.8,367,369.7,366.4z"/>
	<path class="st1" d="M375,364.7c0-4.3-1-8.7-1.9-12.8c-0.8-3.8-1.6-7.9-3.2-11.5c-0.1-0.2-0.5-0.2-0.5,0.1c0.7,4,2,8,2.8,12
		c0.8,4,1.1,8.2,1.9,12.2C374.3,365.2,375,365.2,375,364.7z"/>
	<path class="st1" d="M381.5,361c-1.1-3.8-3.1-7.3-4.2-11.1c-1.2-4.1-2-8.4-2.4-12.7c0-0.4-0.7-0.4-0.7,0.1
		c0.6,7.8,2.1,17.5,6.6,24.1C381.1,361.6,381.7,361.4,381.5,361z"/>
	<path class="st1" d="M386.3,360.1c-3.7-8.1-6.9-15.5-7.8-24.4c0-0.4-0.7-0.4-0.7,0.1c0.6,8.4,2.6,17.8,7.5,24.8
		C385.8,361,386.6,360.7,386.3,360.1z"/>
	<path class="st1" d="M392.1,355.8c-1.8-3.7-4.1-6.9-5.5-10.7c-1.5-4.1-2.5-8.3-2.9-12.7c-0.1-0.6-0.9-0.5-0.9,0.1
		c0.5,7.9,2.8,18,8.5,23.9C391.7,356.6,392.3,356.2,392.1,355.8z"/>
	<path class="st1" d="M400.7,350.9c-2.9-3.2-6.1-5.8-8.5-9.4c-2.4-3.5-4.2-7.4-5.5-11.4c-0.1-0.4-0.8-0.2-0.6,0.2
		c2.2,7.8,7,17.1,14.3,21.3C400.7,351.9,401,351.2,400.7,350.9z"/>
	<path class="st1" d="M404.6,349.3c-7.4-6.7-13.1-14-16.1-23.6c-0.2-0.5-1-0.3-0.8,0.3c2.8,9.3,8.3,18.3,16.3,24.1
		C404.4,350.5,405,349.8,404.6,349.3z"/>
	<path class="st1" d="M413.1,346.9c-4-3.3-8.2-5.9-11.8-9.7c-4-4.3-7.2-9.1-9.6-14.4c-0.2-0.5-0.9-0.2-0.7,0.3
		c4.1,9.5,11.8,20.4,21.7,24.6C413,347.8,413.5,347.2,413.1,346.9z"/>
	<path class="st1" d="M424.4,344.6c-5.7-2.6-11.2-5.6-16.1-9.6c-5-4.1-8.5-9-12.5-14c-0.2-0.2-0.7-0.1-0.5,0.3
		c5.3,11,17.4,20.2,28.6,24.3C424.5,345.7,425,344.8,424.4,344.6z"/>
	<path class="st1" d="M433.1,337.9c-11.3-3.8-21.4-9.7-29.6-18.4c-0.4-0.4-1,0.3-0.6,0.7c8,8.8,18.3,15.7,29.9,18.8
		C433.3,339.1,433.6,338.1,433.1,337.9z"/>
	<path class="st1" d="M446,329c-12.4,8-23.7-8.2-33.1-13.5c-0.5-0.3-0.9,0.5-0.4,0.8c9.2,5.4,21.9,23,34.2,13.6
		C447.2,329.5,446.6,328.6,446,329z"/>
	<path class="st1" d="M268.5,452.1c-3-1.7-5.4-4.1-6.9-7.3c-0.3-0.6-1.2-0.3-1,0.3c1.4,3.5,3.9,6.3,7.4,7.9
		C268.7,453.3,269.1,452.4,268.5,452.1z"/>
	<path class="st1" d="M281.2,444c-1-2.1-2.4-4.1-3.4-6.3c-1-2.2-1.8-4.4-2.4-6.7c-0.1-0.5-0.9-0.2-0.8,0.3c1.1,4.4,2.8,9.7,5.9,13.1
		C280.8,444.7,281.3,444.3,281.2,444z"/>
	<path class="st1" d="M285.9,437.3c-1.5-4.1-3.6-8-4.9-12.2c-0.2-0.5-1-0.3-0.8,0.3c1.2,4.1,2.5,8.7,4.8,12.4
		C285.2,438.3,286.1,437.9,285.9,437.3z"/>
	<path class="st1" d="M291.6,433c-1.6-4.6-3.6-9.1-5.5-13.6c-0.2-0.6-1.2-0.3-0.9,0.3c1.8,4.5,3.6,9.1,5.7,13.5
		C291.1,433.7,291.8,433.5,291.6,433z"/>
	<path class="st1" d="M490.7,358.5c-26,8.6-53.3,13.2-80.7,13.9c-0.6,0-0.6,1,0.1,1c27.6-0.1,54.9-5,80.9-14.1
		C491.4,359.1,491.2,358.4,490.7,358.5z"/>
	<path class="st1" d="M486.3,366.2c-13.9,4.2-27.4,9.1-41.5,12.3c-14.4,3.3-29.1,5.5-43.8,6.8c-0.8,0.1-0.7,1.3,0.1,1.2
		c14.5-1.1,28.8-3.2,43-6.5c14.2-3.3,29.1-7.1,42.4-13.3C486.8,366.5,486.7,366.1,486.3,366.2z"/>
	<path class="st1" d="M485.8,372.4c-40.1,15-82,23-124.6,25.6c-0.7,0-0.6,1,0.1,1c42.6-1,85.1-10.5,124.7-26
		C486.4,372.9,486.2,372.3,485.8,372.4z"/>
	<path class="st1" d="M471,383.4c-38.8,16.4-80.2,24.5-122.3,25.3c-0.7,0-0.6,1.1,0.1,1.1c41.9,0.7,84.2-8.6,122.5-25.6
		C471.8,384.1,471.5,383.2,471,383.4z"/>
	<path class="st1" d="M467.9,393.4c-43.8,16.3-89,27.7-135.2,34.7c-0.8,0.1-0.7,1.3,0.1,1.2c46.3-5.9,92-18,135.2-35.4
		C468.4,393.9,468.2,393.3,467.9,393.4z"/>
	<path class="st1" d="M459.9,402.1C417,421.4,372,435,325.6,442.2c-0.8,0.1-0.7,1.4,0.1,1.3c46.5-6.3,92.3-20.1,134.4-40.9
		C460.4,402.5,460.2,401.9,459.9,402.1z"/>
	<path class="st1" d="M440.5,416.8c-5.9,2.1-11.5,5-17.3,7.4c-5.4,2.3-10.9,4.5-16.4,6.6c-11.5,4.4-23.2,8.5-35,12.1
		c-11.6,3.6-23.4,6.7-35.2,9.5c-12,2.8-24.3,4.4-36.3,7.3c-0.6,0.2-0.4,1.1,0.2,1.1c12.1-0.8,24.3-3.9,36.1-6.6
		c12-2.8,24-6,35.8-9.6c11.8-3.7,23.5-7.7,35-12.3c5.8-2.3,11.6-4.7,17.4-7.3c5.4-2.4,11-4.6,16-7.7
		C441.1,417.2,440.8,416.7,440.5,416.8z"/>
	<path class="st1" d="M440.6,425.8c-21.7,10.9-44.1,20.5-67.1,28.7c-11.3,4-22.7,7.7-34.2,11.1c-11.5,3.3-23.2,6-34.8,9.2
		c-0.6,0.2-0.4,1.2,0.2,1.1c11.9-2,23.6-5.3,35.1-8.6c11.7-3.4,23.3-7.2,34.8-11.3c22.8-8.3,45-18,66.6-29.2
		C441.9,426.4,441.2,425.4,440.6,425.8z"/>
	<path class="st1" d="M430.6,439c-19.1,9.6-38.2,18.9-58.1,26.8c-9.7,3.9-19.6,7.5-29.5,10.9c-9.9,3.3-20.1,6-30,9.6
		c-0.6,0.2-0.4,1.2,0.2,1c10.3-2,20.4-5.5,30.3-8.9c10.1-3.4,20.2-7.1,30.1-11.1c19.6-8,39.1-16.9,57.4-27.5
		C431.6,439.4,431.1,438.7,430.6,439z"/>
	<path class="st1" d="M416.5,454c-14.4,9.7-29.6,18.2-45.8,24.5c-7.6,3-15.4,5.4-23.2,7.8c-7.5,2.3-15.2,5-21.5,10
		c-0.6,0.5,0,1.5,0.7,1.1c14.2-9,31.3-11.8,46.7-18.2c15.4-6.4,30.2-14.5,43.6-24.4C417.6,454.5,417,453.7,416.5,454z"/>
	<path class="st1" d="M404.7,473.2c-5,2.2-9.8,5.2-14.7,7.7c-5.6,2.9-11.2,5.7-16.8,8.4c-5.3,2.6-10.7,5.1-16,7.5
		c-5,2.2-10.5,4.1-15.1,7c-0.6,0.4-0.1,1.2,0.5,1.1c5.6-1.4,11-4.5,16.3-7c5.4-2.5,10.7-5.1,16-7.7c5-2.5,9.9-5,14.8-7.6
		c5.1-2.7,10.6-5.3,15.4-8.6C405.4,473.6,405.1,473,404.7,473.2z"/>
	<path class="st1" d="M388.6,488.1l-19.1,11.3c-6.3,3.7-13.2,7-19,11.4c-0.6,0.5-0.1,1.7,0.7,1.3c6.5-3,12.5-7.4,18.6-11.2
		c6.5-4,13-8,19.4-11.9C389.8,488.6,389.2,487.7,388.6,488.1z"/>
	<path class="st1" d="M383.8,502.5c-7,4-13.6,8.8-20.3,13.3c-0.7,0.5,0,1.5,0.7,1c6.8-4.3,13.8-8.6,20.2-13.4
		C385.1,503,384.5,502.1,383.8,502.5z"/>
	<path class="st1" d="M328.5,179.9c-5.9,0.6-11.5,3.1-16.1,6.9c-0.6,0.5,0,1.5,0.7,1c4.7-3.5,9.8-5.6,15.5-6.7
		C329.3,180.9,329.3,179.8,328.5,179.9z"/>
	<path class="st1" d="M331.4,187.7c-7.7,2.3-15.5,4.2-23,7c-0.5,0.2-0.2,0.8,0.2,0.7c7.8-1.9,15.4-4.6,23.1-7
		C332.2,188.3,331.9,187.5,331.4,187.7z"/>
	<path class="st1" d="M331.5,196.2c-5.6,1-11.2,3-16.6,4.9c-5.8,2-11.5,4.2-17.1,6.9c-0.6,0.3-0.3,1.2,0.3,0.9
		c5.5-2.2,11-4.5,16.6-6.5c5.6-2,11.4-3.3,17-5.4C332.1,196.8,331.9,196.1,331.5,196.2z"/>
	<path class="st1" d="M326.4,204.8c-13.1,4.1-25.8,9.5-37.6,16.5c-0.6,0.3,0,1.2,0.6,0.9c12-6.6,24.3-12.4,37.2-16.8
		C327,205.3,326.8,204.7,326.4,204.8z"/>
	<path class="st1" d="M325.3,216.4c-7.9,2.7-15.8,5.7-23.5,9c-7.3,3.1-15,6.1-21.7,10.4c-0.5,0.3-0.1,1.1,0.5,0.9
		c7.6-3,14.7-7.1,22.2-10.4c7.5-3.3,15.1-6.3,22.8-9.1C326.1,217,325.8,216.3,325.3,216.4z"/>
	<path class="st1" d="M318.1,230.6c-15.7,6.2-32,12.3-46.8,20.5c-0.5,0.3-0.1,1.1,0.4,0.9c15.7-6.4,31-14,46.7-20.3
		C319.1,231.4,318.8,230.4,318.1,230.6z"/>
	<path class="st1" d="M318.5,241.8c-18.9,6.3-37.8,14.4-54.6,25.3c-0.5,0.4,0,1.1,0.6,0.8c17.6-9.7,35.3-18.6,54.3-25.3
		C319.3,242.4,319,241.6,318.5,241.8z"/>
	<path class="st1" d="M311.4,256.1c-10.8,2.4-21.4,7-31.5,11.4c-9.8,4.3-19.9,9-28.7,15.1c-0.5,0.4,0,1.1,0.5,0.8
		c9.9-5.1,19.5-10.6,29.7-15.2c9.9-4.4,20.1-7.6,30.2-11.5C312,256.6,311.8,256,311.4,256.1z"/>
	<path class="st1" d="M308.1,264.8c-11.1,3.8-21.9,8.5-32.6,13.3c-10.2,4.6-21.1,9.1-30.4,15.4c-0.4,0.3-0.1,1.1,0.4,0.9
		c10.6-4.4,20.6-10.4,31-15.2c10.5-4.8,21.2-9.1,31.9-13.5C308.9,265.4,308.7,264.6,308.1,264.8z"/>
	<path class="st1" d="M306.7,274.9c-10.8,4.2-21.3,9.7-31.8,14.6c-10.6,4.9-21.2,9.8-31.7,14.9c-0.6,0.3-0.3,1.4,0.4,1.1
		c10.9-4.8,21.6-10,32.4-15.1c10.3-4.9,21.1-9.3,31.1-14.9C307.4,275.3,307.1,274.8,306.7,274.9z"/>
	<path class="st1" d="M302.3,286.6c-22.5,10.4-45,21.7-66,35c-0.7,0.4,0,1.4,0.7,1c21.6-12.2,43.2-24.4,65.6-35.1
		C303.2,287.3,302.9,286.3,302.3,286.6z"/>
	<path class="st1" d="M296.1,301.6c-23.1,9.3-45.6,20.7-65.9,35.1c-0.6,0.4,0,1.4,0.6,1c20.9-13.5,42.5-25.7,65.5-35.2
		C297,302.2,296.7,301.3,296.1,301.6z"/>
	<path class="st1" d="M293.8,311.1c-6.1,2.6-12,6-17.9,9.2c-6.2,3.3-12.4,6.7-18.6,10.2c-12.3,7-24.5,14.1-36.3,21.9
		c-0.7,0.4,0,1.4,0.7,1c11.9-7.2,23.8-14.5,35.9-21.4c6-3.4,12-6.7,18-10c6.2-3.3,12.7-6.3,18.7-9.9
		C294.9,311.8,294.4,310.8,293.8,311.1z"/>
	<path class="st1" d="M282.9,327.8c-12.3,5.7-24,13.1-35.6,20c-12,7.2-24,14.5-35.3,22.8c-0.6,0.4,0,1.3,0.6,0.9
		c11.7-7.4,23.1-15.1,34.8-22.3c11.8-7.2,24.1-13.5,35.8-20.7C283.6,328.3,283.3,327.6,282.9,327.8z"/>
	<path class="st1" d="M267.9,342.5c-12,7.2-23.4,15.9-34.7,24.2c-5.5,4-11,8.1-16.4,12.3c-5.4,4.2-11.1,8.2-16.1,13
		c-0.4,0.4,0.2,1.1,0.7,0.8c5.7-3.8,10.9-8.3,16.3-12.5c5.6-4.3,11.2-8.6,16.9-12.8c11.2-8.3,22.8-15.8,34-24.1
		C268.9,342.9,268.4,342.2,267.9,342.5z"/>
	<path class="st1" d="M222.9,394.8c-5.7,3.9-11.2,7.9-16.7,12.1c-2.7,2.1-5.4,4.2-8.1,6.4c-2.3,1.9-5,3.8-6.8,6.1
		c-0.4,0.5,0.2,1.2,0.7,0.8c2.9-1.7,5.4-4.3,8-6.5c2.5-2.1,5-4.1,7.5-6.1c5.2-4.1,10.6-8.1,16-11.9
		C224.3,395.4,223.6,394.4,222.9,394.8z"/>
	<path class="st1" d="M217.5,460.8c-1.9-3.2-3.8-6.4-5.8-9.5c-0.2-0.2-0.5,0-0.4,0.3c1.8,3.2,3.8,6.4,5.7,9.5
		C217.2,461.4,217.6,461.1,217.5,460.8z"/>
	<path class="st1" d="M233,473.6c-5.1-8.7-10.6-17.2-15.9-25.8c-0.3-0.4-0.9,0-0.7,0.5c5.2,8.6,10.3,17.4,15.9,25.8
		C232.6,474.6,233.3,474.1,233,473.6z"/>
	<path class="st1" d="M248.4,489.9c-3-7.2-7.6-14-11.6-20.6c-4.3-7.1-8.8-14-13.4-20.9c-0.2-0.4-0.8,0-0.6,0.4
		c4.4,6.8,8.7,13.6,12.8,20.6c4.1,6.9,7.6,14.3,12.1,21C248,490.6,248.6,490.3,248.4,489.9z"/>
	<path class="st1" d="M259.8,496.9c-1.6-3.8-4.1-7.4-6.2-11c-2.3-4-4.4-8-6.6-12.1c-4.4-8.4-8.6-17-12.4-25.8
		c-0.2-0.4-0.8-0.2-0.6,0.2c3.5,8.3,7.3,16.4,11.3,24.5c2.1,4.1,4.2,8.1,6.4,12.2c2.3,4.1,4.4,8.7,7.3,12.3
		C259.3,497.6,260,497.3,259.8,496.9z"/>
	<path class="st1" d="M268.9,500c-4-8.7-8.1-17.3-12.1-26c-3.9-8.2-7.3-16.8-11.7-24.8c-0.2-0.3-0.7-0.1-0.6,0.3
		c3.3,8.7,7.7,17.1,11.5,25.5c3.9,8.5,7.7,17,11.6,25.5C268,501.3,269.3,500.8,268.9,500z"/>
	<path class="st1" d="M331.1,532.6c-1-3.1-2.9-5.8-4.4-8.6c-1.7-3.2-3.4-6.4-5.1-9.6c-3.5-6.7-7-13.5-10.3-20.3
		c-0.3-0.6-1.2-0.3-0.9,0.3c3,6.4,6.1,12.7,9.2,19c1.6,3.2,3.3,6.4,5,9.6c1.7,3.3,3.2,7.1,5.6,10
		C330.5,533.5,331.3,533.2,331.1,532.6z"/>
	<path class="st1" d="M343.7,536c-3-6.3-6.4-12.1-8.8-18.7c-0.2-0.6-1.2-0.3-1,0.4c2.2,6.4,4.8,13.4,8.9,18.8
		C343,537,343.9,536.6,343.7,536z"/>
</g>
</svg>
