<?xml version="1.0" encoding="utf-8"?>
<!-- Generator: Adobe Illustrator 26.2.1, SVG Export Plug-In . SVG Version: 6.00 Build 0)  -->
<svg version="1.1" id="Layer_1" xmlns="http://www.w3.org/2000/svg" xmlns:xlink="http://www.w3.org/1999/xlink" x="0px" y="0px"
	 viewBox="0 0 155 41" style="enable-background:new 0 0 155 41;" xml:space="preserve">
<style type="text/css">
	.st0{fill:#FFFEFD;}
	.st1{fill-rule:evenodd;clip-rule:evenodd;fill:#FFFEFD;}
	.st2{fill:#051A4C;}
	.st3{fill:#FFFFFF;}
</style>
<g>
	<g>
		<path class="st0" d="M39.3-18c-0.4,0-0.6-0.1-0.8-0.4c-0.2-0.2-0.3-0.6-0.2-1l2.4-15.4c0.1-0.4,0.2-0.7,0.4-0.8
			c0.2-0.2,0.5-0.3,0.8-0.3s0.6,0.1,0.8,0.2c0.2,0.1,0.3,0.3,0.5,0.6l8,13.7h-0.5l2.1-13.4c0.1-0.4,0.2-0.7,0.4-0.9
			c0.2-0.2,0.5-0.3,0.9-0.3s0.6,0.1,0.8,0.4c0.2,0.2,0.2,0.6,0.1,1l-2.4,15.4c0,0.4-0.2,0.7-0.3,0.8c-0.2,0.2-0.4,0.3-0.7,0.3
			s-0.6-0.1-0.8-0.2s-0.4-0.3-0.6-0.6l-8-13.7h0.5l-2.1,13.4c0,0.4-0.2,0.7-0.4,0.9C40-18.1,39.7-18,39.3-18z"/>
		<path class="st0" d="M63-18c-0.7,0-1.5,0-2.2-0.1s-1.4-0.3-2.1-0.5c-0.7-0.2-1.3-0.6-1.8-0.9c-0.2-0.2-0.4-0.3-0.5-0.6
			c-0.1-0.2-0.1-0.5-0.1-0.7s0.1-0.4,0.3-0.6c0.1-0.2,0.3-0.3,0.6-0.3c0.2,0,0.5,0,0.8,0.2c0.8,0.5,1.6,0.8,2.5,1s1.8,0.3,2.7,0.3
			c1.2,0,2.3-0.3,3-0.8c0.8-0.5,1.1-1.2,1.1-2.1c0-0.6-0.2-1.1-0.7-1.6c-0.4-0.4-1.2-0.8-2.3-1l-2.6-0.6c-1.2-0.3-2.1-0.8-2.8-1.5
			s-1.1-1.7-1.1-2.9c0-0.8,0.2-1.6,0.5-2.2c0.3-0.7,0.8-1.2,1.5-1.7c0.6-0.5,1.4-0.8,2.2-1.1c0.8-0.2,1.7-0.4,2.6-0.4
			c0.9,0,1.9,0.1,2.9,0.4s1.9,0.7,2.7,1.3c0.2,0.2,0.4,0.4,0.5,0.6s0.1,0.5,0,0.7c-0.1,0.2-0.1,0.4-0.3,0.5
			c-0.2,0.1-0.4,0.3-0.6,0.3s-0.5-0.1-0.9-0.3c-0.6-0.4-1.3-0.8-2.1-1c-0.8-0.2-1.5-0.3-2.3-0.3c-0.8,0-1.5,0.1-2.1,0.4
			c-0.6,0.2-1.1,0.6-1.5,1c-0.4,0.4-0.5,1-0.5,1.6c0,0.7,0.2,1.3,0.6,1.7c0.4,0.4,1,0.6,1.8,0.8l2.6,0.6c1.5,0.3,2.7,0.9,3.4,1.6
			c0.7,0.8,1.1,1.7,1.1,2.7c0,0.9-0.2,1.7-0.5,2.3c-0.4,0.9-0.9,1.5-1.5,1.9s-1.4,0.8-2.2,1C64.8-18.1,63.9-18,63-18z"/>
		<path class="st0" d="M80.4-18c-1.5,0-2.8-0.3-4-0.9s-2-1.4-2.6-2.6c-0.6-1.1-0.9-2.5-0.9-4.1c0-1.5,0.2-2.9,0.6-4.1
			c0.4-1.3,1-2.4,1.8-3.3s1.7-1.7,2.8-2.2c1.1-0.5,2.4-0.8,3.8-0.8c1.5,0,2.9,0.3,4,0.9c1.1,0.6,2,1.4,2.6,2.6
			c0.6,1.1,0.9,2.5,0.9,4.1c0,1.5-0.2,2.9-0.6,4.2c-0.4,1.3-1,2.4-1.8,3.3c-0.8,1-1.7,1.7-2.8,2.2C83.1-18.2,81.8-18,80.4-18z
			 M80.5-20.2c1.4,0,2.5-0.4,3.4-1.1s1.6-1.7,2.1-2.9c0.5-1.2,0.7-2.6,0.7-4.2c0-1.8-0.4-3.2-1.3-4.1c-0.9-0.9-2.1-1.3-3.6-1.3
			c-1.3,0-2.5,0.4-3.4,1c-0.9,0.7-1.6,1.7-2.1,2.9s-0.7,2.6-0.7,4.2c0,1.8,0.4,3.2,1.3,4.1C77.8-20.7,79-20.2,80.5-20.2z"/>
		<path class="st0" d="M92.7-18c-0.4,0-0.6-0.1-0.8-0.4s-0.3-0.6-0.2-1l2.4-15.4c0.1-0.4,0.2-0.7,0.4-0.8c0.2-0.1,0.5-0.3,0.8-0.3
			s0.6,0.1,0.8,0.2c0.2,0.1,0.3,0.3,0.5,0.6l8,13.7h-0.5l2.1-13.4c0.1-0.4,0.2-0.7,0.4-0.9c0.2-0.2,0.5-0.3,0.9-0.3s0.6,0.1,0.8,0.4
			c0.2,0.2,0.2,0.6,0.2,1l-2.4,15.4c0,0.4-0.2,0.7-0.3,0.8c-0.2,0.2-0.4,0.3-0.8,0.3c-0.3,0-0.6-0.1-0.8-0.2
			c-0.2-0.1-0.4-0.3-0.6-0.6l-8-13.7h0.5L94-19.2c0,0.4-0.2,0.7-0.4,0.9S93.2-18,92.7-18z"/>
		<path class="st0" d="M125.4-18c-1.6,0-3-0.3-4.2-0.9s-2.1-1.4-2.8-2.6c-0.7-1.1-1-2.6-1-4.2c0-1.5,0.2-2.9,0.6-4.2
			c0.4-1.3,1.1-2.4,1.9-3.3s1.8-1.6,3-2.1c1.2-0.5,2.5-0.7,4-0.7c1,0,2,0.1,2.9,0.4c0.9,0.3,1.7,0.6,2.3,1.1
			c0.3,0.2,0.4,0.4,0.5,0.6s0.1,0.5,0,0.7s-0.2,0.4-0.4,0.6c-0.2,0.2-0.4,0.3-0.6,0.3s-0.5-0.1-0.7-0.2c-0.6-0.5-1.2-0.8-1.9-1
			s-1.5-0.3-2.3-0.3c-1.4,0-2.6,0.3-3.5,1c-1,0.7-1.7,1.6-2.3,2.8c-0.5,1.2-0.8,2.6-0.8,4.1c0,1.9,0.5,3.3,1.4,4.2
			c1,0.9,2.4,1.4,4.2,1.4c0.8,0,1.5-0.1,2.1-0.2c0.7-0.1,1.3-0.3,1.9-0.5l-0.7,1.2l1-5.8h-3.2c-0.3,0-0.6-0.1-0.8-0.2
			c-0.2-0.2-0.3-0.4-0.3-0.6c0-0.3,0.1-0.6,0.3-0.8c0.2-0.2,0.5-0.3,0.9-0.3h4.3c0.4,0,0.7,0.1,0.9,0.3s0.3,0.5,0.2,0.9l-1,6.3
			c-0.1,0.3-0.2,0.6-0.3,0.8s-0.4,0.3-0.7,0.5c-0.6,0.2-1.4,0.4-2.3,0.6C127.1-18,126.3-18,125.4-18z"/>
		<path class="st0" d="M142.3-18c-1.1,0-2.1-0.2-3-0.5s-1.6-0.8-2.1-1.4s-1-1.5-1.2-2.4s-0.2-2.1,0-3.4l1.4-9
			c0.1-0.4,0.2-0.7,0.5-0.9c0.2-0.2,0.6-0.3,1-0.3s0.7,0.1,0.9,0.4c0.2,0.2,0.3,0.6,0.2,1.1l-1.4,9c-0.3,1.7-0.1,3.1,0.6,4
			c0.7,0.9,1.8,1.3,3.3,1.3s2.7-0.4,3.6-1.1c0.9-0.8,1.4-2,1.7-3.7l1.5-9.7c0.1-0.4,0.2-0.7,0.5-0.9c0.2-0.2,0.6-0.3,1-0.3
			s0.7,0.1,0.9,0.4c0.2,0.2,0.3,0.6,0.2,1.1l-1.5,9.5c-0.2,1.5-0.7,2.8-1.3,3.9c-0.6,1-1.5,1.8-2.6,2.4
			C145.2-18.2,143.9-18,142.3-18z"/>
	</g>
</g>
<path class="st1" d="M1.7-9.9C6.8-26.7,18.6-38.4,36-45.7c-4.8,8.1-5.3,16.8-4.4,25.7c-2.5-5-2.7-13.1-1.7-19.6
	c-8.5,4.4-19,15.6-22.1,22.4c6.9-4.4,17.8,6.7,29.4,2.5C19.4-7.8,16.2-22.9,1.7-9.9z"/>
<g>
	<path class="st2" d="M13.7,26.7c1.6-3.8,3.8-7,6.4-9.1V27c1.6-0.3,2.7-0.8,3.9-1.4c0.8-0.4,1.6-0.8,2.6-1.1v-16
		c-8.3,0.7-15.1,7.7-18.7,15.9c1.1,0.4,2.1,0.8,2.9,1.2C11.7,26,12.6,26.4,13.7,26.7z"/>
	<path class="st2" d="M17.4,29.2c-4.4,0-6.7-1.1-8.7-2.1c-0.6-0.3-1.1-0.5-1.7-0.8c-1.2,3.3-1.9,6.7-1.9,10h6.5
		c0-1.5,0.2-3.1,0.5-4.5H20v4.5h6.5v-9.4C26.4,27,26.2,27,26,27.1C24,28.1,21.8,29.2,17.4,29.2z"/>
	<path class="st2" d="M41.7,36.3h5.6v-7.1c-3.5-0.1-5.6-0.9-7.3-1.8C41.1,30,41.7,32.8,41.7,36.3z"/>
	<path class="st2" d="M35.7,23.6v-2.2c0.9,0.9,1.6,1.8,2.3,2.7c1.4,0.4,2.4,0.9,3.4,1.4c1.7,0.8,3.1,1.5,5.9,1.6V14.1h-4.7v7.9
		c-1.2-2.6-3.7-5.7-6.8-7.9h-5.3v9.5c0.7-0.1,1.4-0.1,2.2-0.1C33.8,23.4,34.8,23.5,35.7,23.6z"/>
	<path class="st2" d="M30.5,25.6v10.7h5.2V25.7c-0.8-0.2-1.8-0.3-3-0.3C31.8,25.5,31.1,25.5,30.5,25.6z"/>
	<path class="st2" d="M53.5,28.5l-3.4,7.9h6.4l4.2-10.6c-1.6,0.3-2.7,0.8-3.9,1.4C55.8,27.6,54.8,28.1,53.5,28.5z"/>
	<path class="st2" d="M62.8,20.1h-6.3l2.9-6.1h-6.2l-3.5,7.8h6.7l-1.5,3.6c1.7-0.8,3.6-1.7,6.8-2L62.8,20.1z"/>
	<path class="st2" d="M69.8,18.8h5.8v8.1c0.8,0.2,1.8,0.3,3,0.3c0.9,0,1.6-0.1,2.3-0.2v-13H64.5v9.4c2.3,0.1,3.9,0.6,5.3,1.1V18.8z"
		/>
	<path class="st2" d="M75.6,29v2.3h-5.8v-4.3c-1.5-0.7-2.9-1.4-5.3-1.6v10.8h16.4v-7.2c-0.7,0.1-1.4,0.1-2.3,0.1
		C77.5,29.2,76.5,29.2,75.6,29z"/>
	<path class="st2" d="M89.3,24v-2.5c0.7,0.7,1.3,1.4,1.9,2.2c0.8-0.1,1.8-0.2,2.8-0.2c3.2,0,5.2,0.6,6.9,1.3V14.1h-4.7v7.9
		c-1.2-2.6-3.7-5.7-6.8-7.9h-5.3v12c0.4-0.2,0.8-0.4,1.2-0.6C86.4,25,87.7,24.4,89.3,24z"/>
	<path class="st2" d="M94,25.5c-0.5,0-1,0-1.5,0.1c1.8,3,2.8,6.4,2.8,10.8h5.6v-9.1c-0.1,0-0.2-0.1-0.3-0.1
		C98.8,26.2,97.2,25.5,94,25.5z"/>
	<path class="st2" d="M84.1,28.5v7.8h5.2V26.3c-0.7,0.3-1.3,0.6-1.9,0.9C86.4,27.6,85.4,28.1,84.1,28.5z"/>
	<path class="st2" d="M121.7,23.6c2.3-4.1,5.8-7.3,10.4-8.1V8.4c-8.8,0.8-16,9.2-19.1,18.3c1.1-0.3,2-0.7,2.9-1.2
		C117.4,24.8,119.1,24,121.7,23.6z"/>
	<path class="st2" d="M126.1,25.5v4.3h-6.7c0.3-1.3,0.7-2.6,1.2-3.8c-0.9,0.3-1.7,0.7-2.6,1.1c-1.5,0.7-3.1,1.5-5.7,1.9
		c-0.6,2.5-1,4.9-1,7.3h21.5v-8.5c-0.5-0.2-1.1-0.5-1.5-0.7C129.8,26.4,128.4,25.7,126.1,25.5z"/>
	<path class="st2" d="M141.6,27.1v-13h-5.4v12.7c1,0.3,2.2,0.5,3.8,0.5C140.6,27.2,141.1,27.2,141.6,27.1z"/>
	<path class="st2" d="M147.4,27.8v3.4h-5.8v-2c-0.5,0-1,0.1-1.6,0.1c-1.5,0-2.7-0.1-3.8-0.3v7.4h16.5V25.7c-1.6,0.3-2.8,0.8-4,1.4
		C148.3,27.3,147.8,27.6,147.4,27.8z"/>
	<path class="st2" d="M152.7,14.1h-5.3v11.1c1.4-0.7,3-1.3,5.3-1.6V14.1z"/>
</g>
<g>
	<path class="st3" d="M12.3,24.9c1.6-3.8,3.8-7,6.4-9.1v9.3c1.6-0.3,2.7-0.8,3.9-1.4c0.8-0.4,1.6-0.8,2.6-1.1v-16
		C16.9,7.2,10,14.2,6.4,22.4c1.1,0.4,2.1,0.8,2.9,1.2C10.3,24.1,11.2,24.6,12.3,24.9z"/>
	<path class="st3" d="M16,27.4c-4.4,0-6.7-1.1-8.7-2.1c-0.6-0.3-1.1-0.5-1.7-0.8c-1.2,3.3-1.9,6.7-1.9,10h6.5c0-1.5,0.2-3.1,0.5-4.5
		h7.9v4.5h6.5V25c-0.2,0.1-0.3,0.2-0.5,0.2C22.6,26.3,20.4,27.4,16,27.4z"/>
	<path class="st3" d="M40.3,34.5h5.6v-7.1c-3.5-0.1-5.6-0.9-7.3-1.8C39.7,28.1,40.3,30.9,40.3,34.5z"/>
	<path class="st3" d="M34.3,21.8v-2.2c0.9,0.9,1.6,1.8,2.3,2.7c1.4,0.4,2.4,0.9,3.4,1.4c1.7,0.8,3.1,1.5,5.9,1.6V12.2h-4.7v7.9
		c-1.2-2.6-3.7-5.7-6.8-7.9h-5.3v9.5c0.7-0.1,1.4-0.1,2.2-0.1C32.4,21.6,33.4,21.6,34.3,21.8z"/>
	<path class="st3" d="M29.1,23.8v10.7h5.2V23.9c-0.8-0.2-1.8-0.3-3-0.3C30.4,23.6,29.7,23.7,29.1,23.8z"/>
	<path class="st3" d="M52.1,26.6l-3.4,7.9h6.4l4.2-10.6c-1.6,0.3-2.7,0.8-3.9,1.4C54.4,25.7,53.4,26.2,52.1,26.6z"/>
	<path class="st3" d="M61.5,18.3h-6.3l2.9-6.1h-6.2L48.2,20h6.7l-1.5,3.6c1.7-0.8,3.6-1.7,6.8-2L61.5,18.3z"/>
	<path class="st3" d="M68.4,17h5.8V25c0.8,0.2,1.8,0.3,3,0.3c0.9,0,1.6-0.1,2.3-0.2v-13H63.1v9.4c2.3,0.1,3.9,0.6,5.3,1.1V17z"/>
	<path class="st3" d="M74.2,27.2v2.3h-5.8v-4.3c-1.5-0.7-2.9-1.4-5.3-1.6v10.8h16.4v-7.2c-0.7,0.1-1.4,0.1-2.3,0.1
		C76.1,27.4,75.1,27.3,74.2,27.2z"/>
	<path class="st3" d="M87.9,22.1v-2.5c0.7,0.7,1.3,1.4,1.9,2.2c0.8-0.1,1.8-0.2,2.8-0.2c3.2,0,5.2,0.6,6.9,1.3V12.2h-4.7v7.9
		c-1.2-2.6-3.7-5.7-6.8-7.9h-5.3v12c0.4-0.2,0.8-0.4,1.2-0.6C85,23.1,86.3,22.5,87.9,22.1z"/>
	<path class="st3" d="M92.6,23.6c-0.5,0-1,0-1.5,0.1c1.8,3,2.8,6.4,2.8,10.8h5.6v-9.1c-0.1,0-0.2-0.1-0.3-0.1
		C97.4,24.4,95.9,23.6,92.6,23.6z"/>
	<path class="st3" d="M82.7,26.6v7.8h5.2V24.4c-0.7,0.3-1.3,0.6-1.9,0.9C85,25.7,84,26.2,82.7,26.6z"/>
	<path class="st3" d="M120.3,21.7c2.3-4.1,5.8-7.3,10.4-8.1V6.5c-8.8,0.8-16,9.2-19.1,18.3c1.1-0.3,2-0.7,2.9-1.2
		C116,22.9,117.7,22.1,120.3,21.7z"/>
	<path class="st3" d="M124.7,23.7V28H118c0.3-1.3,0.7-2.6,1.2-3.8c-0.9,0.3-1.7,0.7-2.6,1.1c-1.5,0.7-3.1,1.5-5.7,1.9
		c-0.6,2.5-1,4.9-1,7.3h21.5V26c-0.5-0.2-1.1-0.5-1.5-0.7C128.4,24.5,127,23.9,124.7,23.7z"/>
	<path class="st3" d="M140.2,25.2v-13h-5.4v12.7c1,0.3,2.2,0.5,3.8,0.5C139.2,25.3,139.7,25.3,140.2,25.2z"/>
	<path class="st3" d="M146,25.9v3.4h-5.8v-2c-0.5,0-1,0.1-1.6,0.1c-1.5,0-2.7-0.1-3.8-0.3v7.4h16.5V23.8c-1.6,0.3-2.8,0.8-4,1.4
		C146.9,25.5,146.4,25.7,146,25.9z"/>
	<path class="st3" d="M151.3,12.2H146v11.1c1.4-0.7,3-1.3,5.3-1.6V12.2z"/>
</g>
</svg>
