<?xml version="1.0" encoding="utf-8"?>
<!-- Generator: Adobe Illustrator 26.2.1, SVG Export Plug-In . SVG Version: 6.00 Build 0)  -->
<svg version="1.1" id="Layer_1" xmlns="http://www.w3.org/2000/svg" xmlns:xlink="http://www.w3.org/1999/xlink" x="0px" y="0px"
	 viewBox="0 0 155 41" style="enable-background:new 0 0 155 41;" xml:space="preserve">
<style type="text/css">
	.st0{fill:#FFFEFD;}
	.st1{fill-rule:evenodd;clip-rule:evenodd;fill:#FFFEFD;}
</style>
<g>
	<g>
		<path class="st0" d="M39.3,30.3c-0.4,0-0.6-0.1-0.8-0.4c-0.2-0.2-0.3-0.6-0.2-1l2.4-15.4c0.1-0.4,0.2-0.7,0.4-0.8
			c0.2-0.2,0.5-0.3,0.8-0.3c0.3,0,0.6,0.1,0.8,0.2c0.2,0.1,0.3,0.3,0.5,0.6l8,13.7h-0.5l2.1-13.4c0.1-0.4,0.2-0.7,0.4-0.9
			c0.2-0.2,0.5-0.3,0.9-0.3c0.4,0,0.6,0.1,0.8,0.4c0.2,0.2,0.2,0.6,0.1,1l-2.4,15.4c0,0.4-0.2,0.7-0.3,0.8c-0.2,0.2-0.4,0.3-0.7,0.3
			c-0.3,0-0.6-0.1-0.8-0.2c-0.2-0.1-0.4-0.3-0.6-0.6l-8-13.7h0.5l-2.1,13.4c0,0.4-0.2,0.7-0.4,0.9C40,30.2,39.7,30.3,39.3,30.3z"/>
		<path class="st0" d="M63,30.3c-0.7,0-1.5,0-2.2-0.1c-0.7-0.1-1.4-0.3-2.1-0.5c-0.7-0.2-1.3-0.6-1.8-0.9c-0.2-0.2-0.4-0.3-0.5-0.6
			c-0.1-0.2-0.1-0.5-0.1-0.7c0-0.2,0.1-0.4,0.3-0.6c0.1-0.2,0.3-0.3,0.6-0.3c0.2,0,0.5,0,0.8,0.2c0.8,0.5,1.6,0.8,2.5,1
			c0.9,0.2,1.8,0.3,2.7,0.3c1.2,0,2.3-0.3,3-0.8c0.8-0.5,1.1-1.2,1.1-2.1c0-0.6-0.2-1.1-0.7-1.6c-0.4-0.4-1.2-0.8-2.3-1l-2.6-0.6
			c-1.2-0.3-2.1-0.8-2.8-1.5c-0.7-0.7-1.1-1.7-1.1-2.9c0-0.8,0.2-1.6,0.5-2.2c0.3-0.7,0.8-1.2,1.5-1.7c0.6-0.5,1.4-0.8,2.2-1.1
			c0.8-0.2,1.7-0.4,2.6-0.4c0.9,0,1.9,0.1,2.9,0.4s1.9,0.7,2.7,1.3c0.2,0.2,0.4,0.4,0.5,0.6c0.1,0.2,0.1,0.5,0,0.7
			c-0.1,0.2-0.1,0.4-0.3,0.5S70,16,69.8,16c-0.2,0-0.5-0.1-0.9-0.3c-0.6-0.4-1.3-0.8-2.1-1c-0.8-0.2-1.5-0.3-2.3-0.3
			c-0.8,0-1.5,0.1-2.1,0.4c-0.6,0.2-1.1,0.6-1.5,1c-0.4,0.4-0.5,1-0.5,1.6c0,0.7,0.2,1.3,0.6,1.7c0.4,0.4,1,0.6,1.8,0.8l2.6,0.6
			c1.5,0.3,2.7,0.9,3.4,1.6c0.7,0.8,1.1,1.7,1.1,2.7c0,0.9-0.2,1.7-0.5,2.3C69,28,68.5,28.6,67.9,29c-0.6,0.4-1.4,0.8-2.2,1
			C64.8,30.2,63.9,30.3,63,30.3z"/>
		<path class="st0" d="M80.4,30.3c-1.5,0-2.8-0.3-4-0.9s-2-1.4-2.6-2.6c-0.6-1.1-0.9-2.5-0.9-4.1c0-1.5,0.2-2.9,0.6-4.1
			c0.4-1.3,1-2.4,1.8-3.3c0.8-0.9,1.7-1.7,2.8-2.2c1.1-0.5,2.4-0.8,3.8-0.8c1.5,0,2.9,0.3,4,0.9s2,1.4,2.6,2.6
			c0.6,1.1,0.9,2.5,0.9,4.1c0,1.5-0.2,2.9-0.6,4.2c-0.4,1.3-1,2.4-1.8,3.3c-0.8,1-1.7,1.7-2.8,2.2C83.1,30.1,81.8,30.3,80.4,30.3z
			 M80.5,28.1c1.4,0,2.5-0.4,3.4-1.1s1.6-1.7,2.1-2.9c0.5-1.2,0.7-2.6,0.7-4.2c0-1.8-0.4-3.2-1.3-4.1c-0.9-0.9-2.1-1.3-3.6-1.3
			c-1.3,0-2.5,0.4-3.4,1c-0.9,0.7-1.6,1.7-2.1,2.9c-0.5,1.2-0.7,2.6-0.7,4.2c0,1.8,0.4,3.2,1.3,4.1C77.8,27.6,79,28.1,80.5,28.1z"/>
		<path class="st0" d="M92.7,30.3c-0.4,0-0.6-0.1-0.8-0.4s-0.3-0.6-0.2-1l2.4-15.4c0.1-0.4,0.2-0.7,0.4-0.8s0.5-0.3,0.8-0.3
			c0.3,0,0.6,0.1,0.8,0.2s0.3,0.3,0.5,0.6l8,13.7h-0.5l2.1-13.4c0.1-0.4,0.2-0.7,0.4-0.9c0.2-0.2,0.5-0.3,0.9-0.3
			c0.4,0,0.6,0.1,0.8,0.4c0.2,0.2,0.2,0.6,0.2,1l-2.4,15.4c0,0.4-0.2,0.7-0.3,0.8c-0.2,0.2-0.4,0.3-0.8,0.3c-0.3,0-0.6-0.1-0.8-0.2
			c-0.2-0.1-0.4-0.3-0.6-0.6l-8-13.7h0.5l-2.1,13.4c0,0.4-0.2,0.7-0.4,0.9S93.2,30.3,92.7,30.3z"/>
		<path class="st0" d="M125.4,30.3c-1.6,0-3-0.3-4.2-0.9c-1.2-0.6-2.1-1.4-2.8-2.6c-0.7-1.1-1-2.6-1-4.2c0-1.5,0.2-2.9,0.6-4.2
			c0.4-1.3,1.1-2.4,1.9-3.3c0.8-0.9,1.8-1.6,3-2.1c1.2-0.5,2.5-0.7,4-0.7c1,0,2,0.1,2.9,0.4c0.9,0.3,1.7,0.6,2.3,1.1
			c0.3,0.2,0.4,0.4,0.5,0.6s0.1,0.5,0,0.7c-0.1,0.2-0.2,0.4-0.4,0.6c-0.2,0.2-0.4,0.3-0.6,0.3s-0.5-0.1-0.7-0.2
			c-0.6-0.5-1.2-0.8-1.9-1c-0.7-0.2-1.5-0.3-2.3-0.3c-1.4,0-2.6,0.3-3.5,1c-1,0.7-1.7,1.6-2.3,2.8c-0.5,1.2-0.8,2.6-0.8,4.1
			c0,1.9,0.5,3.3,1.4,4.2c1,0.9,2.4,1.4,4.2,1.4c0.8,0,1.5-0.1,2.1-0.2c0.7-0.1,1.3-0.3,1.9-0.5l-0.7,1.2l1-5.8h-3.2
			c-0.3,0-0.6-0.1-0.8-0.2c-0.2-0.2-0.3-0.4-0.3-0.6c0-0.3,0.1-0.6,0.3-0.8c0.2-0.2,0.5-0.3,0.9-0.3h4.3c0.4,0,0.7,0.1,0.9,0.3
			s0.3,0.5,0.2,0.9l-1,6.3c-0.1,0.3-0.2,0.6-0.3,0.8s-0.4,0.3-0.7,0.5c-0.6,0.2-1.4,0.4-2.3,0.6C127.1,30.3,126.3,30.3,125.4,30.3z"
			/>
		<path class="st0" d="M142.3,30.3c-1.1,0-2.1-0.2-3-0.5c-0.9-0.3-1.6-0.8-2.1-1.4s-1-1.5-1.2-2.4s-0.2-2.1,0-3.4l1.4-9
			c0.1-0.4,0.2-0.7,0.5-0.9c0.2-0.2,0.6-0.3,1-0.3c0.4,0,0.7,0.1,0.9,0.4c0.2,0.2,0.3,0.6,0.2,1.1l-1.4,9c-0.3,1.7-0.1,3.1,0.6,4
			c0.7,0.9,1.8,1.3,3.3,1.3c1.5,0,2.7-0.4,3.6-1.1c0.9-0.8,1.4-2,1.7-3.7l1.5-9.7c0.1-0.4,0.2-0.7,0.5-0.9c0.2-0.2,0.6-0.3,1-0.3
			c0.4,0,0.7,0.1,0.9,0.4c0.2,0.2,0.3,0.6,0.2,1.1l-1.5,9.5c-0.2,1.5-0.7,2.8-1.3,3.9c-0.6,1-1.5,1.8-2.6,2.4
			C145.2,30.1,143.9,30.3,142.3,30.3z"/>
	</g>
</g>
<path class="st1" d="M1.7,38.4C6.8,21.6,18.6,9.9,36,2.6c-4.8,8.1-5.3,16.8-4.4,25.7c-2.5-5-2.7-13.1-1.7-19.6
	c-8.5,4.4-19,15.6-22.1,22.4c6.9-4.4,17.8,6.7,29.4,2.5C19.4,40.5,16.2,25.4,1.7,38.4z"/>
</svg>
