<?xml version="1.0" encoding="utf-8"?>
<!-- Generator: Adobe Illustrator 26.2.1, SVG Export Plug-In . SVG Version: 6.00 Build 0)  -->
<svg version="1.1" id="Layer_1" xmlns="http://www.w3.org/2000/svg" xmlns:xlink="http://www.w3.org/1999/xlink" x="0px" y="0px"
	 viewBox="0 0 204 204" style="enable-background:new 0 0 204 204;" xml:space="preserve">
<style type="text/css">
	.st0{fill:none;}
	.st1{fill:url(#SVGID_1_);}
	.st2{fill:url(#SVGID_00000123407329510165741960000000182895087064613255_);}
	.st3{fill:url(#SVGID_00000003093997468657338820000017261140013275505807_);}
	.st4{fill:url(#SVGID_00000008871552791392298100000002725939507422621857_);}
	.st5{fill:url(#SVGID_00000018918399982172718780000006181530621613245337_);}
	.st6{fill:url(#SVGID_00000103255586131603736760000015422899335862617251_);}
	.st7{fill:url(#SVGID_00000098213209906303397100000015637341093637557642_);}
</style>
<g>
	<path class="st0" d="M85.8,73.1c0.9,1.1,2.1,1.9,3.4,2.1c0.2,0,0.4,0,0.6,0c1,0,2-0.3,2.8-1c0.7-0.6,1.2-1.2,1.3-1.8
		c0.2-1.5-2-2.5-4.1-2.8c-1.7-0.2-3.3,0-4.1,0.6c-0.4,0.3-0.6,0.7-0.6,1L85,71.7l0.1,0.1C85.2,72.3,85.6,72.8,85.8,73.1z"/>
	<path class="st0" d="M145.7,68.7l-0.1-0.1L145.7,68.7c-0.9-0.4-2.2-0.4-3.4-0.3c-1.6,0.2-3,0.8-3.5,1.5c-0.3,0.3-0.3,0.6-0.2,0.8
		c0.1,0.9,1.8,2.5,3.7,2.5c0.2,0,0.3,0,0.5,0c1.6-0.2,3.1-1.6,3.6-2.7l0.3,0.3l-0.2-1.2C146.5,69.3,146.2,68.9,145.7,68.7z"/>
	<linearGradient id="SVGID_1_" gradientUnits="userSpaceOnUse" x1="73.1185" y1="102.8653" x2="150.3807" y2="102.8653">
		<stop  offset="0" style="stop-color:#AA367C"/>
		<stop  offset="1" style="stop-color:#4A2FBD"/>
	</linearGradient>
	<path class="st1" d="M149.4,116.9c-0.3-0.5-0.8-1-1.2-1.6c-1.5-1.9-3.6-4.5-5.2-8.3c-0.3-0.7-1-1.9-1.9-3.6
		c-4.9-8.8-15.1-27.1-8.5-36.5c3-4.3,9-6.1,17.8-5.2c-2.8-8.1-15.4-32.5-44.3-32.9c-8.8-0.2-16,2.6-21.5,8
		C76,45.5,73.7,59.3,73.1,66.6c3.8-2.1,8.9-3.9,12.6-4.3c8-0.8,13.3,2.7,14.9,10c4.3,19.5,0.4,28.1-2.5,34.4c-0.5,1.2-1,2.3-1.4,3.4
		l-0.4,1c-0.8,2.2-1.6,4.3-2,6.1c2.1-0.5,3.8,0.2,4.7,0.6c2.4,1,4.4,3.4,5.2,6.2c0.1,0.4,0.2,0.8,0.2,1.2c0.1,0.2,0.1,0.4,0.1,0.6
		c0,0,0,0.1,0,0.1c0,0.1,0,0.1,0,0.2c-0.5,19.6,0.2,37.3,1.8,41.2c2.4,6.1,6.1,11.4,16.6,9.2c10.1-2.2,13.6-5.8,15.3-15.5l4.1-32.8
		C142.1,119.5,146.8,117.7,149.4,116.9z"/>
	
		<linearGradient id="SVGID_00000147935420492950696300000000839009573618531508_" gradientUnits="userSpaceOnUse" x1="147.1154" y1="125.1067" x2="173.2155" y2="125.1067">
		<stop  offset="0" style="stop-color:#AA367C"/>
		<stop  offset="1" style="stop-color:#4A2FBD"/>
	</linearGradient>
	<path style="fill:url(#SVGID_00000147935420492950696300000000839009573618531508_);" d="M152.8,121.5c-0.2-0.2-0.5-0.3-0.7-0.5
		c-0.4,0.1-0.7,0.2-1,0.3c-2.2,0.6-4.3,1.2-4,6.9c1.4,1.5,13,1.3,19.4-1.6c3.1-1.5,5.4-3.1,6.7-4.3c0,0,0,0-0.1,0
		C163.4,124.3,156.6,124.1,152.8,121.5z"/>
	
		<linearGradient id="SVGID_00000152978699963109125570000016525306271488903815_" gradientUnits="userSpaceOnUse" x1="135.0785" y1="86.9117" x2="150.8378" y2="86.9117">
		<stop  offset="0" style="stop-color:#AA367C"/>
		<stop  offset="1" style="stop-color:#4A2FBD"/>
	</linearGradient>
	<path style="fill:url(#SVGID_00000152978699963109125570000016525306271488903815_);" d="M150.8,66.4c-5.5-0.7-11.9-0.5-14.4,3.1
		c-4.9,7,4.7,24.2,8.8,31.5c1.1,1.9,1.8,3.3,2.2,4.1c0.4,0.9,0.8,1.8,1.2,2.5c2.8-6,2.1-12,1.4-17.9c-0.4-2.9-0.7-5.9-0.6-8.8
		c0.1-3,0.5-5.4,0.8-7.8C150.6,70.9,150.8,68.7,150.8,66.4z M146.4,70.5c-0.5,1.1-1.9,2.5-3.6,2.7c-0.2,0-0.3,0-0.5,0
		c-2,0-3.6-1.6-3.7-2.5c0-0.2,0-0.5,0.2-0.8c0.5-0.7,1.9-1.3,3.5-1.5c1.2-0.2,2.5-0.1,3.3,0.2l0-0.1l0.1,0.1
		c0.5,0.2,0.8,0.5,0.8,0.9l0.2,1.2L146.4,70.5z"/>
	
		<linearGradient id="SVGID_00000030455509909585011410000002587231030459560077_" gradientUnits="userSpaceOnUse" x1="75.2134" y1="128.7501" x2="99.9027" y2="128.7501">
		<stop  offset="0" style="stop-color:#AA367C"/>
		<stop  offset="1" style="stop-color:#4A2FBD"/>
	</linearGradient>
	<path style="fill:url(#SVGID_00000030455509909585011410000002587231030459560077_);" d="M97.3,122.1c-1.3-0.5-2-0.8-3.5,0.9
		l-0.3-0.2c0,0,0,0,0,0l0.2,0.2c-1,1.2-1.8,2.1-2.4,2.9c-2.9,3.7-4.2,4.9-12.7,6.6c-1.8,0.4-2.8,0.7-3.3,1c0.7,0.5,1.8,1,3.1,1.4
		c6.3,1.6,15.1,1.7,21.1-6.7c0.7-1,0.5-2.3,0.3-3C99.3,123.8,98.3,122.5,97.3,122.1z"/>
	
		<linearGradient id="SVGID_00000013184811435466700070000008224635650535361184_" gradientUnits="userSpaceOnUse" x1="30.1877" y1="81.3152" x2="81.6716" y2="81.3152">
		<stop  offset="0" style="stop-color:#AA367C"/>
		<stop  offset="1" style="stop-color:#4A2FBD"/>
	</linearGradient>
	<path style="fill:url(#SVGID_00000013184811435466700070000008224635650535361184_);" d="M74.3,114c-5.2-5.4-7.5-12.9-6.5-20.5
		c1.1-8.2,0.7-15.5,0.5-19.4c-0.1-1.1-0.1-1.9-0.1-2.4c0,0,0,0,0,0c0-1.7-0.3-24.6,13.1-38.2c0.1-0.1,0.3-0.2,0.4-0.4
		c-8.2-2.7-28.6-7.9-41,0.9c-7.6,5.4-11.1,15.5-10.4,29.9c0.6,12.5,12.8,65,25.8,69.4c0.9,0.3,3.5,1.2,7.3-3.4
		c5.4-6.4,10.4-12,12.7-14.4C75.4,115,74.8,114.6,74.3,114z"/>
	
		<linearGradient id="SVGID_00000158712084119454207740000011626959526525020605_" gradientUnits="userSpaceOnUse" x1="125.8629" y1="70.0328" x2="173.8123" y2="70.0328">
		<stop  offset="0" style="stop-color:#AA367C"/>
		<stop  offset="1" style="stop-color:#4A2FBD"/>
	</linearGradient>
	<path style="fill:url(#SVGID_00000158712084119454207740000011626959526525020605_);" d="M155.7,63.6c0,0.4-0.1,0.7-0.1,1
		c0.1,3.4-0.3,6.4-0.7,9.2c-0.3,2.2-0.7,4.6-0.8,7.3c-0.1,2.5,0.2,5.3,0.6,8.1c0.8,7,1.7,14.9-3.1,22.8c0.1,0.1,0.2,0.2,0.3,0.3
		c0.2,0.3,0.4,0.5,0.6,0.7c18.7-29.4,25.2-63.4,19.3-70.9c-13.9-17.8-35.5-16-45.8-13.9C147.2,37.7,155.4,59.9,155.7,63.6z"/>
	
		<linearGradient id="SVGID_00000136393237731358495660000010136389241402094980_" gradientUnits="userSpaceOnUse" x1="72.2679" y1="91.4672" x2="97.7821" y2="91.4672">
		<stop  offset="0" style="stop-color:#AA367C"/>
		<stop  offset="1" style="stop-color:#4A2FBD"/>
	</linearGradient>
	<path style="fill:url(#SVGID_00000136393237731358495660000010136389241402094980_);" d="M77.7,110.7c3.3,3.4,7.6,5.3,12,5.3
		c0.5-2.1,1.3-4.2,2.2-6.6l0.4-1c0.4-1.2,1-2.4,1.6-3.7c2.7-6,6.1-13.5,2.2-31.4c-0.8-3.5-2.6-5.5-5.5-6.2
		c-6.5-1.5-15.6,3.4-17.6,5.1c0,0.4,0,0.9,0.1,1.4c0.2,4.1,0.7,11.6-0.5,20.4C71.6,100.3,73.5,106.4,77.7,110.7z M85.1,71.2
		c0-0.3,0.2-0.7,0.6-1c0.8-0.6,2.3-0.8,4.1-0.6c2.1,0.3,4.3,1.3,4.1,2.8c-0.1,0.6-0.6,1.3-1.3,1.8c-0.8,0.6-1.8,1-2.8,1
		c-0.2,0-0.4,0-0.6,0c-1.2-0.2-2.5-1-3.4-2.1c-0.2-0.3-0.6-0.8-0.7-1.3L85,71.7L85.1,71.2z"/>
</g>
</svg>
