<?xml version="1.0" encoding="utf-8"?>
<!-- Generator: Adobe Illustrator 26.2.1, SVG Export Plug-In . SVG Version: 6.00 Build 0)  -->
<svg version="1.1" id="Layer_1" xmlns="http://www.w3.org/2000/svg" xmlns:xlink="http://www.w3.org/1999/xlink" x="0px" y="0px"
	 viewBox="0 0 204 204" style="enable-background:new 0 0 204 204;" xml:space="preserve">
<style type="text/css">
	.st0{fill:url(#SVGID_1_);}
</style>
<g>
	<radialGradient id="SVGID_1_" cx="101.6409" cy="102.0674" r="74.476" gradientUnits="userSpaceOnUse">
		<stop  offset="0" style="stop-color:#AA367C"/>
		<stop  offset="1" style="stop-color:#4A2FBD"/>
	</radialGradient>
	<path class="st0" d="M101.7,27.5C62,27.6,27.2,61,27.2,102.2c0.1,40,33.6,74.3,74.4,74.4c41,0.1,75.5-34.4,74.4-74.5
		C177.1,61,141.6,27.5,101.7,27.5z M95.9,108c0.2,8.6,0,17.2,0,25.9c0,1.2,0,2.4,0,4.4c-4.6-2.6-8.4-4.8-12.3-7c-3.5-2-6.9-4-10.4-6
		c-3.7-2.1-5.7-5.1-5.7-9.4c0-8.5,0-17-0.1-25.5c0-4.2,2-7.2,5.5-9.2c8-4.6,16-9.3,24.2-13.5c2-1,5.3-1.6,7.1-0.7
		c8.5,4.3,16.7,9.2,25.7,14.3c-4.3,2.4-7.7,4.4-11.1,6.4c-5.5,3.1-11,6.3-16.6,9.4C97.9,99.4,95.8,102.8,95.9,108z M134.3,117.7
		c-0.1,2-1.4,4.7-3,5.7c-7.9,5.1-16.2,9.7-25.1,15c0-11.3,0-21.4,0.1-31.5c0-0.8,0.7-2,1.4-2.4c8.7-5.1,17.5-10.2,26.1-15.2
		c0.4,0.3,0.8,0.5,0.8,0.6C134.4,99.2,134.6,108.4,134.3,117.7z"/>
</g>
</svg>
