<?xml version="1.0" encoding="utf-8"?>
<!-- Generator: Adobe Illustrator 26.2.1, SVG Export Plug-In . SVG Version: 6.00 Build 0)  -->
<svg version="1.1" id="Layer_1" xmlns="http://www.w3.org/2000/svg" xmlns:xlink="http://www.w3.org/1999/xlink" x="0px" y="0px"
	 viewBox="0 0 204 204" style="enable-background:new 0 0 204 204;" xml:space="preserve">
<style type="text/css">
	.st0{fill:url(#SVGID_1_);}
	.st1{fill:url(#SVGID_00000030460014475767633230000010106683937096341426_);}
	.st2{fill:url(#SVGID_00000154395760504408168170000013136109911029978274_);}
	.st3{fill:url(#SVGID_00000145038981441361676670000014283123788967587223_);}
	.st4{fill:url(#SVGID_00000071555637159167702980000010971136643843614122_);}
	.st5{fill:url(#SVGID_00000004539423248054095400000006588756614107988106_);}
	.st6{fill:url(#SVGID_00000053515594387059720650000002704077100744247200_);}
</style>
<g>
	<linearGradient id="SVGID_1_" gradientUnits="userSpaceOnUse" x1="78.4961" y1="53.7494" x2="140.2538" y2="53.7494">
		<stop  offset="0" style="stop-color:#AA367C"/>
		<stop  offset="1" style="stop-color:#4A2FBD"/>
	</linearGradient>
	<path class="st0" d="M78.9,35.6c35.3,16.1,58.9,40.8,58.9,40.8c0.8,0.5,1.9,0.1,2-0.9c0.8-13.8,0.5-25.6,0.3-31.3
		c0-1.1-0.3-2-0.7-2.7c-10.9-6.7-23.7-10.6-37.4-10.6c-8.2,0-16.1,1.4-23.5,4C78.5,35.2,78.6,35.5,78.9,35.6z"/>
	
		<linearGradient id="SVGID_00000000187412465735943250000016164962429799087026_" gradientUnits="userSpaceOnUse" x1="105.4523" y1="139.5732" x2="171.7083" y2="139.5732">
		<stop  offset="0" style="stop-color:#AA367C"/>
		<stop  offset="1" style="stop-color:#4A2FBD"/>
	</linearGradient>
	<path style="fill:url(#SVGID_00000000187412465735943250000016164962429799087026_);" d="M170.6,115
		c-31.5,22.5-64.4,30.8-64.4,30.8c-0.9,0.4-1,1.6-0.2,2.2c14.3,11,27.3,15.7,27.3,15.7c2.3,0.7,3.7,1,5.4-0.1
		c27-17,32.2-41.4,33-47.8C171.8,115.1,171.1,114.7,170.6,115z"/>
	
		<linearGradient id="SVGID_00000080175970393013272340000008682579501735874444_" gradientUnits="userSpaceOnUse" x1="141.7616" y1="84.8539" x2="173.4242" y2="84.8539">
		<stop  offset="0" style="stop-color:#AA367C"/>
		<stop  offset="1" style="stop-color:#4A2FBD"/>
	</linearGradient>
	<path style="fill:url(#SVGID_00000080175970393013272340000008682579501735874444_);" d="M173.4,100.9c-0.4-9-2.1-16.8-4.4-23.6
		c-4.3-11.5-11.5-21.6-20.7-29.5c-0.1,0.1-0.2,0.3-0.2,0.5c3.6,38.5-6.3,71.9-6.3,71.9c-0.1,0.9,0.9,1.7,1.8,1.3
		c15.7-6.8,27-15.5,27-15.5c1.7-1.5,2.8-2.5,2.9-4.3C173.4,101.5,173.4,101.2,173.4,100.9z"/>
	
		<linearGradient id="SVGID_00000056394272499482142640000005327487023215024269_" gradientUnits="userSpaceOnUse" x1="30.5758" y1="119.485" x2="61.879" y2="119.485">
		<stop  offset="0" style="stop-color:#AA367C"/>
		<stop  offset="1" style="stop-color:#4A2FBD"/>
	</linearGradient>
	<path style="fill:url(#SVGID_00000056394272499482142640000005327487023215024269_);" d="M60.1,82.5c-15.7,6.9-26.9,15.8-26.9,15.8
		c-1.2,1.1-2.2,2-2.6,3.1c0,0.3,0,0.6,0,1c0,3.5,0.3,7,0.8,10.3c1.2,7.3,3.2,13.6,5.6,19.1c4.4,9.6,10.8,18.1,18.7,24.8
		c0.4-0.1,0.7-0.4,0.6-0.8c-4.1-37.4,5.5-70.8,5.7-72.1C61.9,82.8,61,82.1,60.1,82.5z"/>
	
		<linearGradient id="SVGID_00000048487380242379800150000012535741955328777915_" gradientUnits="userSpaceOnUse" x1="32.0711" y1="64.6603" x2="98.165" y2="64.6603">
		<stop  offset="0" style="stop-color:#AA367C"/>
		<stop  offset="1" style="stop-color:#4A2FBD"/>
	</linearGradient>
	<path style="fill:url(#SVGID_00000048487380242379800150000012535741955328777915_);" d="M33.2,89.3c31.4-22.7,64.2-31.1,64.2-31.1
		c0.9-0.4,1-1.6,0.2-2.2c-14.3-11-27.4-15.5-27.4-15.5c-1.1-0.4-2.1-0.6-3-0.6c-17,9.5-29.7,25.6-34.5,44.9
		c-0.3,1.6-0.5,2.8-0.7,3.8C32,89.2,32.7,89.7,33.2,89.3z"/>
	
		<linearGradient id="SVGID_00000042703796699216581850000000828333224663397561_" gradientUnits="userSpaceOnUse" x1="63.7443" y1="150.2324" x2="125.4245" y2="150.2324">
		<stop  offset="0" style="stop-color:#AA367C"/>
		<stop  offset="1" style="stop-color:#4A2FBD"/>
	</linearGradient>
	<path style="fill:url(#SVGID_00000042703796699216581850000000828333224663397561_);" d="M125,168.2c-35.2-16-58.8-40.6-58.8-40.6
		c-0.8-0.5-1.9-0.1-2,0.9c-0.7,13.8-0.4,25.5-0.2,31.3c0.1,2.4,1.1,3.6,2.7,4.6c24.5,14,52.3,7.7,58.3,5.2
		C125.6,169.3,125.6,168.5,125,168.2z"/>
	
		<linearGradient id="SVGID_00000031904366445300111930000000845364548627169968_" gradientUnits="userSpaceOnUse" x1="65.8639" y1="101.9009" x2="138.4775" y2="101.9009">
		<stop  offset="0" style="stop-color:#AA367C"/>
		<stop  offset="1" style="stop-color:#4A2FBD"/>
	</linearGradient>
	<path style="fill:url(#SVGID_00000031904366445300111930000000845364548627169968_);" d="M113.3,66.4c-2.4-2.1-5.6-2.7-8.6-1.7
		l-27.6,9.8c-3,1-5.2,3.6-5.8,6.7L66,110.1c-0.6,3,0.5,6.1,2.8,8.1l21.5,19.2c2.3,2.1,5.6,2.8,8.6,1.8l27.4-9c2.9-1,5.1-3.4,5.8-6.4
		l6.2-28.9c0.7-3.1-0.4-6.3-2.8-8.4L113.3,66.4z"/>
</g>
</svg>
