<?xml version="1.0" encoding="utf-8"?>
<!-- Generator: Adobe Illustrator 26.2.1, SVG Export Plug-In . SVG Version: 6.00 Build 0)  -->
<svg version="1.1" id="Layer_1" xmlns="http://www.w3.org/2000/svg" xmlns:xlink="http://www.w3.org/1999/xlink" x="0px" y="0px"
	 viewBox="0 0 204 204" style="enable-background:new 0 0 204 204;" xml:space="preserve">
<style type="text/css">
	.st0{fill:url(#SVGID_1_);}
</style>
<linearGradient id="SVGID_1_" gradientUnits="userSpaceOnUse" x1="30.0001" y1="102" x2="173.9999" y2="102">
	<stop  offset="0" style="stop-color:#AA367C"/>
	<stop  offset="1" style="stop-color:#4A2FBD"/>
</linearGradient>
<path class="st0" d="M158.6,30H45.4C36.9,30,30,36.9,30,45.4v113.1c0,8.5,6.9,15.4,15.4,15.4h113.1c8.5,0,15.4-6.9,15.4-15.4V45.4
	C174,36.9,167.1,30,158.6,30z M108.4,142.3c0,14-8.2,20.4-20.2,20.4c-10.8,0-17.1-5.6-20.3-12.4l11-6.7c2.1,3.8,4,6.9,8.7,6.9
	c4.4,0,7.3-1.7,7.3-8.5v-46h13.5L108.4,142.3L108.4,142.3z M140.4,162.7c-12.6,0-20.7-6-24.7-13.8l11-6.4c2.9,4.7,6.7,8.2,13.3,8.2
	c5.6,0,9.2-2.8,9.2-6.7c0-4.6-3.7-6.3-9.9-9l-3.4-1.4c-9.8-4.1-16.2-9.4-16.2-20.4c0-10.2,7.7-17.9,19.8-17.9
	c8.6,0,14.8,3,19.2,10.8l-10.5,6.7c-2.3-4.1-4.8-5.8-8.7-5.8c-4,0-6.5,2.5-6.5,5.8c0,4,2.5,5.7,8.3,8.2l3.4,1.4
	c11.5,4.9,18,10,18,21.3C162.8,156,153.2,162.7,140.4,162.7L140.4,162.7z"/>
</svg>
