<?xml version="1.0" encoding="utf-8"?>
<!-- Generator: Adobe Illustrator 26.2.1, SVG Export Plug-In . SVG Version: 6.00 Build 0)  -->
<svg version="1.1" id="Layer_1" xmlns="http://www.w3.org/2000/svg" xmlns:xlink="http://www.w3.org/1999/xlink" x="0px" y="0px"
	 viewBox="0 0 204 204" style="enable-background:new 0 0 204 204;" xml:space="preserve">
<style type="text/css">
	.st0{fill:url(#SVGID_1_);}
</style>
<linearGradient id="SVGID_1_" gradientUnits="userSpaceOnUse" x1="27.6182" y1="102" x2="176.3818" y2="102">
	<stop  offset="0" style="stop-color:#AA367C"/>
	<stop  offset="1" style="stop-color:#4A2FBD"/>
</linearGradient>
<path class="st0" d="M102,185.9c-2.2,0-4.5-0.6-6.5-1.7L75,172c-3.1-1.7-1.6-2.3-0.6-2.7c4.1-1.4,4.9-1.7,9.3-4.2
	c0.5-0.3,1.1-0.2,1.5,0.1l15.8,9.4c0.6,0.3,1.4,0.3,1.9,0l61.5-35.5c0.6-0.3,0.9-1,0.9-1.7v-71c0-0.7-0.4-1.3-1-1.7l-61.5-35.5
	c-0.6-0.3-1.3-0.3-1.9,0L39.6,64.8c-0.6,0.3-1,1-1,1.7v71c0,0.7,0.4,1.3,1,1.6l16.8,9.7c9.2,4.6,14.7-0.8,14.7-6.2V72.5
	c0-1,0.8-1.8,1.8-1.8h7.8c1,0,1.8,0.8,1.8,1.8v70.1c0,12.2-6.7,19.2-18.2,19.2c-3.6,0-6.4,0-14.2-3.9l-16.1-9.3
	c-4-2.3-6.5-6.6-6.5-11.2v-71c0-4.6,2.5-8.9,6.5-11.2l61.4-35.5c3.9-2.2,9.1-2.2,12.9,0l61.5,35.5c4,2.3,6.5,6.6,6.5,11.2v71
	c0,4.6-2.5,8.9-6.5,11.2l-61.5,35.5C106.5,185.3,104.2,185.9,102,185.9z M151.6,115.9c0-13.3-9-16.8-27.9-19.3
	c-19.1-2.5-21-3.8-21-8.3c0-3.7,1.6-8.6,15.8-8.6c12.6,0,17.3,2.7,19.2,11.3c0.2,0.8,0.9,1.4,1.7,1.4h8c0.5,0,1-0.2,1.3-0.6
	c0.3-0.4,0.5-0.9,0.5-1.4c-1.2-14.7-11-21.5-30.7-21.5c-17.5,0-28,7.4-28,19.8c0,13.5,10.4,17.2,27.2,18.8c20.1,2,21.7,4.9,21.7,8.9
	c0,6.9-5.5,9.8-18.5,9.8c-16.3,0-19.8-4.1-21-12.2c-0.1-0.9-0.9-1.5-1.8-1.5h-8c-1,0-1.8,0.8-1.8,1.8c0,10.4,5.6,22.7,32.6,22.7
	C140.4,137,151.6,129.3,151.6,115.9L151.6,115.9z"/>
</svg>
