<?xml version="1.0" encoding="utf-8"?>
<!-- Generator: Adobe Illustrator 26.2.1, SVG Export Plug-In . SVG Version: 6.00 Build 0)  -->
<svg version="1.1" id="Layer_1" xmlns="http://www.w3.org/2000/svg" xmlns:xlink="http://www.w3.org/1999/xlink" x="0px" y="0px"
	 viewBox="0 0 204 204" style="enable-background:new 0 0 204 204;" xml:space="preserve">
<style type="text/css">
	.st0{fill:url(#SVGID_1_);}
	.st1{fill:url(#SVGID_00000042709317428979524810000004320826888279378088_);}
	.st2{fill:url(#SVGID_00000093155187204353335060000012374055344572207502_);}
</style>
<g>
	<linearGradient id="SVGID_1_" gradientUnits="userSpaceOnUse" x1="78.649" y1="62.6207" x2="135.7493" y2="62.6207">
		<stop  offset="0" style="stop-color:#AA367C"/>
		<stop  offset="1" style="stop-color:#4A2FBD"/>
	</linearGradient>
	<path class="st0" d="M92,41.3c12.6,0,24.7,2.3,27.6,5.6c4.5,5.2-3.3,18-27.1,35.4c-4.6,3.4-8,6.4-8.8,7.9c-0.4,0.8-0.2,2,1,2.1
		c1.3,0.2,4.5-0.5,9.7-3c21.2-10.3,45.6-31.3,40.8-45.6c-2.9-8.8-18.7-11.4-32-10.8c-13.2,0.6-25.2,3.7-24.5,6.2
		C79.6,42,88.6,41.3,92,41.3z"/>
	
		<linearGradient id="SVGID_00000026844273054805690440000017362971417313982618_" gradientUnits="userSpaceOnUse" x1="30.8339" y1="134.7556" x2="110.7697" y2="134.7556">
		<stop  offset="0" style="stop-color:#AA367C"/>
		<stop  offset="1" style="stop-color:#4A2FBD"/>
	</linearGradient>
	<path style="fill:url(#SVGID_00000026844273054805690440000017362971417313982618_);" d="M105.5,104.7c-7.5-5.2-21-6.9-32-6.3
		c-9.8,0.5-26.8,3.6-26.1,6.8c0.6,3.4,11.3,2.3,16.2,2.3c10.8,0,27.9,0.7,30.6,7.6c5.8,15-33.6,41.9-42,39.3
		c-3.8-1.2,7.7-20.7,11.9-27.7c2.5-4.2,6.3-10.8,3-11.2c-3.6-0.5-7.6,5.7-10.2,9.3c-7,9.7-14.2,20.3-20,31.3
		c-1.8,3.4-7.7,13.5-5.7,14.8c1.9,1.2,10.9-0.5,22.4-5.1c36.1-14.3,52.3-32.9,56.7-48.3C111.9,112,109.2,107.3,105.5,104.7z"/>
	
		<linearGradient id="SVGID_00000107558197060612768770000009795038123720973451_" gradientUnits="userSpaceOnUse" x1="98.7725" y1="117.6539" x2="173.1661" y2="117.6539">
		<stop  offset="0" style="stop-color:#AA367C"/>
		<stop  offset="1" style="stop-color:#4A2FBD"/>
	</linearGradient>
	<path style="fill:url(#SVGID_00000107558197060612768770000009795038123720973451_);" d="M163.4,87.9c3.7-0.1,11-0.2,9.5-3.1
		c-1.3-2.6-6.7-3.4-13.4-4.5c-11.7-1.9-32.7-2.7-39.9,8.3c-5.5,8.5,4.9,20.1,14.5,31.4c7.6,9,16,17.7,12.6,22.7
		c-2.8,4.1-20.6,4.1-26.7,4.4c-7.4,0.4-18.2,0.4-20,1.4c-1.7,0.9-2.6,3.7,3.7,4.8c5.1,0.9,17.1,2.8,29.8,2.8
		c13.3,0,27.2-2.2,30.2-12.5c2.4-8.2-6-17.1-13.4-26c-8.1-9.8-16.3-16.8-15.6-23.8C135.2,88.5,145.8,88.2,163.4,87.9z"/>
</g>
</svg>
