<?xml version="1.0" encoding="utf-8"?>
<!-- Generator: Adobe Illustrator 26.2.1, SVG Export Plug-In . SVG Version: 6.00 Build 0)  -->
<svg version="1.1" id="Layer_1" xmlns="http://www.w3.org/2000/svg" xmlns:xlink="http://www.w3.org/1999/xlink" x="0px" y="0px"
	 viewBox="0 0 204 204" style="enable-background:new 0 0 204 204;" xml:space="preserve">
<style type="text/css">
	.st0{fill:url(#SVGID_1_);}
	.st1{fill:url(#SVGID_00000114061239568785573780000001070117012026084781_);}
	.st2{fill:url(#SVGID_00000138568069248131757040000003228125528420331656_);}
</style>
<g>
	<linearGradient id="SVGID_1_" gradientUnits="userSpaceOnUse" x1="31.4291" y1="102" x2="172.5709" y2="102">
		<stop  offset="0" style="stop-color:#AA367C"/>
		<stop  offset="1" style="stop-color:#4A2FBD"/>
	</linearGradient>
	<path class="st0" d="M31.4,31.4v141.1h141.1V31.4H31.4z M165.4,165.4H38.6V38.6h126.8V165.4z"/>
	
		<linearGradient id="SVGID_00000027594483299534031850000003880946127560715658_" gradientUnits="userSpaceOnUse" x1="110.9494" y1="108.8842" x2="139.2584" y2="108.8842">
		<stop  offset="0" style="stop-color:#AA367C"/>
		<stop  offset="1" style="stop-color:#4A2FBD"/>
	</linearGradient>
	<path style="fill:url(#SVGID_00000027594483299534031850000003880946127560715658_);" d="M122.4,129.3c2.5,0,4.8-0.3,6.8-0.8
		c2.1-0.5,3.8-1.3,5.3-2.4c1.4-1.1,2.6-2.4,3.4-4.1c0.8-1.6,1.2-3.5,1.2-5.7c0-2-0.3-3.7-1-4.9c-0.7-1.3-1.5-2.4-2.6-3.2
		c-1.1-0.8-2.3-1.4-3.6-1.9c-1.3-0.5-2.7-0.8-4-1.1c-0.8-0.2-1.7-0.4-2.7-0.7c-0.9-0.2-1.7-0.5-2.6-0.9c-0.8-0.3-1.5-0.8-1.9-1.3
		c-0.4-0.6-0.7-1.3-0.7-2.1c0-0.5,0.1-1,0.3-1.5c0.2-0.5,0.6-0.9,1-1.2c0.5-0.4,1.1-0.7,1.9-0.9c0.8-0.2,1.7-0.3,2.9-0.3
		c0.9,0,1.8,0,2.8,0.2c1,0.1,2,0.3,3,0.4c1,0.2,2,0.4,3,0.6c1,0.2,1.9,0.5,2.8,0.8v-7.7c-1.7-0.6-3.6-1.1-5.6-1.5
		c-2.1-0.4-4.3-0.6-6.7-0.6c-1.9,0-3.8,0.3-5.5,0.8c-1.7,0.5-3.3,1.3-4.6,2.3s-2.4,2.4-3.2,3.9c-0.8,1.6-1.2,3.5-1.2,5.6
		c0,1.7,0.3,3.2,0.9,4.4c0.6,1.2,1.3,2.2,2.3,3c1,0.8,2.1,1.4,3.4,1.9c1.3,0.5,2.6,0.9,4,1.3c1.1,0.3,2.1,0.5,3.2,0.8
		c1,0.3,1.9,0.6,2.7,1c0.8,0.4,1.4,0.8,1.8,1.3c0.5,0.5,0.7,1.2,0.7,2c0,0.8-0.2,1.5-0.6,2c-0.4,0.6-1,1-1.7,1.4
		c-0.7,0.4-1.6,0.6-2.6,0.8c-1,0.2-2.1,0.2-3.3,0.2c-1.5,0-3.2-0.1-4.9-0.4c-1.8-0.3-3.7-0.8-5.8-1.5v7.6c1.3,0.6,2.9,1.1,4.9,1.5
		C117.8,129,120,129.3,122.4,129.3z"/>
	
		<linearGradient id="SVGID_00000075858669539418283140000002834712808001578663_" gradientUnits="userSpaceOnUse" x1="64.7417" y1="101.5131" x2="103.5615" y2="101.5131">
		<stop  offset="0" style="stop-color:#AA367C"/>
		<stop  offset="1" style="stop-color:#4A2FBD"/>
	</linearGradient>
	<path style="fill:url(#SVGID_00000075858669539418283140000002834712808001578663_);" d="M74.6,107.3c0.7,0.1,1.5,0.1,2.4,0.2
		c0.9,0,1.7,0,2.6,0c3.8,0,7.2-0.4,10.2-1.1c3-0.8,5.5-1.9,7.5-3.3c2-1.4,3.6-3.2,4.7-5.3c1-2,1.6-4.4,1.6-7c0-3.8-1-6.9-3-9.3
		c-2-2.5-4.8-4.3-8.5-5.4c-1.5-0.5-3.2-0.8-5.2-1c-1.9-0.2-4.2-0.3-6.8-0.3H64.7v53.5h9.8V107.3z M74.6,82.9h5.5c2,0,3.7,0.1,5,0.2
		c1.4,0.1,2.5,0.4,3.5,0.7c1.8,0.6,3,1.5,3.8,2.7c0.7,1.2,1.1,2.5,1.1,4.1c0,1.3-0.2,2.5-0.7,3.5c-0.5,1.1-1.2,2-2.4,2.8
		c-1.1,0.8-2.5,1.4-4.3,1.8c-1.8,0.4-4,0.6-6.6,0.6c-0.9,0-1.8,0-2.7,0c-0.8-0.1-1.5-0.1-2.1-0.2V82.9z"/>
</g>
</svg>
