<?xml version="1.0" encoding="utf-8"?>
<!-- Generator: Adobe Illustrator 26.2.1, SVG Export Plug-In . SVG Version: 6.00 Build 0)  -->
<svg version="1.1" id="Layer_1" xmlns="http://www.w3.org/2000/svg" xmlns:xlink="http://www.w3.org/1999/xlink" x="0px" y="0px"
	 viewBox="0 0 204 204" style="enable-background:new 0 0 204 204;" xml:space="preserve">
<style type="text/css">
	.st0{fill:url(#SVGID_1_);}
</style>
<linearGradient id="SVGID_1_" gradientUnits="userSpaceOnUse" x1="46.4981" y1="102" x2="157.5019" y2="102">
	<stop  offset="0" style="stop-color:#AA367C"/>
	<stop  offset="1" style="stop-color:#4A2FBD"/>
</linearGradient>
<path class="st0" d="M46.5,52c0-16.5,13.4-29.9,29.9-29.9h51.3c16.5,0,29.9,13.4,29.9,29.9c0,10.4-5.4,19.6-13.5,25
	c8.1,5.3,13.5,14.5,13.5,25c0,16.5-13.4,29.9-29.9,29.9H127c-7.7,0-14.8-2.9-20.1-7.8v27.5c0,16.7-13.7,30.2-30.4,30.2
	c-16.5,0-30-13.3-30-29.9c0-10.4,5.4-19.6,13.5-25c-8.1-5.3-13.5-14.5-13.5-25c0-10.4,5.4-19.6,13.5-25C51.9,71.7,46.5,62.5,46.5,52
	z M97.1,81.9H76.4c-11.1,0-20.1,9-20.1,20.1c0,11.1,8.9,20,20,20.1c0,0,0.1,0,0.1,0h20.7V81.9z M106.9,102c0,11.1,9,20.1,20.1,20.1
	h0.6c11.1,0,20.1-9,20.1-20.1s-9-20.1-20.1-20.1H127C115.9,81.9,106.9,90.9,106.9,102z M76.4,131.9c0,0-0.1,0-0.1,0
	c-11,0.1-20,9-20,20.1c0,11.1,9.1,20.1,20.2,20.1c11.3,0,20.6-9.2,20.6-20.4v-19.8H76.4z M76.4,32c-11.1,0-20.1,9-20.1,20.1
	c0,11.1,9,20.1,20.1,20.1h20.7V32H76.4z M106.9,72.1h20.7c11.1,0,20.1-9,20.1-20.1c0-11.1-9-20.1-20.1-20.1h-20.7V72.1z"/>
</svg>
