<?xml version="1.0" encoding="utf-8"?>
<!-- Generator: Adobe Illustrator 26.2.1, SVG Export Plug-In . SVG Version: 6.00 Build 0)  -->
<svg version="1.1" id="Layer_1" xmlns="http://www.w3.org/2000/svg" xmlns:xlink="http://www.w3.org/1999/xlink" x="0px" y="0px"
	 viewBox="0 0 204 204" style="enable-background:new 0 0 204 204;" xml:space="preserve">
<style type="text/css">
	.st0{fill:url(#SVGID_1_);}
</style>
<radialGradient id="SVGID_1_" cx="102" cy="102" r="74.8758" gradientUnits="userSpaceOnUse">
	<stop  offset="0" style="stop-color:#AA367C"/>
	<stop  offset="1" style="stop-color:#4A2FBD"/>
</radialGradient>
<path class="st0" d="M152.5,77.5c-1.7-0.6-3.4-1.1-5-1.6c0.3-1.2,0.5-2.3,0.8-3.5c3.8-18.6,1.3-33.5-7.2-38.4
	c-8.2-4.7-21.5,0.2-35.1,12c-1.3,1.2-2.6,2.4-3.9,3.6c-0.8-0.8-1.7-1.6-2.6-2.4C85.3,34.6,71.2,29.3,62.7,34.3
	C54.5,39,52.1,53,55.5,70.6c0.3,1.7,0.7,3.5,1.2,5.2c-2,0.6-4,1.2-5.8,1.8c-16.6,5.8-28.5,14.8-28.5,24.2c0,9.7,12.7,19.5,30,25.4
	c1.4,0.5,2.8,0.9,4.2,1.3c-0.5,1.9-0.9,3.7-1.2,5.6c-3.3,17.3-0.7,31,7.4,35.7c8.4,4.9,22.5-0.1,36.3-12.2c1.1-1,2.2-2,3.3-3
	c1.4,1.3,2.8,2.6,4.2,3.9c13.3,11.5,26.5,16.1,34.6,11.4c8.4-4.9,11.1-19.6,7.6-37.5c-0.3-1.4-0.6-2.8-0.9-4.2c1-0.3,2-0.6,2.9-0.9
	c18-5.9,31-15.6,31-25.4C181.7,92.4,169.4,83.3,152.5,77.5L152.5,77.5z M110.4,51c11.6-10.1,22.4-14,27.3-11.2
	c5.3,3,7.3,15.2,4,31.3c-0.2,1.1-0.4,2.1-0.7,3.1c-6.9-1.6-13.9-2.7-20.9-3.3c-4-5.8-8.5-11.3-13.3-16.5
	C107.9,53.2,109.1,52.1,110.4,51z M74.4,118c1.6,2.7,3.2,5.4,4.9,8.1c-4.9-0.5-9.7-1.3-14.4-2.3c1.4-4.5,3.1-9.1,5.1-13.9
	C71.3,112.6,72.8,115.3,74.4,118L74.4,118z M64.9,80.6c4.5-1,9.2-1.8,14.2-2.4c-1.6,2.6-3.3,5.2-4.8,7.9c-1.5,2.6-3,5.4-4.4,8.1
	C67.9,89.5,66.3,85,64.9,80.6L64.9,80.6z M73.5,102c2.1-4.3,4.3-8.5,6.7-12.6c2.4-4.1,4.9-8.2,7.6-12.1c4.7-0.3,9.4-0.5,14.3-0.5
	c4.9,0,9.6,0.2,14.3,0.5c2.6,3.9,5.2,7.9,7.6,12c2.4,4.1,4.6,8.3,6.8,12.6c-2.1,4.3-4.3,8.5-6.7,12.7c-2.4,4.1-4.9,8.2-7.5,12.1
	c-4.6,0.3-9.5,0.5-14.4,0.5c-4.9,0-9.6-0.2-14.2-0.4c-2.7-4-5.3-8-7.7-12.1C77.8,110.5,75.5,106.3,73.5,102L73.5,102z M129.7,118
	c1.6-2.7,3.1-5.5,4.5-8.3c2,4.5,3.7,9.1,5.3,13.8c-4.8,1.1-9.7,1.9-14.6,2.5C126.5,123.3,128.1,120.6,129.7,118L129.7,118z
	 M134.2,94.1c-1.5-2.7-3-5.5-4.5-8.2c-1.5-2.6-3.1-5.3-4.8-7.8c5,0.6,9.8,1.5,14.3,2.5C137.7,85.2,136.1,89.7,134.2,94.1z
	 M102.1,59.1c3.3,3.5,6.4,7.3,9.2,11.1c-6.2-0.3-12.4-0.3-18.5,0C95.8,66.3,98.9,62.5,102.1,59.1z M66,40C71.2,37,82.8,41.4,95,52.2
	c0.8,0.7,1.6,1.4,2.4,2.2c-4.8,5.2-9.3,10.7-13.4,16.5c-7,0.6-14,1.7-20.9,3.2c-0.4-1.6-0.7-3.2-1.1-4.8C59.1,54.2,61,42.9,66,40
	L66,40z M58.3,122.1c-1.3-0.4-2.6-0.8-3.9-1.2c-6.6-2.1-14.2-5.4-19.6-9.7c-3.1-2.2-5.3-5.5-5.9-9.3c0-5.7,9.8-13,24-17.9
	c1.8-0.6,3.6-1.2,5.4-1.7C60.5,89,63.1,95.6,66,102C63.1,108.5,60.5,115.3,58.3,122.1z M94.6,152.6c-5.1,4.7-11.1,8.4-17.6,11
	c-3.5,1.6-7.4,1.8-11,0.4c-4.9-2.9-7-13.9-4.2-28.6c0.3-1.7,0.7-3.5,1.2-5.2c7,1.5,14,2.5,21.1,3.1c4.1,5.8,8.6,11.4,13.4,16.6
	C96.6,150.8,95.6,151.7,94.6,152.6L94.6,152.6z M102.2,145c-3.2-3.4-6.4-7.2-9.4-11.3c3,0.1,6.1,0.2,9.2,0.2c3.2,0,6.4-0.1,9.5-0.2
	C108.6,137.7,105.5,141.4,102.2,145z M142.9,154.4c-0.3,3.8-2.1,7.3-5.1,9.7c-4.9,2.9-15.5-0.9-26.9-10.6c-1.3-1.1-2.6-2.3-4-3.6
	c4.8-5.3,9.2-10.8,13.1-16.7c7.1-0.6,14.2-1.7,21.2-3.3c0.3,1.3,0.6,2.6,0.8,3.8C143.7,140.5,143.9,147.5,142.9,154.4L142.9,154.4z
	 M148.6,120.9c-0.9,0.3-1.7,0.6-2.6,0.8c-2.2-6.8-4.9-13.4-7.9-19.9c3-6.4,5.5-12.9,7.6-19.6c1.6,0.5,3.2,1,4.7,1.5
	c14.5,5,24.7,12.4,24.7,18.1C175,107.9,164.1,115.8,148.6,120.9z M102,116.2c7.9,0,14.3-6.4,14.3-14.3s-6.4-14.3-14.3-14.3
	c-7.9,0-14.3,6.4-14.3,14.3S94.1,116.2,102,116.2L102,116.2z"/>
</svg>
