<?xml version="1.0" encoding="utf-8"?>
<!-- Generator: Adobe Illustrator 26.2.1, SVG Export Plug-In . SVG Version: 6.00 Build 0)  -->
<svg version="1.1" id="Layer_1" xmlns="http://www.w3.org/2000/svg" xmlns:xlink="http://www.w3.org/1999/xlink" x="0px" y="0px"
	 viewBox="0 0 16 16" style="enable-background:new 0 0 16 16;" xml:space="preserve">
<style type="text/css">
	.st0{fill:#FFFFFF;}
</style>
<path class="st0" d="M5.9,13.5c0.4,0.1,0.5-0.2,0.5-0.4c0-0.2,0-0.7,0-1.3c-2.2,0.5-2.6-1-2.6-1C3.5,9.9,3,9.6,3,9.6
	C2.3,9.2,3,9.2,3,9.2C3.8,9.2,4.2,10,4.2,10c0.7,1.2,1.8,0.8,2.3,0.6c0.1-0.5,0.3-0.8,0.5-1C5.2,9.4,3.4,8.7,3.4,5.7
	c0-0.8,0.3-1.5,0.8-2.1c-0.1-0.2-0.3-1,0.1-2.1c0,0,0.7-0.2,2.1,0.8c0.6-0.2,1.3-0.3,1.9-0.3c0.7,0,1.3,0.1,1.9,0.3
	c1.5-1,2.1-0.8,2.1-0.8c0.4,1.1,0.2,1.9,0.1,2.1c0.5,0.5,0.8,1.2,0.8,2.1c0,3-1.8,3.6-3.5,3.8c0.3,0.2,0.5,0.7,0.5,1.4
	c0,1,0,1.9,0,2.1c0,0.2,0.1,0.4,0.5,0.4c0,0-0.6,0.9-2.5,0.9C6.6,14.4,5.9,13.5,5.9,13.5z"/>
</svg>
